<?xml version="1.0" encoding="UTF-8" standalone="no"?>
<!DOCTYPE svg PUBLIC "-//W3C//DTD SVG 1.1//EN"
 "http://www.w3.org/Graphics/SVG/1.1/DTD/svg11.dtd">
<!-- Generated by graphviz version 2.43.0 (0)
 -->
<!-- Title: %3 Pages: 1 -->
<svg width="292pt" height="233pt"
 viewBox="0.00 0.00 292.00 232.91" xmlns="http://www.w3.org/2000/svg" xmlns:xlink="http://www.w3.org/1999/xlink">
<g id="graph0" class="graph" transform="scale(1 1) rotate(0) translate(4 228.91)">
<title>%3</title>
<polygon fill="white" stroke="transparent" points="-4,4 -4,-228.91 288,-228.91 288,4 -4,4"/>
<g id="clust1" class="cluster">
<title>cluster170</title>
<path fill="none" stroke="black" d="M150,-8C150,-8 264,-8 264,-8 270,-8 276,-14 276,-20 276,-20 276,-109.95 276,-109.95 276,-115.95 270,-121.95 264,-121.95 264,-121.95 150,-121.95 150,-121.95 144,-121.95 138,-115.95 138,-109.95 138,-109.95 138,-20 138,-20 138,-14 144,-8 150,-8"/>
<text text-anchor="middle" x="254" y="-15.8" font-family="Times,serif" font-size="14.00">170</text>
</g>
<!-- P(treatment | positive) -->
<g id="node1" class="node">
<title>P(treatment | positive)</title>
<ellipse fill="none" stroke="black" cx="135" cy="-187.43" rx="126.64" ry="37.45"/>
<text text-anchor="middle" x="135" y="-198.73" font-family="Times,serif" font-size="14.00">P(treatment | positive)</text>
<text text-anchor="middle" x="135" y="-183.73" font-family="Times,serif" font-size="14.00">~</text>
<text text-anchor="middle" x="135" y="-168.73" font-family="Times,serif" font-size="14.00">Beta</text>
</g>
<!-- vaccine efficacy -->
<g id="node2" class="node">
<title>vaccine efficacy</title>
<polygon fill="none" stroke="black" points="128,-102.98 0,-102.98 0,-49.98 128,-49.98 128,-102.98"/>
<text text-anchor="middle" x="64" y="-87.78" font-family="Times,serif" font-size="14.00">vaccine efficacy</text>
<text text-anchor="middle" x="64" y="-72.78" font-family="Times,serif" font-size="14.00">~</text>
<text text-anchor="middle" x="64" y="-57.78" font-family="Times,serif" font-size="14.00">Deterministic</text>
</g>
<!-- P(treatment | positive)&#45;&gt;vaccine efficacy -->
<g id="edge2" class="edge">
<title>P(treatment | positive)&#45;&gt;vaccine efficacy</title>
<path fill="none" stroke="black" d="M111.56,-150.45C103.43,-137.98 94.35,-124.05 86.32,-111.72"/>
<polygon fill="black" stroke="black" points="89.07,-109.54 80.68,-103.07 83.21,-113.36 89.07,-109.54"/>
</g>
<!-- likelihood -->
<g id="node3" class="node">
<title>likelihood</title>
<ellipse fill="lightgrey" stroke="black" cx="207" cy="-76.48" rx="60.62" ry="37.45"/>
<text text-anchor="middle" x="207" y="-87.78" font-family="Times,serif" font-size="14.00">likelihood</text>
<text text-anchor="middle" x="207" y="-72.78" font-family="Times,serif" font-size="14.00">~</text>
<text text-anchor="middle" x="207" y="-57.78" font-family="Times,serif" font-size="14.00">Bernoulli</text>
</g>
<!-- P(treatment | positive)&#45;&gt;likelihood -->
<g id="edge1" class="edge">
<title>P(treatment | positive)&#45;&gt;likelihood</title>
<path fill="none" stroke="black" d="M158.78,-150.45C165.17,-140.77 172.16,-130.2 178.78,-120.19"/>
<polygon fill="black" stroke="black" points="181.88,-121.84 184.47,-111.57 176.04,-117.98 181.88,-121.84"/>
</g>
</g>
</svg>
