<?xml version="1.0" encoding="utf-8"?>
<svg xmlns="http://www.w3.org/2000/svg" xmlns:xlink="http://www.w3.org/1999/xlink" width="672" height="480" viewBox="0 0 2688 1920">
<defs>
  <clipPath id="clip180">
    <rect x="0" y="0" width="2688" height="1920"/>
  </clipPath>
</defs>
<path clip-path="url(#clip180)" d="
M0 1920 L2688 1920 L2688 0 L0 0  Z
  " fill="#ffffff" fill-rule="evenodd" fill-opacity="1"/>
<defs>
  <clipPath id="clip181">
    <rect x="537" y="0" width="1883" height="1883"/>
  </clipPath>
</defs>
<path clip-path="url(#clip180)" d="
M246.627 1734.12 L2640.76 1734.12 L2640.76 47.2441 L246.627 47.2441  Z
  " fill="#ffffff" fill-rule="evenodd" fill-opacity="1"/>
<defs>
  <clipPath id="clip182">
    <rect x="246" y="47" width="2395" height="1688"/>
  </clipPath>
</defs>
<polyline clip-path="url(#clip182)" style="stroke:#000000; stroke-linecap:round; stroke-linejoin:round; stroke-width:2; stroke-opacity:0.1; fill:none" points="
  306.112,1734.12 306.112,47.2441 
  "/>
<polyline clip-path="url(#clip182)" style="stroke:#000000; stroke-linecap:round; stroke-linejoin:round; stroke-width:2; stroke-opacity:0.1; fill:none" points="
  810.783,1734.12 810.783,47.2441 
  "/>
<polyline clip-path="url(#clip182)" style="stroke:#000000; stroke-linecap:round; stroke-linejoin:round; stroke-width:2; stroke-opacity:0.1; fill:none" points="
  1315.45,1734.12 1315.45,47.2441 
  "/>
<polyline clip-path="url(#clip182)" style="stroke:#000000; stroke-linecap:round; stroke-linejoin:round; stroke-width:2; stroke-opacity:0.1; fill:none" points="
  1820.13,1734.12 1820.13,47.2441 
  "/>
<polyline clip-path="url(#clip182)" style="stroke:#000000; stroke-linecap:round; stroke-linejoin:round; stroke-width:2; stroke-opacity:0.1; fill:none" points="
  2324.8,1734.12 2324.8,47.2441 
  "/>
<polyline clip-path="url(#clip180)" style="stroke:#000000; stroke-linecap:round; stroke-linejoin:round; stroke-width:4; stroke-opacity:1; fill:none" points="
  246.627,1734.12 2640.76,1734.12 
  "/>
<polyline clip-path="url(#clip180)" style="stroke:#000000; stroke-linecap:round; stroke-linejoin:round; stroke-width:4; stroke-opacity:1; fill:none" points="
  306.112,1734.12 306.112,1715.22 
  "/>
<polyline clip-path="url(#clip180)" style="stroke:#000000; stroke-linecap:round; stroke-linejoin:round; stroke-width:4; stroke-opacity:1; fill:none" points="
  810.783,1734.12 810.783,1715.22 
  "/>
<polyline clip-path="url(#clip180)" style="stroke:#000000; stroke-linecap:round; stroke-linejoin:round; stroke-width:4; stroke-opacity:1; fill:none" points="
  1315.45,1734.12 1315.45,1715.22 
  "/>
<polyline clip-path="url(#clip180)" style="stroke:#000000; stroke-linecap:round; stroke-linejoin:round; stroke-width:4; stroke-opacity:1; fill:none" points="
  1820.13,1734.12 1820.13,1715.22 
  "/>
<polyline clip-path="url(#clip180)" style="stroke:#000000; stroke-linecap:round; stroke-linejoin:round; stroke-width:4; stroke-opacity:1; fill:none" points="
  2324.8,1734.12 2324.8,1715.22 
  "/>
<path clip-path="url(#clip180)" d="M177.906 1794.89 L194.226 1794.89 L194.226 1798.82 L172.281 1798.82 L172.281 1794.89 Q174.943 1792.13 179.527 1787.5 Q184.133 1782.85 185.314 1781.51 Q187.559 1778.98 188.439 1777.25 Q189.341 1775.49 189.341 1773.8 Q189.341 1771.04 187.397 1769.31 Q185.476 1767.57 182.374 1767.57 Q180.175 1767.57 177.721 1768.34 Q175.291 1769.1 172.513 1770.65 L172.513 1765.93 Q175.337 1764.79 177.791 1764.21 Q180.244 1763.64 182.281 1763.64 Q187.652 1763.64 190.846 1766.32 Q194.04 1769.01 194.04 1773.5 Q194.04 1775.63 193.23 1777.55 Q192.443 1779.45 190.337 1782.04 Q189.758 1782.71 186.656 1785.93 Q183.554 1789.12 177.906 1794.89 Z" fill="#000000" fill-rule="evenodd" fill-opacity="1" /><path clip-path="url(#clip180)" d="M214.04 1767.34 Q210.429 1767.34 208.601 1770.9 Q206.795 1774.45 206.795 1781.58 Q206.795 1788.68 208.601 1792.25 Q210.429 1795.79 214.04 1795.79 Q217.675 1795.79 219.48 1792.25 Q221.309 1788.68 221.309 1781.58 Q221.309 1774.45 219.48 1770.9 Q217.675 1767.34 214.04 1767.34 M214.04 1763.64 Q219.851 1763.64 222.906 1768.24 Q225.985 1772.83 225.985 1781.58 Q225.985 1790.3 222.906 1794.91 Q219.851 1799.49 214.04 1799.49 Q208.23 1799.49 205.152 1794.91 Q202.096 1790.3 202.096 1781.58 Q202.096 1772.83 205.152 1768.24 Q208.23 1763.64 214.04 1763.64 Z" fill="#000000" fill-rule="evenodd" fill-opacity="1" /><path clip-path="url(#clip180)" d="M238.23 1794.89 L254.549 1794.89 L254.549 1798.82 L232.605 1798.82 L232.605 1794.89 Q235.267 1792.13 239.85 1787.5 Q244.457 1782.85 245.637 1781.51 Q247.883 1778.98 248.762 1777.25 Q249.665 1775.49 249.665 1773.8 Q249.665 1771.04 247.721 1769.31 Q245.799 1767.57 242.698 1767.57 Q240.499 1767.57 238.045 1768.34 Q235.614 1769.1 232.837 1770.65 L232.837 1765.93 Q235.661 1764.79 238.114 1764.21 Q240.568 1763.64 242.605 1763.64 Q247.975 1763.64 251.17 1766.32 Q254.364 1769.01 254.364 1773.5 Q254.364 1775.63 253.554 1777.55 Q252.767 1779.45 250.661 1782.04 Q250.082 1782.71 246.98 1785.93 Q243.878 1789.12 238.23 1794.89 Z" fill="#000000" fill-rule="evenodd" fill-opacity="1" /><path clip-path="url(#clip180)" d="M274.364 1767.34 Q270.753 1767.34 268.924 1770.9 Q267.119 1774.45 267.119 1781.58 Q267.119 1788.68 268.924 1792.25 Q270.753 1795.79 274.364 1795.79 Q277.998 1795.79 279.804 1792.25 Q281.633 1788.68 281.633 1781.58 Q281.633 1774.45 279.804 1770.9 Q277.998 1767.34 274.364 1767.34 M274.364 1763.64 Q280.174 1763.64 283.23 1768.24 Q286.308 1772.83 286.308 1781.58 Q286.308 1790.3 283.23 1794.91 Q280.174 1799.49 274.364 1799.49 Q268.554 1799.49 265.475 1794.91 Q262.42 1790.3 262.42 1781.58 Q262.42 1772.83 265.475 1768.24 Q268.554 1763.64 274.364 1763.64 Z" fill="#000000" fill-rule="evenodd" fill-opacity="1" /><path clip-path="url(#clip180)" d="M291.771 1783.94 L304.248 1783.94 L304.248 1787.73 L291.771 1787.73 L291.771 1783.94 Z" fill="#000000" fill-rule="evenodd" fill-opacity="1" /><path clip-path="url(#clip180)" d="M321.632 1767.34 Q318.021 1767.34 316.193 1770.9 Q314.387 1774.45 314.387 1781.58 Q314.387 1788.68 316.193 1792.25 Q318.021 1795.79 321.632 1795.79 Q325.267 1795.79 327.072 1792.25 Q328.901 1788.68 328.901 1781.58 Q328.901 1774.45 327.072 1770.9 Q325.267 1767.34 321.632 1767.34 M321.632 1763.64 Q327.443 1763.64 330.498 1768.24 Q333.577 1772.83 333.577 1781.58 Q333.577 1790.3 330.498 1794.91 Q327.443 1799.49 321.632 1799.49 Q315.822 1799.49 312.744 1794.91 Q309.688 1790.3 309.688 1781.58 Q309.688 1772.83 312.744 1768.24 Q315.822 1763.64 321.632 1763.64 Z" fill="#000000" fill-rule="evenodd" fill-opacity="1" /><path clip-path="url(#clip180)" d="M354.641 1768.34 L342.836 1786.78 L354.641 1786.78 L354.641 1768.34 M353.415 1764.26 L359.294 1764.26 L359.294 1786.78 L364.225 1786.78 L364.225 1790.67 L359.294 1790.67 L359.294 1798.82 L354.641 1798.82 L354.641 1790.67 L339.04 1790.67 L339.04 1786.16 L353.415 1764.26 Z" fill="#000000" fill-rule="evenodd" fill-opacity="1" /><path clip-path="url(#clip180)" d="M369.202 1783.94 L381.678 1783.94 L381.678 1787.73 L369.202 1787.73 L369.202 1783.94 Z" fill="#000000" fill-rule="evenodd" fill-opacity="1" /><path clip-path="url(#clip180)" d="M399.063 1767.34 Q395.451 1767.34 393.623 1770.9 Q391.817 1774.45 391.817 1781.58 Q391.817 1788.68 393.623 1792.25 Q395.451 1795.79 399.063 1795.79 Q402.697 1795.79 404.502 1792.25 Q406.331 1788.68 406.331 1781.58 Q406.331 1774.45 404.502 1770.9 Q402.697 1767.34 399.063 1767.34 M399.063 1763.64 Q404.873 1763.64 407.928 1768.24 Q411.007 1772.83 411.007 1781.58 Q411.007 1790.3 407.928 1794.91 Q404.873 1799.49 399.063 1799.49 Q393.252 1799.49 390.174 1794.91 Q387.118 1790.3 387.118 1781.58 Q387.118 1772.83 390.174 1768.24 Q393.252 1763.64 399.063 1763.64 Z" fill="#000000" fill-rule="evenodd" fill-opacity="1" /><path clip-path="url(#clip180)" d="M420.035 1794.89 L427.673 1794.89 L427.673 1768.52 L419.363 1770.19 L419.363 1765.93 L427.627 1764.26 L432.303 1764.26 L432.303 1794.89 L439.942 1794.89 L439.942 1798.82 L420.035 1798.82 L420.035 1794.89 Z" fill="#000000" fill-rule="evenodd" fill-opacity="1" /><path clip-path="url(#clip180)" d="M682.578 1794.89 L698.897 1794.89 L698.897 1798.82 L676.953 1798.82 L676.953 1794.89 Q679.615 1792.13 684.198 1787.5 Q688.805 1782.85 689.985 1781.51 Q692.231 1778.98 693.11 1777.25 Q694.013 1775.49 694.013 1773.8 Q694.013 1771.04 692.069 1769.31 Q690.147 1767.57 687.046 1767.57 Q684.846 1767.57 682.393 1768.34 Q679.962 1769.1 677.184 1770.65 L677.184 1765.93 Q680.009 1764.79 682.462 1764.21 Q684.916 1763.64 686.953 1763.64 Q692.323 1763.64 695.518 1766.32 Q698.712 1769.01 698.712 1773.5 Q698.712 1775.63 697.902 1777.55 Q697.115 1779.45 695.008 1782.04 Q694.43 1782.71 691.328 1785.93 Q688.226 1789.12 682.578 1794.89 Z" fill="#000000" fill-rule="evenodd" fill-opacity="1" /><path clip-path="url(#clip180)" d="M718.712 1767.34 Q715.101 1767.34 713.272 1770.9 Q711.467 1774.45 711.467 1781.58 Q711.467 1788.68 713.272 1792.25 Q715.101 1795.79 718.712 1795.79 Q722.346 1795.79 724.152 1792.25 Q725.981 1788.68 725.981 1781.58 Q725.981 1774.45 724.152 1770.9 Q722.346 1767.34 718.712 1767.34 M718.712 1763.64 Q724.522 1763.64 727.578 1768.24 Q730.656 1772.83 730.656 1781.58 Q730.656 1790.3 727.578 1794.91 Q724.522 1799.49 718.712 1799.49 Q712.902 1799.49 709.823 1794.91 Q706.768 1790.3 706.768 1781.58 Q706.768 1772.83 709.823 1768.24 Q712.902 1763.64 718.712 1763.64 Z" fill="#000000" fill-rule="evenodd" fill-opacity="1" /><path clip-path="url(#clip180)" d="M742.902 1794.89 L759.221 1794.89 L759.221 1798.82 L737.277 1798.82 L737.277 1794.89 Q739.939 1792.13 744.522 1787.5 Q749.129 1782.85 750.309 1781.51 Q752.554 1778.98 753.434 1777.25 Q754.337 1775.49 754.337 1773.8 Q754.337 1771.04 752.392 1769.31 Q750.471 1767.57 747.369 1767.57 Q745.17 1767.57 742.717 1768.34 Q740.286 1769.1 737.508 1770.65 L737.508 1765.93 Q740.332 1764.79 742.786 1764.21 Q745.24 1763.64 747.277 1763.64 Q752.647 1763.64 755.841 1766.32 Q759.036 1769.01 759.036 1773.5 Q759.036 1775.63 758.226 1777.55 Q757.439 1779.45 755.332 1782.04 Q754.754 1782.71 751.652 1785.93 Q748.55 1789.12 742.902 1794.89 Z" fill="#000000" fill-rule="evenodd" fill-opacity="1" /><path clip-path="url(#clip180)" d="M779.036 1767.34 Q775.425 1767.34 773.596 1770.9 Q771.79 1774.45 771.79 1781.58 Q771.79 1788.68 773.596 1792.25 Q775.425 1795.79 779.036 1795.79 Q782.67 1795.79 784.476 1792.25 Q786.304 1788.68 786.304 1781.58 Q786.304 1774.45 784.476 1770.9 Q782.67 1767.34 779.036 1767.34 M779.036 1763.64 Q784.846 1763.64 787.901 1768.24 Q790.98 1772.83 790.98 1781.58 Q790.98 1790.3 787.901 1794.91 Q784.846 1799.49 779.036 1799.49 Q773.226 1799.49 770.147 1794.91 Q767.091 1790.3 767.091 1781.58 Q767.091 1772.83 770.147 1768.24 Q773.226 1763.64 779.036 1763.64 Z" fill="#000000" fill-rule="evenodd" fill-opacity="1" /><path clip-path="url(#clip180)" d="M796.443 1783.94 L808.92 1783.94 L808.92 1787.73 L796.443 1787.73 L796.443 1783.94 Z" fill="#000000" fill-rule="evenodd" fill-opacity="1" /><path clip-path="url(#clip180)" d="M826.304 1767.34 Q822.693 1767.34 820.864 1770.9 Q819.059 1774.45 819.059 1781.58 Q819.059 1788.68 820.864 1792.25 Q822.693 1795.79 826.304 1795.79 Q829.938 1795.79 831.744 1792.25 Q833.573 1788.68 833.573 1781.58 Q833.573 1774.45 831.744 1770.9 Q829.938 1767.34 826.304 1767.34 M826.304 1763.64 Q832.114 1763.64 835.17 1768.24 Q838.248 1772.83 838.248 1781.58 Q838.248 1790.3 835.17 1794.91 Q832.114 1799.49 826.304 1799.49 Q820.494 1799.49 817.415 1794.91 Q814.36 1790.3 814.36 1781.58 Q814.36 1772.83 817.415 1768.24 Q820.494 1763.64 826.304 1763.64 Z" fill="#000000" fill-rule="evenodd" fill-opacity="1" /><path clip-path="url(#clip180)" d="M857.045 1779.68 Q853.896 1779.68 852.045 1781.83 Q850.216 1783.98 850.216 1787.73 Q850.216 1791.46 852.045 1793.64 Q853.896 1795.79 857.045 1795.79 Q860.193 1795.79 862.021 1793.64 Q863.873 1791.46 863.873 1787.73 Q863.873 1783.98 862.021 1781.83 Q860.193 1779.68 857.045 1779.68 M866.327 1765.02 L866.327 1769.28 Q864.568 1768.45 862.762 1768.01 Q860.98 1767.57 859.221 1767.57 Q854.591 1767.57 852.137 1770.7 Q849.707 1773.82 849.359 1780.14 Q850.725 1778.13 852.785 1777.06 Q854.846 1775.97 857.322 1775.97 Q862.531 1775.97 865.54 1779.15 Q868.572 1782.29 868.572 1787.73 Q868.572 1793.06 865.424 1796.27 Q862.276 1799.49 857.045 1799.49 Q851.049 1799.49 847.878 1794.91 Q844.707 1790.3 844.707 1781.58 Q844.707 1773.38 848.596 1768.52 Q852.484 1763.64 859.035 1763.64 Q860.795 1763.64 862.577 1763.98 Q864.383 1764.33 866.327 1765.02 Z" fill="#000000" fill-rule="evenodd" fill-opacity="1" /><path clip-path="url(#clip180)" d="M873.873 1783.94 L886.35 1783.94 L886.35 1787.73 L873.873 1787.73 L873.873 1783.94 Z" fill="#000000" fill-rule="evenodd" fill-opacity="1" /><path clip-path="url(#clip180)" d="M903.734 1767.34 Q900.123 1767.34 898.294 1770.9 Q896.489 1774.45 896.489 1781.58 Q896.489 1788.68 898.294 1792.25 Q900.123 1795.79 903.734 1795.79 Q907.368 1795.79 909.174 1792.25 Q911.003 1788.68 911.003 1781.58 Q911.003 1774.45 909.174 1770.9 Q907.368 1767.34 903.734 1767.34 M903.734 1763.64 Q909.544 1763.64 912.6 1768.24 Q915.679 1772.83 915.679 1781.58 Q915.679 1790.3 912.6 1794.91 Q909.544 1799.49 903.734 1799.49 Q897.924 1799.49 894.845 1794.91 Q891.79 1790.3 891.79 1781.58 Q891.79 1772.83 894.845 1768.24 Q897.924 1763.64 903.734 1763.64 Z" fill="#000000" fill-rule="evenodd" fill-opacity="1" /><path clip-path="url(#clip180)" d="M924.706 1794.89 L932.345 1794.89 L932.345 1768.52 L924.035 1770.19 L924.035 1765.93 L932.299 1764.26 L936.975 1764.26 L936.975 1794.89 L944.614 1794.89 L944.614 1798.82 L924.706 1798.82 L924.706 1794.89 Z" fill="#000000" fill-rule="evenodd" fill-opacity="1" /><path clip-path="url(#clip180)" d="M1187.25 1794.89 L1203.57 1794.89 L1203.57 1798.82 L1181.62 1798.82 L1181.62 1794.89 Q1184.29 1792.13 1188.87 1787.5 Q1193.48 1782.85 1194.66 1781.51 Q1196.9 1778.98 1197.78 1777.25 Q1198.68 1775.49 1198.68 1773.8 Q1198.68 1771.04 1196.74 1769.31 Q1194.82 1767.57 1191.72 1767.57 Q1189.52 1767.57 1187.06 1768.34 Q1184.63 1769.1 1181.86 1770.65 L1181.86 1765.93 Q1184.68 1764.79 1187.13 1764.21 Q1189.59 1763.64 1191.62 1763.64 Q1196.99 1763.64 1200.19 1766.32 Q1203.38 1769.01 1203.38 1773.5 Q1203.38 1775.63 1202.57 1777.55 Q1201.79 1779.45 1199.68 1782.04 Q1199.1 1782.71 1196 1785.93 Q1192.9 1789.12 1187.25 1794.89 Z" fill="#000000" fill-rule="evenodd" fill-opacity="1" /><path clip-path="url(#clip180)" d="M1223.38 1767.34 Q1219.77 1767.34 1217.94 1770.9 Q1216.14 1774.45 1216.14 1781.58 Q1216.14 1788.68 1217.94 1792.25 Q1219.77 1795.79 1223.38 1795.79 Q1227.02 1795.79 1228.82 1792.25 Q1230.65 1788.68 1230.65 1781.58 Q1230.65 1774.45 1228.82 1770.9 Q1227.02 1767.34 1223.38 1767.34 M1223.38 1763.64 Q1229.19 1763.64 1232.25 1768.24 Q1235.33 1772.83 1235.33 1781.58 Q1235.33 1790.3 1232.25 1794.91 Q1229.19 1799.49 1223.38 1799.49 Q1217.57 1799.49 1214.49 1794.91 Q1211.44 1790.3 1211.44 1781.58 Q1211.44 1772.83 1214.49 1768.24 Q1217.57 1763.64 1223.38 1763.64 Z" fill="#000000" fill-rule="evenodd" fill-opacity="1" /><path clip-path="url(#clip180)" d="M1247.57 1794.89 L1263.89 1794.89 L1263.89 1798.82 L1241.95 1798.82 L1241.95 1794.89 Q1244.61 1792.13 1249.19 1787.5 Q1253.8 1782.85 1254.98 1781.51 Q1257.23 1778.98 1258.11 1777.25 Q1259.01 1775.49 1259.01 1773.8 Q1259.01 1771.04 1257.06 1769.31 Q1255.14 1767.57 1252.04 1767.57 Q1249.84 1767.57 1247.39 1768.34 Q1244.96 1769.1 1242.18 1770.65 L1242.18 1765.93 Q1245 1764.79 1247.46 1764.21 Q1249.91 1763.64 1251.95 1763.64 Q1257.32 1763.64 1260.51 1766.32 Q1263.71 1769.01 1263.71 1773.5 Q1263.71 1775.63 1262.9 1777.55 Q1262.11 1779.45 1260 1782.04 Q1259.43 1782.71 1256.32 1785.93 Q1253.22 1789.12 1247.57 1794.89 Z" fill="#000000" fill-rule="evenodd" fill-opacity="1" /><path clip-path="url(#clip180)" d="M1283.71 1767.34 Q1280.1 1767.34 1278.27 1770.9 Q1276.46 1774.45 1276.46 1781.58 Q1276.46 1788.68 1278.27 1792.25 Q1280.1 1795.79 1283.71 1795.79 Q1287.34 1795.79 1289.15 1792.25 Q1290.98 1788.68 1290.98 1781.58 Q1290.98 1774.45 1289.15 1770.9 Q1287.34 1767.34 1283.71 1767.34 M1283.71 1763.64 Q1289.52 1763.64 1292.57 1768.24 Q1295.65 1772.83 1295.65 1781.58 Q1295.65 1790.3 1292.57 1794.91 Q1289.52 1799.49 1283.71 1799.49 Q1277.9 1799.49 1274.82 1794.91 Q1271.76 1790.3 1271.76 1781.58 Q1271.76 1772.83 1274.82 1768.24 Q1277.9 1763.64 1283.71 1763.64 Z" fill="#000000" fill-rule="evenodd" fill-opacity="1" /><path clip-path="url(#clip180)" d="M1301.11 1783.94 L1313.59 1783.94 L1313.59 1787.73 L1301.11 1787.73 L1301.11 1783.94 Z" fill="#000000" fill-rule="evenodd" fill-opacity="1" /><path clip-path="url(#clip180)" d="M1330.98 1767.34 Q1327.36 1767.34 1325.54 1770.9 Q1323.73 1774.45 1323.73 1781.58 Q1323.73 1788.68 1325.54 1792.25 Q1327.36 1795.79 1330.98 1795.79 Q1334.61 1795.79 1336.42 1792.25 Q1338.24 1788.68 1338.24 1781.58 Q1338.24 1774.45 1336.42 1770.9 Q1334.61 1767.34 1330.98 1767.34 M1330.98 1763.64 Q1336.79 1763.64 1339.84 1768.24 Q1342.92 1772.83 1342.92 1781.58 Q1342.92 1790.3 1339.84 1794.91 Q1336.79 1799.49 1330.98 1799.49 Q1325.17 1799.49 1322.09 1794.91 Q1319.03 1790.3 1319.03 1781.58 Q1319.03 1772.83 1322.09 1768.24 Q1325.17 1763.64 1330.98 1763.64 Z" fill="#000000" fill-rule="evenodd" fill-opacity="1" /><path clip-path="url(#clip180)" d="M1361.14 1782.41 Q1357.8 1782.41 1355.88 1784.19 Q1353.98 1785.97 1353.98 1789.1 Q1353.98 1792.22 1355.88 1794.01 Q1357.8 1795.79 1361.14 1795.79 Q1364.47 1795.79 1366.39 1794.01 Q1368.31 1792.2 1368.31 1789.1 Q1368.31 1785.97 1366.39 1784.19 Q1364.49 1782.41 1361.14 1782.41 M1356.46 1780.42 Q1353.45 1779.68 1351.76 1777.62 Q1350.1 1775.56 1350.1 1772.59 Q1350.1 1768.45 1353.04 1766.04 Q1356 1763.64 1361.14 1763.64 Q1366.3 1763.64 1369.24 1766.04 Q1372.18 1768.45 1372.18 1772.59 Q1372.18 1775.56 1370.49 1777.62 Q1368.82 1779.68 1365.84 1780.42 Q1369.22 1781.21 1371.09 1783.5 Q1372.99 1785.79 1372.99 1789.1 Q1372.99 1794.12 1369.91 1796.81 Q1366.86 1799.49 1361.14 1799.49 Q1355.42 1799.49 1352.34 1796.81 Q1349.29 1794.12 1349.29 1789.1 Q1349.29 1785.79 1351.18 1783.5 Q1353.08 1781.21 1356.46 1780.42 M1354.75 1773.03 Q1354.75 1775.72 1356.42 1777.22 Q1358.11 1778.73 1361.14 1778.73 Q1364.15 1778.73 1365.84 1777.22 Q1367.55 1775.72 1367.55 1773.03 Q1367.55 1770.35 1365.84 1768.84 Q1364.15 1767.34 1361.14 1767.34 Q1358.11 1767.34 1356.42 1768.84 Q1354.75 1770.35 1354.75 1773.03 Z" fill="#000000" fill-rule="evenodd" fill-opacity="1" /><path clip-path="url(#clip180)" d="M1378.54 1783.94 L1391.02 1783.94 L1391.02 1787.73 L1378.54 1787.73 L1378.54 1783.94 Z" fill="#000000" fill-rule="evenodd" fill-opacity="1" /><path clip-path="url(#clip180)" d="M1408.41 1767.34 Q1404.79 1767.34 1402.97 1770.9 Q1401.16 1774.45 1401.16 1781.58 Q1401.16 1788.68 1402.97 1792.25 Q1404.79 1795.79 1408.41 1795.79 Q1412.04 1795.79 1413.85 1792.25 Q1415.67 1788.68 1415.67 1781.58 Q1415.67 1774.45 1413.85 1770.9 Q1412.04 1767.34 1408.41 1767.34 M1408.41 1763.64 Q1414.22 1763.64 1417.27 1768.24 Q1420.35 1772.83 1420.35 1781.58 Q1420.35 1790.3 1417.27 1794.91 Q1414.22 1799.49 1408.41 1799.49 Q1402.6 1799.49 1399.52 1794.91 Q1396.46 1790.3 1396.46 1781.58 Q1396.46 1772.83 1399.52 1768.24 Q1402.6 1763.64 1408.41 1763.64 Z" fill="#000000" fill-rule="evenodd" fill-opacity="1" /><path clip-path="url(#clip180)" d="M1429.38 1794.89 L1437.02 1794.89 L1437.02 1768.52 L1428.71 1770.19 L1428.71 1765.93 L1436.97 1764.26 L1441.65 1764.26 L1441.65 1794.89 L1449.29 1794.89 L1449.29 1798.82 L1429.38 1798.82 L1429.38 1794.89 Z" fill="#000000" fill-rule="evenodd" fill-opacity="1" /><path clip-path="url(#clip180)" d="M1691.92 1794.89 L1708.24 1794.89 L1708.24 1798.82 L1686.3 1798.82 L1686.3 1794.89 Q1688.96 1792.13 1693.54 1787.5 Q1698.15 1782.85 1699.33 1781.51 Q1701.57 1778.98 1702.45 1777.25 Q1703.36 1775.49 1703.36 1773.8 Q1703.36 1771.04 1701.41 1769.31 Q1699.49 1767.57 1696.39 1767.57 Q1694.19 1767.57 1691.74 1768.34 Q1689.31 1769.1 1686.53 1770.65 L1686.53 1765.93 Q1689.35 1764.79 1691.81 1764.21 Q1694.26 1763.64 1696.3 1763.64 Q1701.67 1763.64 1704.86 1766.32 Q1708.06 1769.01 1708.06 1773.5 Q1708.06 1775.63 1707.25 1777.55 Q1706.46 1779.45 1704.35 1782.04 Q1703.77 1782.71 1700.67 1785.93 Q1697.57 1789.12 1691.92 1794.89 Z" fill="#000000" fill-rule="evenodd" fill-opacity="1" /><path clip-path="url(#clip180)" d="M1728.06 1767.34 Q1724.44 1767.34 1722.62 1770.9 Q1720.81 1774.45 1720.81 1781.58 Q1720.81 1788.68 1722.62 1792.25 Q1724.44 1795.79 1728.06 1795.79 Q1731.69 1795.79 1733.5 1792.25 Q1735.32 1788.68 1735.32 1781.58 Q1735.32 1774.45 1733.5 1770.9 Q1731.69 1767.34 1728.06 1767.34 M1728.06 1763.64 Q1733.87 1763.64 1736.92 1768.24 Q1740 1772.83 1740 1781.58 Q1740 1790.3 1736.92 1794.91 Q1733.87 1799.49 1728.06 1799.49 Q1722.25 1799.49 1719.17 1794.91 Q1716.11 1790.3 1716.11 1781.58 Q1716.11 1772.83 1719.17 1768.24 Q1722.25 1763.64 1728.06 1763.64 Z" fill="#000000" fill-rule="evenodd" fill-opacity="1" /><path clip-path="url(#clip180)" d="M1752.25 1794.89 L1768.56 1794.89 L1768.56 1798.82 L1746.62 1798.82 L1746.62 1794.89 Q1749.28 1792.13 1753.87 1787.5 Q1758.47 1782.85 1759.65 1781.51 Q1761.9 1778.98 1762.78 1777.25 Q1763.68 1775.49 1763.68 1773.8 Q1763.68 1771.04 1761.74 1769.31 Q1759.81 1767.57 1756.71 1767.57 Q1754.51 1767.57 1752.06 1768.34 Q1749.63 1769.1 1746.85 1770.65 L1746.85 1765.93 Q1749.68 1764.79 1752.13 1764.21 Q1754.58 1763.64 1756.62 1763.64 Q1761.99 1763.64 1765.18 1766.32 Q1768.38 1769.01 1768.38 1773.5 Q1768.38 1775.63 1767.57 1777.55 Q1766.78 1779.45 1764.68 1782.04 Q1764.1 1782.71 1761 1785.93 Q1757.89 1789.12 1752.25 1794.89 Z" fill="#000000" fill-rule="evenodd" fill-opacity="1" /><path clip-path="url(#clip180)" d="M1788.38 1767.34 Q1784.77 1767.34 1782.94 1770.9 Q1781.13 1774.45 1781.13 1781.58 Q1781.13 1788.68 1782.94 1792.25 Q1784.77 1795.79 1788.38 1795.79 Q1792.01 1795.79 1793.82 1792.25 Q1795.65 1788.68 1795.65 1781.58 Q1795.65 1774.45 1793.82 1770.9 Q1792.01 1767.34 1788.38 1767.34 M1788.38 1763.64 Q1794.19 1763.64 1797.24 1768.24 Q1800.32 1772.83 1800.32 1781.58 Q1800.32 1790.3 1797.24 1794.91 Q1794.19 1799.49 1788.38 1799.49 Q1782.57 1799.49 1779.49 1794.91 Q1776.43 1790.3 1776.43 1781.58 Q1776.43 1772.83 1779.49 1768.24 Q1782.57 1763.64 1788.38 1763.64 Z" fill="#000000" fill-rule="evenodd" fill-opacity="1" /><path clip-path="url(#clip180)" d="M1805.79 1783.94 L1818.26 1783.94 L1818.26 1787.73 L1805.79 1787.73 L1805.79 1783.94 Z" fill="#000000" fill-rule="evenodd" fill-opacity="1" /><path clip-path="url(#clip180)" d="M1826.46 1794.89 L1834.1 1794.89 L1834.1 1768.52 L1825.79 1770.19 L1825.79 1765.93 L1834.05 1764.26 L1838.73 1764.26 L1838.73 1794.89 L1846.36 1794.89 L1846.36 1798.82 L1826.46 1798.82 L1826.46 1794.89 Z" fill="#000000" fill-rule="evenodd" fill-opacity="1" /><path clip-path="url(#clip180)" d="M1865.81 1767.34 Q1862.2 1767.34 1860.37 1770.9 Q1858.56 1774.45 1858.56 1781.58 Q1858.56 1788.68 1860.37 1792.25 Q1862.2 1795.79 1865.81 1795.79 Q1869.44 1795.79 1871.25 1792.25 Q1873.08 1788.68 1873.08 1781.58 Q1873.08 1774.45 1871.25 1770.9 Q1869.44 1767.34 1865.81 1767.34 M1865.81 1763.64 Q1871.62 1763.64 1874.67 1768.24 Q1877.75 1772.83 1877.75 1781.58 Q1877.75 1790.3 1874.67 1794.91 Q1871.62 1799.49 1865.81 1799.49 Q1860 1799.49 1856.92 1794.91 Q1853.86 1790.3 1853.86 1781.58 Q1853.86 1772.83 1856.92 1768.24 Q1860 1763.64 1865.81 1763.64 Z" fill="#000000" fill-rule="evenodd" fill-opacity="1" /><path clip-path="url(#clip180)" d="M1883.22 1783.94 L1895.69 1783.94 L1895.69 1787.73 L1883.22 1787.73 L1883.22 1783.94 Z" fill="#000000" fill-rule="evenodd" fill-opacity="1" /><path clip-path="url(#clip180)" d="M1913.08 1767.34 Q1909.47 1767.34 1907.64 1770.9 Q1905.83 1774.45 1905.83 1781.58 Q1905.83 1788.68 1907.64 1792.25 Q1909.47 1795.79 1913.08 1795.79 Q1916.71 1795.79 1918.52 1792.25 Q1920.35 1788.68 1920.35 1781.58 Q1920.35 1774.45 1918.52 1770.9 Q1916.71 1767.34 1913.08 1767.34 M1913.08 1763.64 Q1918.89 1763.64 1921.94 1768.24 Q1925.02 1772.83 1925.02 1781.58 Q1925.02 1790.3 1921.94 1794.91 Q1918.89 1799.49 1913.08 1799.49 Q1907.27 1799.49 1904.19 1794.91 Q1901.13 1790.3 1901.13 1781.58 Q1901.13 1772.83 1904.19 1768.24 Q1907.27 1763.64 1913.08 1763.64 Z" fill="#000000" fill-rule="evenodd" fill-opacity="1" /><path clip-path="url(#clip180)" d="M1934.05 1794.89 L1941.69 1794.89 L1941.69 1768.52 L1933.38 1770.19 L1933.38 1765.93 L1941.64 1764.26 L1946.32 1764.26 L1946.32 1794.89 L1953.96 1794.89 L1953.96 1798.82 L1934.05 1798.82 L1934.05 1794.89 Z" fill="#000000" fill-rule="evenodd" fill-opacity="1" /><path clip-path="url(#clip180)" d="M2196.59 1794.89 L2212.91 1794.89 L2212.91 1798.82 L2190.97 1798.82 L2190.97 1794.89 Q2193.63 1792.13 2198.21 1787.5 Q2202.82 1782.85 2204 1781.51 Q2206.25 1778.98 2207.13 1777.25 Q2208.03 1775.49 2208.03 1773.8 Q2208.03 1771.04 2206.08 1769.31 Q2204.16 1767.57 2201.06 1767.57 Q2198.86 1767.57 2196.41 1768.34 Q2193.98 1769.1 2191.2 1770.65 L2191.2 1765.93 Q2194.02 1764.79 2196.48 1764.21 Q2198.93 1763.64 2200.97 1763.64 Q2206.34 1763.64 2209.53 1766.32 Q2212.73 1769.01 2212.73 1773.5 Q2212.73 1775.63 2211.92 1777.55 Q2211.13 1779.45 2209.02 1782.04 Q2208.44 1782.71 2205.34 1785.93 Q2202.24 1789.12 2196.59 1794.89 Z" fill="#000000" fill-rule="evenodd" fill-opacity="1" /><path clip-path="url(#clip180)" d="M2232.73 1767.34 Q2229.12 1767.34 2227.29 1770.9 Q2225.48 1774.45 2225.48 1781.58 Q2225.48 1788.68 2227.29 1792.25 Q2229.12 1795.79 2232.73 1795.79 Q2236.36 1795.79 2238.17 1792.25 Q2240 1788.68 2240 1781.58 Q2240 1774.45 2238.17 1770.9 Q2236.36 1767.34 2232.73 1767.34 M2232.73 1763.64 Q2238.54 1763.64 2241.59 1768.24 Q2244.67 1772.83 2244.67 1781.58 Q2244.67 1790.3 2241.59 1794.91 Q2238.54 1799.49 2232.73 1799.49 Q2226.92 1799.49 2223.84 1794.91 Q2220.78 1790.3 2220.78 1781.58 Q2220.78 1772.83 2223.84 1768.24 Q2226.92 1763.64 2232.73 1763.64 Z" fill="#000000" fill-rule="evenodd" fill-opacity="1" /><path clip-path="url(#clip180)" d="M2256.92 1794.89 L2273.24 1794.89 L2273.24 1798.82 L2251.29 1798.82 L2251.29 1794.89 Q2253.95 1792.13 2258.54 1787.5 Q2263.14 1782.85 2264.32 1781.51 Q2266.57 1778.98 2267.45 1777.25 Q2268.35 1775.49 2268.35 1773.8 Q2268.35 1771.04 2266.41 1769.31 Q2264.49 1767.57 2261.38 1767.57 Q2259.19 1767.57 2256.73 1768.34 Q2254.3 1769.1 2251.52 1770.65 L2251.52 1765.93 Q2254.35 1764.79 2256.8 1764.21 Q2259.25 1763.64 2261.29 1763.64 Q2266.66 1763.64 2269.86 1766.32 Q2273.05 1769.01 2273.05 1773.5 Q2273.05 1775.63 2272.24 1777.55 Q2271.45 1779.45 2269.35 1782.04 Q2268.77 1782.71 2265.67 1785.93 Q2262.56 1789.12 2256.92 1794.89 Z" fill="#000000" fill-rule="evenodd" fill-opacity="1" /><path clip-path="url(#clip180)" d="M2293.05 1767.34 Q2289.44 1767.34 2287.61 1770.9 Q2285.81 1774.45 2285.81 1781.58 Q2285.81 1788.68 2287.61 1792.25 Q2289.44 1795.79 2293.05 1795.79 Q2296.69 1795.79 2298.49 1792.25 Q2300.32 1788.68 2300.32 1781.58 Q2300.32 1774.45 2298.49 1770.9 Q2296.69 1767.34 2293.05 1767.34 M2293.05 1763.64 Q2298.86 1763.64 2301.92 1768.24 Q2305 1772.83 2305 1781.58 Q2305 1790.3 2301.92 1794.91 Q2298.86 1799.49 2293.05 1799.49 Q2287.24 1799.49 2284.16 1794.91 Q2281.11 1790.3 2281.11 1781.58 Q2281.11 1772.83 2284.16 1768.24 Q2287.24 1763.64 2293.05 1763.64 Z" fill="#000000" fill-rule="evenodd" fill-opacity="1" /><path clip-path="url(#clip180)" d="M2310.46 1783.94 L2322.93 1783.94 L2322.93 1787.73 L2310.46 1787.73 L2310.46 1783.94 Z" fill="#000000" fill-rule="evenodd" fill-opacity="1" /><path clip-path="url(#clip180)" d="M2331.13 1794.89 L2338.77 1794.89 L2338.77 1768.52 L2330.46 1770.19 L2330.46 1765.93 L2338.72 1764.26 L2343.4 1764.26 L2343.4 1794.89 L2351.04 1794.89 L2351.04 1798.82 L2331.13 1798.82 L2331.13 1794.89 Z" fill="#000000" fill-rule="evenodd" fill-opacity="1" /><path clip-path="url(#clip180)" d="M2364.51 1794.89 L2380.83 1794.89 L2380.83 1798.82 L2358.88 1798.82 L2358.88 1794.89 Q2361.55 1792.13 2366.13 1787.5 Q2370.74 1782.85 2371.92 1781.51 Q2374.16 1778.98 2375.04 1777.25 Q2375.94 1775.49 2375.94 1773.8 Q2375.94 1771.04 2374 1769.31 Q2372.08 1767.57 2368.98 1767.57 Q2366.78 1767.57 2364.32 1768.34 Q2361.89 1769.1 2359.12 1770.65 L2359.12 1765.93 Q2361.94 1764.79 2364.39 1764.21 Q2366.85 1763.64 2368.88 1763.64 Q2374.25 1763.64 2377.45 1766.32 Q2380.64 1769.01 2380.64 1773.5 Q2380.64 1775.63 2379.83 1777.55 Q2379.05 1779.45 2376.94 1782.04 Q2376.36 1782.71 2373.26 1785.93 Q2370.16 1789.12 2364.51 1794.89 Z" fill="#000000" fill-rule="evenodd" fill-opacity="1" /><path clip-path="url(#clip180)" d="M2387.89 1783.94 L2400.37 1783.94 L2400.37 1787.73 L2387.89 1787.73 L2387.89 1783.94 Z" fill="#000000" fill-rule="evenodd" fill-opacity="1" /><path clip-path="url(#clip180)" d="M2417.75 1767.34 Q2414.14 1767.34 2412.31 1770.9 Q2410.5 1774.45 2410.5 1781.58 Q2410.5 1788.68 2412.31 1792.25 Q2414.14 1795.79 2417.75 1795.79 Q2421.38 1795.79 2423.19 1792.25 Q2425.02 1788.68 2425.02 1781.58 Q2425.02 1774.45 2423.19 1770.9 Q2421.38 1767.34 2417.75 1767.34 M2417.75 1763.64 Q2423.56 1763.64 2426.61 1768.24 Q2429.69 1772.83 2429.69 1781.58 Q2429.69 1790.3 2426.61 1794.91 Q2423.56 1799.49 2417.75 1799.49 Q2411.94 1799.49 2408.86 1794.91 Q2405.8 1790.3 2405.8 1781.58 Q2405.8 1772.83 2408.86 1768.24 Q2411.94 1763.64 2417.75 1763.64 Z" fill="#000000" fill-rule="evenodd" fill-opacity="1" /><path clip-path="url(#clip180)" d="M2438.72 1794.89 L2446.36 1794.89 L2446.36 1768.52 L2438.05 1770.19 L2438.05 1765.93 L2446.31 1764.26 L2450.99 1764.26 L2450.99 1794.89 L2458.63 1794.89 L2458.63 1798.82 L2438.72 1798.82 L2438.72 1794.89 Z" fill="#000000" fill-rule="evenodd" fill-opacity="1" /><path clip-path="url(#clip180)" d="M1452.16 1847.17 Q1452.16 1848.07 1451.74 1848.3 Q1451.32 1848.49 1450.17 1848.49 L1443.98 1848.49 L1439.09 1867.95 Q1438.7 1869.65 1438.7 1871.1 Q1438.7 1872.71 1439.18 1873.42 Q1439.7 1874.13 1440.76 1874.13 Q1442.85 1874.13 1445.11 1872.23 Q1447.4 1870.33 1449.33 1865.69 Q1449.59 1865.08 1449.71 1864.95 Q1449.88 1864.79 1450.29 1864.79 Q1451.1 1864.79 1451.1 1865.43 Q1451.1 1865.66 1450.65 1866.69 Q1450.23 1867.72 1449.3 1869.23 Q1448.39 1870.75 1447.2 1872.16 Q1446.04 1873.58 1444.27 1874.61 Q1442.5 1875.61 1440.6 1875.61 Q1437.93 1875.61 1436.22 1873.9 Q1434.55 1872.2 1434.55 1869.52 Q1434.55 1868.65 1435.22 1865.88 Q1435.9 1863.08 1439.57 1848.49 L1433.74 1848.49 Q1432.94 1848.49 1432.61 1848.46 Q1432.32 1848.43 1432.1 1848.27 Q1431.9 1848.07 1431.9 1847.69 Q1431.9 1847.08 1432.16 1846.82 Q1432.42 1846.53 1432.74 1846.5 Q1433.1 1846.43 1433.9 1846.43 L1440.09 1846.43 L1442.66 1835.97 Q1442.92 1834.93 1443.56 1834.36 Q1444.24 1833.74 1444.63 1833.68 Q1445.01 1833.58 1445.3 1833.58 Q1446.17 1833.58 1446.69 1834.07 Q1447.2 1834.52 1447.2 1835.35 Q1447.2 1835.8 1444.5 1846.43 L1450.29 1846.43 Q1451.04 1846.43 1451.32 1846.46 Q1451.65 1846.5 1451.9 1846.66 Q1452.16 1846.82 1452.16 1847.17 Z" fill="#000000" fill-rule="evenodd" fill-opacity="1" /><polyline clip-path="url(#clip182)" style="stroke:#000000; stroke-linecap:round; stroke-linejoin:round; stroke-width:2; stroke-opacity:0.1; fill:none" points="
  246.627,1706.07 2640.76,1706.07 
  "/>
<polyline clip-path="url(#clip182)" style="stroke:#000000; stroke-linecap:round; stroke-linejoin:round; stroke-width:2; stroke-opacity:0.1; fill:none" points="
  246.627,1237.05 2640.76,1237.05 
  "/>
<polyline clip-path="url(#clip182)" style="stroke:#000000; stroke-linecap:round; stroke-linejoin:round; stroke-width:2; stroke-opacity:0.1; fill:none" points="
  246.627,768.018 2640.76,768.018 
  "/>
<polyline clip-path="url(#clip182)" style="stroke:#000000; stroke-linecap:round; stroke-linejoin:round; stroke-width:2; stroke-opacity:0.1; fill:none" points="
  246.627,298.99 2640.76,298.99 
  "/>
<polyline clip-path="url(#clip180)" style="stroke:#000000; stroke-linecap:round; stroke-linejoin:round; stroke-width:4; stroke-opacity:1; fill:none" points="
  246.627,1734.12 246.627,47.2441 
  "/>
<polyline clip-path="url(#clip180)" style="stroke:#000000; stroke-linecap:round; stroke-linejoin:round; stroke-width:4; stroke-opacity:1; fill:none" points="
  246.627,1706.07 265.524,1706.07 
  "/>
<polyline clip-path="url(#clip180)" style="stroke:#000000; stroke-linecap:round; stroke-linejoin:round; stroke-width:4; stroke-opacity:1; fill:none" points="
  246.627,1237.05 265.524,1237.05 
  "/>
<polyline clip-path="url(#clip180)" style="stroke:#000000; stroke-linecap:round; stroke-linejoin:round; stroke-width:4; stroke-opacity:1; fill:none" points="
  246.627,768.018 265.524,768.018 
  "/>
<polyline clip-path="url(#clip180)" style="stroke:#000000; stroke-linecap:round; stroke-linejoin:round; stroke-width:4; stroke-opacity:1; fill:none" points="
  246.627,298.99 265.524,298.99 
  "/>
<path clip-path="url(#clip180)" d="M159.131 1691.87 Q155.52 1691.87 153.691 1695.44 Q151.886 1698.98 151.886 1706.11 Q151.886 1713.22 153.691 1716.78 Q155.52 1720.32 159.131 1720.32 Q162.765 1720.32 164.571 1716.78 Q166.399 1713.22 166.399 1706.11 Q166.399 1698.98 164.571 1695.44 Q162.765 1691.87 159.131 1691.87 M159.131 1688.17 Q164.941 1688.17 167.997 1692.78 Q171.075 1697.36 171.075 1706.11 Q171.075 1714.84 167.997 1719.44 Q164.941 1724.03 159.131 1724.03 Q153.321 1724.03 150.242 1719.44 Q147.186 1714.84 147.186 1706.11 Q147.186 1697.36 150.242 1692.78 Q153.321 1688.17 159.131 1688.17 Z" fill="#000000" fill-rule="evenodd" fill-opacity="1" /><path clip-path="url(#clip180)" d="M178.876 1688.79 L183.552 1688.79 L183.552 1703.4 L199.061 1688.79 L205.08 1688.79 L187.927 1704.91 L206.307 1723.35 L200.149 1723.35 L183.552 1706.71 L183.552 1723.35 L178.876 1723.35 L178.876 1688.79 Z" fill="#000000" fill-rule="evenodd" fill-opacity="1" /><path clip-path="url(#clip180)" d="M122.997 1250.39 L139.316 1250.39 L139.316 1254.33 L117.372 1254.33 L117.372 1250.39 Q120.034 1247.64 124.617 1243.01 Q129.224 1238.35 130.404 1237.01 Q132.65 1234.49 133.529 1232.75 Q134.432 1230.99 134.432 1229.3 Q134.432 1226.55 132.488 1224.81 Q130.566 1223.08 127.464 1223.08 Q125.265 1223.08 122.812 1223.84 Q120.381 1224.6 117.603 1226.16 L117.603 1221.43 Q120.427 1220.3 122.881 1219.72 Q125.335 1219.14 127.372 1219.14 Q132.742 1219.14 135.937 1221.83 Q139.131 1224.51 139.131 1229 Q139.131 1231.13 138.321 1233.05 Q137.534 1234.95 135.427 1237.54 Q134.849 1238.22 131.747 1241.43 Q128.645 1244.63 122.997 1250.39 Z" fill="#000000" fill-rule="evenodd" fill-opacity="1" /><path clip-path="url(#clip180)" d="M159.131 1222.84 Q155.52 1222.84 153.691 1226.41 Q151.886 1229.95 151.886 1237.08 Q151.886 1244.19 153.691 1247.75 Q155.52 1251.29 159.131 1251.29 Q162.765 1251.29 164.571 1247.75 Q166.399 1244.19 166.399 1237.08 Q166.399 1229.95 164.571 1226.41 Q162.765 1222.84 159.131 1222.84 M159.131 1219.14 Q164.941 1219.14 167.997 1223.75 Q171.075 1228.33 171.075 1237.08 Q171.075 1245.81 167.997 1250.41 Q164.941 1255 159.131 1255 Q153.321 1255 150.242 1250.41 Q147.186 1245.81 147.186 1237.08 Q147.186 1228.33 150.242 1223.75 Q153.321 1219.14 159.131 1219.14 Z" fill="#000000" fill-rule="evenodd" fill-opacity="1" /><path clip-path="url(#clip180)" d="M178.876 1219.77 L183.552 1219.77 L183.552 1234.37 L199.061 1219.77 L205.08 1219.77 L187.927 1235.88 L206.307 1254.33 L200.149 1254.33 L183.552 1237.68 L183.552 1254.33 L178.876 1254.33 L178.876 1219.77 Z" fill="#000000" fill-rule="evenodd" fill-opacity="1" /><path clip-path="url(#clip180)" d="M131.816 754.812 L120.011 773.261 L131.816 773.261 L131.816 754.812 M130.589 750.738 L136.469 750.738 L136.469 773.261 L141.399 773.261 L141.399 777.15 L136.469 777.15 L136.469 785.298 L131.816 785.298 L131.816 777.15 L116.214 777.15 L116.214 772.636 L130.589 750.738 Z" fill="#000000" fill-rule="evenodd" fill-opacity="1" /><path clip-path="url(#clip180)" d="M159.131 753.817 Q155.52 753.817 153.691 757.381 Q151.886 760.923 151.886 768.053 Q151.886 775.159 153.691 778.724 Q155.52 782.266 159.131 782.266 Q162.765 782.266 164.571 778.724 Q166.399 775.159 166.399 768.053 Q166.399 760.923 164.571 757.381 Q162.765 753.817 159.131 753.817 M159.131 750.113 Q164.941 750.113 167.997 754.719 Q171.075 759.303 171.075 768.053 Q171.075 776.779 167.997 781.386 Q164.941 785.969 159.131 785.969 Q153.321 785.969 150.242 781.386 Q147.186 776.779 147.186 768.053 Q147.186 759.303 150.242 754.719 Q153.321 750.113 159.131 750.113 Z" fill="#000000" fill-rule="evenodd" fill-opacity="1" /><path clip-path="url(#clip180)" d="M178.876 750.738 L183.552 750.738 L183.552 765.344 L199.061 750.738 L205.08 750.738 L187.927 766.849 L206.307 785.298 L200.149 785.298 L183.552 768.654 L183.552 785.298 L178.876 785.298 L178.876 750.738 Z" fill="#000000" fill-rule="evenodd" fill-opacity="1" /><path clip-path="url(#clip180)" d="M129.548 297.126 Q126.4 297.126 124.548 299.279 Q122.719 301.432 122.719 305.182 Q122.719 308.909 124.548 311.084 Q126.4 313.237 129.548 313.237 Q132.696 313.237 134.525 311.084 Q136.376 308.909 136.376 305.182 Q136.376 301.432 134.525 299.279 Q132.696 297.126 129.548 297.126 M138.83 282.474 L138.83 286.733 Q137.071 285.899 135.265 285.46 Q133.483 285.02 131.724 285.02 Q127.094 285.02 124.64 288.145 Q122.21 291.27 121.863 297.589 Q123.228 295.575 125.288 294.51 Q127.349 293.423 129.825 293.423 Q135.034 293.423 138.043 296.594 Q141.075 299.742 141.075 305.182 Q141.075 310.506 137.927 313.723 Q134.779 316.941 129.548 316.941 Q123.552 316.941 120.381 312.358 Q117.21 307.751 117.21 299.024 Q117.21 290.83 121.099 285.969 Q124.988 281.085 131.538 281.085 Q133.298 281.085 135.08 281.432 Q136.886 281.779 138.83 282.474 Z" fill="#000000" fill-rule="evenodd" fill-opacity="1" /><path clip-path="url(#clip180)" d="M159.131 284.788 Q155.52 284.788 153.691 288.353 Q151.886 291.895 151.886 299.024 Q151.886 306.131 153.691 309.696 Q155.52 313.237 159.131 313.237 Q162.765 313.237 164.571 309.696 Q166.399 306.131 166.399 299.024 Q166.399 291.895 164.571 288.353 Q162.765 284.788 159.131 284.788 M159.131 281.085 Q164.941 281.085 167.997 285.691 Q171.075 290.274 171.075 299.024 Q171.075 307.751 167.997 312.358 Q164.941 316.941 159.131 316.941 Q153.321 316.941 150.242 312.358 Q147.186 307.751 147.186 299.024 Q147.186 290.274 150.242 285.691 Q153.321 281.085 159.131 281.085 Z" fill="#000000" fill-rule="evenodd" fill-opacity="1" /><path clip-path="url(#clip180)" d="M178.876 281.71 L183.552 281.71 L183.552 296.316 L199.061 281.71 L205.08 281.71 L187.927 297.821 L206.307 316.27 L200.149 316.27 L183.552 299.626 L183.552 316.27 L178.876 316.27 L178.876 281.71 Z" fill="#000000" fill-rule="evenodd" fill-opacity="1" /><path clip-path="url(#clip180)" d="M25.9905 1107.74 L25.9905 1101.88 L61.6384 1101.88 L61.6384 1107.74 L25.9905 1107.74 M12.1132 1107.74 L12.1132 1101.88 L19.5293 1101.88 L19.5293 1107.74 L12.1132 1107.74 Z" fill="#000000" fill-rule="evenodd" fill-opacity="1" /><path clip-path="url(#clip180)" d="M40.1224 1059.99 L61.6384 1059.99 L61.6384 1065.85 L40.3133 1065.85 Q35.2526 1065.85 32.7381 1067.82 Q30.2237 1069.8 30.2237 1073.74 Q30.2237 1078.48 33.2474 1081.22 Q36.2711 1083.96 41.491 1083.96 L61.6384 1083.96 L61.6384 1089.85 L25.9905 1089.85 L25.9905 1083.96 L31.5287 1083.96 Q28.314 1081.86 26.7225 1079.03 Q25.1311 1076.16 25.1311 1072.44 Q25.1311 1066.29 28.9505 1063.14 Q32.7381 1059.99 40.1224 1059.99 Z" fill="#000000" fill-rule="evenodd" fill-opacity="1" /><path clip-path="url(#clip180)" d="M12.1132 1030.26 L16.983 1030.26 L16.983 1035.87 Q16.983 1039.02 18.2562 1040.26 Q19.5293 1041.47 22.8395 1041.47 L25.9905 1041.47 L25.9905 1031.82 L30.542 1031.82 L30.542 1041.47 L61.6384 1041.47 L61.6384 1047.36 L30.542 1047.36 L30.542 1052.96 L25.9905 1052.96 L25.9905 1047.36 L23.5079 1047.36 Q17.5559 1047.36 14.8505 1044.59 Q12.1132 1041.82 12.1132 1035.8 L12.1132 1030.26 Z" fill="#000000" fill-rule="evenodd" fill-opacity="1" /><path clip-path="url(#clip180)" d="M42.3504 994.871 L45.2149 994.871 L45.2149 1021.8 Q51.2623 1021.42 54.4452 1018.17 Q57.5962 1014.89 57.5962 1009.07 Q57.5962 1005.69 56.7687 1002.54 Q55.9411 999.359 54.2861 996.24 L59.8242 996.24 Q61.161 999.391 61.8612 1002.7 Q62.5615 1006.01 62.5615 1009.42 Q62.5615 1017.95 57.5962 1022.94 Q52.631 1027.91 44.1646 1027.91 Q35.4117 1027.91 30.2873 1023.2 Q25.1311 1018.46 25.1311 1010.44 Q25.1311 1003.24 29.7781 999.073 Q34.3932 994.871 42.3504 994.871 M40.6316 1000.73 Q35.8255 1000.79 32.9609 1003.43 Q30.0964 1006.04 30.0964 1010.37 Q30.0964 1015.27 32.8654 1018.23 Q35.6345 1021.16 40.6634 1021.61 L40.6316 1000.73 Z" fill="#000000" fill-rule="evenodd" fill-opacity="1" /><path clip-path="url(#clip180)" d="M27.3591 959.605 L32.8336 959.605 Q31.465 962.088 30.7966 964.602 Q30.0964 967.085 30.0964 969.631 Q30.0964 975.329 33.7248 978.48 Q37.3214 981.631 43.8463 981.631 Q50.3711 981.631 53.9996 978.48 Q57.5962 975.329 57.5962 969.631 Q57.5962 967.085 56.9278 964.602 Q56.2276 962.088 54.859 959.605 L60.2698 959.605 Q61.4156 962.056 61.9886 964.698 Q62.5615 967.308 62.5615 970.268 Q62.5615 978.32 57.5007 983.063 Q52.44 987.805 43.8463 987.805 Q35.1253 987.805 30.1282 983.031 Q25.1311 978.225 25.1311 969.886 Q25.1311 967.18 25.704 964.602 Q26.2451 962.024 27.3591 959.605 Z" fill="#000000" fill-rule="evenodd" fill-opacity="1" /><path clip-path="url(#clip180)" d="M15.869 943.627 L25.9905 943.627 L25.9905 931.564 L30.542 931.564 L30.542 943.627 L49.8937 943.627 Q54.2542 943.627 55.4955 942.45 Q56.7368 941.24 56.7368 937.58 L56.7368 931.564 L61.6384 931.564 L61.6384 937.58 Q61.6384 944.359 59.124 946.937 Q56.5777 949.516 49.8937 949.516 L30.542 949.516 L30.542 953.812 L25.9905 953.812 L25.9905 949.516 L15.869 949.516 L15.869 943.627 Z" fill="#000000" fill-rule="evenodd" fill-opacity="1" /><path clip-path="url(#clip180)" d="M42.3504 893.37 L45.2149 893.37 L45.2149 920.297 Q51.2623 919.915 54.4452 916.669 Q57.5962 913.39 57.5962 907.566 Q57.5962 904.192 56.7687 901.041 Q55.9411 897.858 54.2861 894.739 L59.8242 894.739 Q61.161 897.89 61.8612 901.2 Q62.5615 904.51 62.5615 907.916 Q62.5615 916.446 57.5962 921.443 Q52.631 926.408 44.1646 926.408 Q35.4117 926.408 30.2873 921.697 Q25.1311 916.955 25.1311 908.934 Q25.1311 901.741 29.7781 897.571 Q34.3932 893.37 42.3504 893.37 M40.6316 899.227 Q35.8255 899.29 32.9609 901.932 Q30.0964 904.542 30.0964 908.871 Q30.0964 913.772 32.8654 916.732 Q35.6345 919.66 40.6634 920.106 L40.6316 899.227 Z" fill="#000000" fill-rule="evenodd" fill-opacity="1" /><path clip-path="url(#clip180)" d="M31.4013 860.3 L12.1132 860.3 L12.1132 854.444 L61.6384 854.444 L61.6384 860.3 L56.2912 860.3 Q59.4741 862.146 61.0337 864.979 Q62.5615 867.78 62.5615 871.727 Q62.5615 878.188 57.4052 882.262 Q52.249 886.304 43.8463 886.304 Q35.4436 886.304 30.2873 882.262 Q25.1311 878.188 25.1311 871.727 Q25.1311 867.78 26.6907 864.979 Q28.2185 862.146 31.4013 860.3 M43.8463 880.257 Q50.3075 880.257 53.9996 877.615 Q57.6599 874.941 57.6599 870.294 Q57.6599 865.647 53.9996 862.974 Q50.3075 860.3 43.8463 860.3 Q37.3851 860.3 33.7248 862.974 Q30.0327 865.647 30.0327 870.294 Q30.0327 874.941 33.7248 877.615 Q37.3851 880.257 43.8463 880.257 Z" fill="#000000" fill-rule="evenodd" fill-opacity="1" /><path clip-path="url(#clip180)" d="M31.4013 798.203 L12.1132 798.203 L12.1132 792.346 L61.6384 792.346 L61.6384 798.203 L56.2912 798.203 Q59.4741 800.049 61.0337 802.882 Q62.5615 805.682 62.5615 809.629 Q62.5615 816.09 57.4052 820.164 Q52.249 824.207 43.8463 824.207 Q35.4436 824.207 30.2873 820.164 Q25.1311 816.09 25.1311 809.629 Q25.1311 805.682 26.6907 802.882 Q28.2185 800.049 31.4013 798.203 M43.8463 818.159 Q50.3075 818.159 53.9996 815.517 Q57.6599 812.844 57.6599 808.197 Q57.6599 803.55 53.9996 800.876 Q50.3075 798.203 43.8463 798.203 Q37.3851 798.203 33.7248 800.876 Q30.0327 803.55 30.0327 808.197 Q30.0327 812.844 33.7248 815.517 Q37.3851 818.159 43.8463 818.159 Z" fill="#000000" fill-rule="evenodd" fill-opacity="1" /><path clip-path="url(#clip180)" d="M43.719 764.083 Q43.719 771.18 45.3422 773.918 Q46.9655 776.655 50.8804 776.655 Q53.9996 776.655 55.8457 774.618 Q57.6599 772.549 57.6599 769.016 Q57.6599 764.146 54.2224 761.218 Q50.7531 758.258 45.0239 758.258 L43.719 758.258 L43.719 764.083 M41.3 752.401 L61.6384 752.401 L61.6384 758.258 L56.2276 758.258 Q59.4741 760.263 61.0337 763.255 Q62.5615 766.247 62.5615 770.576 Q62.5615 776.05 59.5059 779.297 Q56.4186 782.511 51.2623 782.511 Q45.2467 782.511 42.1912 778.501 Q39.1357 774.459 39.1357 766.47 L39.1357 758.258 L38.5628 758.258 Q34.5205 758.258 32.3244 760.932 Q30.0964 763.573 30.0964 768.379 Q30.0964 771.435 30.8284 774.331 Q31.5605 777.228 33.0246 779.901 L27.6137 779.901 Q26.3724 776.687 25.7677 773.663 Q25.1311 770.639 25.1311 767.775 Q25.1311 760.04 29.1415 756.221 Q33.1519 752.401 41.3 752.401 Z" fill="#000000" fill-rule="evenodd" fill-opacity="1" /><path clip-path="url(#clip180)" d="M25.9905 740.338 L25.9905 734.482 L61.6384 734.482 L61.6384 740.338 L25.9905 740.338 M12.1132 740.338 L12.1132 734.482 L19.5293 734.482 L19.5293 740.338 L12.1132 740.338 Z" fill="#000000" fill-rule="evenodd" fill-opacity="1" /><path clip-path="url(#clip180)" d="M12.1132 722.228 L12.1132 716.372 L61.6384 716.372 L61.6384 722.228 L12.1132 722.228 Z" fill="#000000" fill-rule="evenodd" fill-opacity="1" /><path clip-path="url(#clip180)" d="M64.9486 689.285 Q71.3143 691.768 73.2559 694.123 Q75.1974 696.479 75.1974 700.425 L75.1974 705.104 L70.2958 705.104 L70.2958 701.667 Q70.2958 699.248 69.15 697.911 Q68.0041 696.574 63.7391 694.951 L61.0655 693.901 L25.9905 708.319 L25.9905 702.112 L53.8723 690.972 L25.9905 679.832 L25.9905 673.626 L64.9486 689.285 Z" fill="#000000" fill-rule="evenodd" fill-opacity="1" /><polyline clip-path="url(#clip182)" style="stroke:#009af9; stroke-linecap:round; stroke-linejoin:round; stroke-width:4; stroke-opacity:1; fill:none" points="
  314.385,1678.71 322.658,1679.95 330.932,1678.66 339.205,1681.69 347.478,1686.38 355.751,1663.37 364.025,1655.11 372.298,1661.02 380.571,1664.78 388.845,1681.36 
  397.118,1671.72 405.391,1673.22 413.665,1661.09 421.938,1630.02 430.211,1657.23 438.485,1628.78 446.758,1640.93 455.031,1660.81 463.304,1663.49 471.578,1642.22 
  479.851,1640.9 488.124,1615.25 496.398,1614.31 504.671,1581.85 512.944,1618.95 521.218,1608.87 529.491,1559.88 537.764,1562.69 546.038,1532.25 554.311,1578.12 
  562.584,1588.89 570.857,1606.71 579.131,1542.83 587.404,1527.02 595.677,1458.78 603.951,1477.85 612.224,1462.09 620.497,1467.93 628.771,1559.25 637.044,1560.11 
  645.317,1480.66 653.59,1431.86 661.864,1374.61 670.137,1343.82 678.41,1376.37 686.684,1526.34 694.957,1364.65 703.23,1295.91 711.504,1233.46 719.777,1286.34 
  728.05,1187.45 736.324,1307.31 744.597,1366.71 752.87,1405.73 761.143,1323.18 769.417,1232.36 777.69,1041.53 785.963,1075.47 794.237,948.125 802.51,1396.96 
  810.783,1355.19 819.057,957.81 827.33,1094.34 835.603,956.755 843.877,953.214 852.15,1148.17 860.423,1284.25 868.696,1299.5 876.97,962.665 885.243,913.651 
  893.516,1033.35 901.79,1136.49 910.063,1211.3 918.336,1309.16 926.61,1129.62 934.883,837.927 943.156,980.84 951.43,1116.97 959.703,390.169 967.976,1028.89 
  976.249,1317.48 984.523,1084.4 992.796,778.196 1001.07,743.582 1009.34,727.635 1017.62,653.458 1025.89,840.248 1034.16,935.696 1042.44,1199.95 1050.71,775.499 
  1058.98,607.962 1067.26,664.808 1075.53,701.088 1083.8,925.213 1092.08,1104.59 1100.35,1132.5 1108.62,611.034 1116.9,644.851 1125.17,698.555 1133.44,666.919 
  1141.72,886.518 1149.99,1151.26 1158.26,1169.2 1166.54,699.493 1174.81,764.688 1183.08,681.646 1191.36,894.233 1199.63,1102.76 1207.9,1156.4 1216.18,1172.48 
  1224.45,605.453 1232.72,154.763 1241,361.699 1249.27,371.619 1257.54,591.312 1265.82,1212.52 1274.09,1011.02 1282.36,439.604 1290.64,405.67 1298.91,344.603 
  1307.18,456.958 1315.45,731.879 1323.73,1141.69 1332,1234.56 1340.27,386.182 1348.55,389.559 1356.82,439.229 1365.09,557.753 1373.37,607.915 1381.64,1173.02 
  1389.91,1121.06 1398.19,511.717 1406.46,390.333 1414.73,282.269 1423.01,550.412 1431.28,838.161 1439.55,1170.16 1447.83,1130.32 1456.1,550.764 1464.37,566.265 
  1472.65,698.273 1480.92,947.984 1489.19,629.467 1497.47,1193.22 1505.74,1154.57 1514.01,620.11 1522.29,576.842 1530.56,715.018 1538.83,672.149 1547.11,831.548 
  1555.38,1365.23 1563.65,528.227 1571.93,666.497 1580.2,616.686 1588.47,608.337 1596.75,785.325 1605.02,905.584 1613.29,1369.8 1621.57,1475.1 1629.84,1268.45 
  1638.11,834.573 1646.39,751.344 1654.66,729.722 1662.93,983.771 1671.21,1377.29 1679.48,1222.72 1687.75,895.781 1696.03,831.407 1704.3,852.326 1712.57,774.326 
  1720.85,1012.9 1729.12,1343.94 1737.39,1292.51 1745.67,886.049 1753.94,938.604 1762.21,955.301 1770.49,948.336 1778.76,1126.43 1787.03,1382.96 1795.31,1310.19 
  1803.58,935.742 1811.85,934.5 1820.13,867.569 1828.4,935.789 1836.67,1166.5 1844.95,1501.7 1853.22,1095.09 1861.49,966.745 1869.77,980.535 1878.04,1076.87 
  1886.31,1055.7 1894.59,1149.24 1902.86,1420.18 1911.13,1503.55 1919.41,1392.86 1927.68,1053.02 1935.95,992.542 1944.23,1035.46 1952.5,1218.85 1960.77,1423.46 
  1969.05,1317.27 1977.32,1148.73 1985.59,1100.02 1993.87,1125.02 2002.14,1002.51 2010.41,1120.21 2018.69,1431.76 2026.96,1256.51 2035.23,1002.95 2043.51,1041.2 
  2051.78,1079.92 2060.05,1134.96 2068.33,1397.22 2076.6,1467.15 2084.87,1512.62 2093.15,1394.92 2101.42,1128.47 2109.69,1146.88 2117.97,1232.45 2126.24,1289.86 
  2134.51,1459.79 2142.79,1391.5 2151.06,617.366 2159.33,1090.62 2167.61,910.556 2175.88,798.083 2184.15,1089.82 2192.43,1379.96 2200.7,1336.86 2208.97,873.784 
  2217.25,891.091 2225.52,865.06 2233.79,796.863 2242.07,997.326 2250.34,1285.68 2258.61,1280.24 2266.89,896.227 2275.16,659.883 2283.43,746.865 2291.71,920.264 
  2299.98,498.678 2308.25,1213.31 2316.53,1150.39 2324.8,486.953 2333.07,569.267 2341.34,530.244 2349.62,588.122 2357.89,761.405 2366.16,1086.25 2374.44,1072.32 
  2382.71,585.191 2390.98,425.838 2399.26,450.251 2407.53,473.726 2415.8,713.493 2424.08,1189.46 2432.35,1063.97 2440.62,579.656 2448.9,155.373 2457.17,94.9858 
  2465.44,466.597 2473.72,574.731 2481.99,1131.89 2490.26,1057.76 2498.54,377.2 2506.81,634.837 2515.08,340.944 2523.36,1209.3 2531.63,1294.9 2539.9,1293 
  2548.18,1062.64 2556.45,384.095 2564.72,402.176 2573,428.699 
  "/>
</svg>
