<?xml version="1.0" encoding="utf-8"?>
<svg xmlns="http://www.w3.org/2000/svg" xmlns:xlink="http://www.w3.org/1999/xlink" width="672" height="480" viewBox="0 0 2688 1920">
<defs>
  <clipPath id="clip460">
    <rect x="0" y="0" width="2688" height="1920"/>
  </clipPath>
</defs>
<path clip-path="url(#clip460)" d="M0 1920 L2688 1920 L2688 0 L0 0  Z" fill="#ffffff" fill-rule="evenodd" fill-opacity="1"/>
<defs>
  <clipPath id="clip461">
    <rect x="537" y="0" width="1883" height="1883"/>
  </clipPath>
</defs>
<path clip-path="url(#clip460)" d="M276.788 1734.12 L2640.76 1734.12 L2640.76 47.2441 L276.788 47.2441  Z" fill="#ffffff" fill-rule="evenodd" fill-opacity="1"/>
<defs>
  <clipPath id="clip462">
    <rect x="276" y="47" width="2365" height="1688"/>
  </clipPath>
</defs>
<polyline clip-path="url(#clip462)" style="stroke:#000000; stroke-linecap:round; stroke-linejoin:round; stroke-width:2; stroke-opacity:0.1; fill:none" points="339.961,1734.12 339.961,47.2441 "/>
<polyline clip-path="url(#clip462)" style="stroke:#000000; stroke-linecap:round; stroke-linejoin:round; stroke-width:2; stroke-opacity:0.1; fill:none" points="1023,1734.12 1023,47.2441 "/>
<polyline clip-path="url(#clip462)" style="stroke:#000000; stroke-linecap:round; stroke-linejoin:round; stroke-width:2; stroke-opacity:0.1; fill:none" points="1704.18,1734.12 1704.18,47.2441 "/>
<polyline clip-path="url(#clip462)" style="stroke:#000000; stroke-linecap:round; stroke-linejoin:round; stroke-width:2; stroke-opacity:0.1; fill:none" points="2385.36,1734.12 2385.36,47.2441 "/>
<polyline clip-path="url(#clip460)" style="stroke:#000000; stroke-linecap:round; stroke-linejoin:round; stroke-width:4; stroke-opacity:1; fill:none" points="276.788,1734.12 2640.76,1734.12 "/>
<polyline clip-path="url(#clip460)" style="stroke:#000000; stroke-linecap:round; stroke-linejoin:round; stroke-width:4; stroke-opacity:1; fill:none" points="339.961,1734.12 339.961,1715.22 "/>
<polyline clip-path="url(#clip460)" style="stroke:#000000; stroke-linecap:round; stroke-linejoin:round; stroke-width:4; stroke-opacity:1; fill:none" points="1023,1734.12 1023,1715.22 "/>
<polyline clip-path="url(#clip460)" style="stroke:#000000; stroke-linecap:round; stroke-linejoin:round; stroke-width:4; stroke-opacity:1; fill:none" points="1704.18,1734.12 1704.18,1715.22 "/>
<polyline clip-path="url(#clip460)" style="stroke:#000000; stroke-linecap:round; stroke-linejoin:round; stroke-width:4; stroke-opacity:1; fill:none" points="2385.36,1734.12 2385.36,1715.22 "/>
<path clip-path="url(#clip460)" d="M211.755 1794.89 L228.075 1794.89 L228.075 1798.82 L206.13 1798.82 L206.13 1794.89 Q208.792 1792.13 213.376 1787.5 Q217.982 1782.85 219.163 1781.51 Q221.408 1778.98 222.288 1777.25 Q223.19 1775.49 223.19 1773.8 Q223.19 1771.04 221.246 1769.31 Q219.325 1767.57 216.223 1767.57 Q214.024 1767.57 211.57 1768.34 Q209.14 1769.1 206.362 1770.65 L206.362 1765.93 Q209.186 1764.79 211.64 1764.21 Q214.093 1763.64 216.13 1763.64 Q221.501 1763.64 224.695 1766.32 Q227.89 1769.01 227.89 1773.5 Q227.89 1775.63 227.079 1777.55 Q226.292 1779.45 224.186 1782.04 Q223.607 1782.71 220.505 1785.93 Q217.403 1789.12 211.755 1794.89 Z" fill="#000000" fill-rule="nonzero" fill-opacity="1" /><path clip-path="url(#clip460)" d="M247.889 1767.34 Q244.278 1767.34 242.45 1770.9 Q240.644 1774.45 240.644 1781.58 Q240.644 1788.68 242.45 1792.25 Q244.278 1795.79 247.889 1795.79 Q251.524 1795.79 253.329 1792.25 Q255.158 1788.68 255.158 1781.58 Q255.158 1774.45 253.329 1770.9 Q251.524 1767.34 247.889 1767.34 M247.889 1763.64 Q253.7 1763.64 256.755 1768.24 Q259.834 1772.83 259.834 1781.58 Q259.834 1790.3 256.755 1794.91 Q253.7 1799.49 247.889 1799.49 Q242.079 1799.49 239.001 1794.91 Q235.945 1790.3 235.945 1781.58 Q235.945 1772.83 239.001 1768.24 Q242.079 1763.64 247.889 1763.64 Z" fill="#000000" fill-rule="nonzero" fill-opacity="1" /><path clip-path="url(#clip460)" d="M272.079 1794.89 L288.398 1794.89 L288.398 1798.82 L266.454 1798.82 L266.454 1794.89 Q269.116 1792.13 273.699 1787.5 Q278.306 1782.85 279.486 1781.51 Q281.732 1778.98 282.611 1777.25 Q283.514 1775.49 283.514 1773.8 Q283.514 1771.04 281.57 1769.31 Q279.649 1767.57 276.547 1767.57 Q274.348 1767.57 271.894 1768.34 Q269.463 1769.1 266.686 1770.65 L266.686 1765.93 Q269.51 1764.79 271.963 1764.21 Q274.417 1763.64 276.454 1763.64 Q281.824 1763.64 285.019 1766.32 Q288.213 1769.01 288.213 1773.5 Q288.213 1775.63 287.403 1777.55 Q286.616 1779.45 284.51 1782.04 Q283.931 1782.71 280.829 1785.93 Q277.727 1789.12 272.079 1794.89 Z" fill="#000000" fill-rule="nonzero" fill-opacity="1" /><path clip-path="url(#clip460)" d="M308.213 1767.34 Q304.602 1767.34 302.773 1770.9 Q300.968 1774.45 300.968 1781.58 Q300.968 1788.68 302.773 1792.25 Q304.602 1795.79 308.213 1795.79 Q311.847 1795.79 313.653 1792.25 Q315.482 1788.68 315.482 1781.58 Q315.482 1774.45 313.653 1770.9 Q311.847 1767.34 308.213 1767.34 M308.213 1763.64 Q314.023 1763.64 317.079 1768.24 Q320.158 1772.83 320.158 1781.58 Q320.158 1790.3 317.079 1794.91 Q314.023 1799.49 308.213 1799.49 Q302.403 1799.49 299.324 1794.91 Q296.269 1790.3 296.269 1781.58 Q296.269 1772.83 299.324 1768.24 Q302.403 1763.64 308.213 1763.64 Z" fill="#000000" fill-rule="nonzero" fill-opacity="1" /><path clip-path="url(#clip460)" d="M325.62 1783.94 L338.097 1783.94 L338.097 1787.73 L325.62 1787.73 L325.62 1783.94 Z" fill="#000000" fill-rule="nonzero" fill-opacity="1" /><path clip-path="url(#clip460)" d="M355.481 1767.34 Q351.87 1767.34 350.042 1770.9 Q348.236 1774.45 348.236 1781.58 Q348.236 1788.68 350.042 1792.25 Q351.87 1795.79 355.481 1795.79 Q359.116 1795.79 360.921 1792.25 Q362.75 1788.68 362.75 1781.58 Q362.75 1774.45 360.921 1770.9 Q359.116 1767.34 355.481 1767.34 M355.481 1763.64 Q361.292 1763.64 364.347 1768.24 Q367.426 1772.83 367.426 1781.58 Q367.426 1790.3 364.347 1794.91 Q361.292 1799.49 355.481 1799.49 Q349.671 1799.49 346.593 1794.91 Q343.537 1790.3 343.537 1781.58 Q343.537 1772.83 346.593 1768.24 Q349.671 1763.64 355.481 1763.64 Z" fill="#000000" fill-rule="nonzero" fill-opacity="1" /><path clip-path="url(#clip460)" d="M376.454 1794.89 L384.092 1794.89 L384.092 1768.52 L375.782 1770.19 L375.782 1765.93 L384.046 1764.26 L388.722 1764.26 L388.722 1794.89 L396.361 1794.89 L396.361 1798.82 L376.454 1798.82 L376.454 1794.89 Z" fill="#000000" fill-rule="nonzero" fill-opacity="1" /><path clip-path="url(#clip460)" d="M403.051 1783.94 L415.527 1783.94 L415.527 1787.73 L403.051 1787.73 L403.051 1783.94 Z" fill="#000000" fill-rule="nonzero" fill-opacity="1" /><path clip-path="url(#clip460)" d="M432.912 1767.34 Q429.3 1767.34 427.472 1770.9 Q425.666 1774.45 425.666 1781.58 Q425.666 1788.68 427.472 1792.25 Q429.3 1795.79 432.912 1795.79 Q436.546 1795.79 438.351 1792.25 Q440.18 1788.68 440.18 1781.58 Q440.18 1774.45 438.351 1770.9 Q436.546 1767.34 432.912 1767.34 M432.912 1763.64 Q438.722 1763.64 441.777 1768.24 Q444.856 1772.83 444.856 1781.58 Q444.856 1790.3 441.777 1794.91 Q438.722 1799.49 432.912 1799.49 Q427.101 1799.49 424.023 1794.91 Q420.967 1790.3 420.967 1781.58 Q420.967 1772.83 424.023 1768.24 Q427.101 1763.64 432.912 1763.64 Z" fill="#000000" fill-rule="nonzero" fill-opacity="1" /><path clip-path="url(#clip460)" d="M453.884 1794.89 L461.523 1794.89 L461.523 1768.52 L453.212 1770.19 L453.212 1765.93 L461.476 1764.26 L466.152 1764.26 L466.152 1794.89 L473.791 1794.89 L473.791 1798.82 L453.884 1798.82 L453.884 1794.89 Z" fill="#000000" fill-rule="nonzero" fill-opacity="1" /><path clip-path="url(#clip460)" d="M894.8 1794.89 L911.119 1794.89 L911.119 1798.82 L889.175 1798.82 L889.175 1794.89 Q891.837 1792.13 896.42 1787.5 Q901.026 1782.85 902.207 1781.51 Q904.452 1778.98 905.332 1777.25 Q906.235 1775.49 906.235 1773.8 Q906.235 1771.04 904.29 1769.31 Q902.369 1767.57 899.267 1767.57 Q897.068 1767.57 894.614 1768.34 Q892.184 1769.1 889.406 1770.65 L889.406 1765.93 Q892.23 1764.79 894.684 1764.21 Q897.138 1763.64 899.175 1763.64 Q904.545 1763.64 907.739 1766.32 Q910.934 1769.01 910.934 1773.5 Q910.934 1775.63 910.124 1777.55 Q909.337 1779.45 907.23 1782.04 Q906.651 1782.71 903.55 1785.93 Q900.448 1789.12 894.8 1794.89 Z" fill="#000000" fill-rule="nonzero" fill-opacity="1" /><path clip-path="url(#clip460)" d="M930.934 1767.34 Q927.323 1767.34 925.494 1770.9 Q923.688 1774.45 923.688 1781.58 Q923.688 1788.68 925.494 1792.25 Q927.323 1795.79 930.934 1795.79 Q934.568 1795.79 936.373 1792.25 Q938.202 1788.68 938.202 1781.58 Q938.202 1774.45 936.373 1770.9 Q934.568 1767.34 930.934 1767.34 M930.934 1763.64 Q936.744 1763.64 939.799 1768.24 Q942.878 1772.83 942.878 1781.58 Q942.878 1790.3 939.799 1794.91 Q936.744 1799.49 930.934 1799.49 Q925.123 1799.49 922.045 1794.91 Q918.989 1790.3 918.989 1781.58 Q918.989 1772.83 922.045 1768.24 Q925.123 1763.64 930.934 1763.64 Z" fill="#000000" fill-rule="nonzero" fill-opacity="1" /><path clip-path="url(#clip460)" d="M955.123 1794.89 L971.443 1794.89 L971.443 1798.82 L949.498 1798.82 L949.498 1794.89 Q952.16 1792.13 956.744 1787.5 Q961.35 1782.85 962.531 1781.51 Q964.776 1778.98 965.656 1777.25 Q966.558 1775.49 966.558 1773.8 Q966.558 1771.04 964.614 1769.31 Q962.693 1767.57 959.591 1767.57 Q957.392 1767.57 954.938 1768.34 Q952.508 1769.1 949.73 1770.65 L949.73 1765.93 Q952.554 1764.79 955.008 1764.21 Q957.461 1763.64 959.498 1763.64 Q964.869 1763.64 968.063 1766.32 Q971.257 1769.01 971.257 1773.5 Q971.257 1775.63 970.447 1777.55 Q969.66 1779.45 967.554 1782.04 Q966.975 1782.71 963.873 1785.93 Q960.771 1789.12 955.123 1794.89 Z" fill="#000000" fill-rule="nonzero" fill-opacity="1" /><path clip-path="url(#clip460)" d="M982.068 1794.89 L989.706 1794.89 L989.706 1768.52 L981.396 1770.19 L981.396 1765.93 L989.66 1764.26 L994.336 1764.26 L994.336 1794.89 L1001.97 1794.89 L1001.97 1798.82 L982.068 1798.82 L982.068 1794.89 Z" fill="#000000" fill-rule="nonzero" fill-opacity="1" /><path clip-path="url(#clip460)" d="M1008.66 1783.94 L1021.14 1783.94 L1021.14 1787.73 L1008.66 1787.73 L1008.66 1783.94 Z" fill="#000000" fill-rule="nonzero" fill-opacity="1" /><path clip-path="url(#clip460)" d="M1038.53 1767.34 Q1034.91 1767.34 1033.09 1770.9 Q1031.28 1774.45 1031.28 1781.58 Q1031.28 1788.68 1033.09 1792.25 Q1034.91 1795.79 1038.53 1795.79 Q1042.16 1795.79 1043.97 1792.25 Q1045.79 1788.68 1045.79 1781.58 Q1045.79 1774.45 1043.97 1770.9 Q1042.16 1767.34 1038.53 1767.34 M1038.53 1763.64 Q1044.34 1763.64 1047.39 1768.24 Q1050.47 1772.83 1050.47 1781.58 Q1050.47 1790.3 1047.39 1794.91 Q1044.34 1799.49 1038.53 1799.49 Q1032.72 1799.49 1029.64 1794.91 Q1026.58 1790.3 1026.58 1781.58 Q1026.58 1772.83 1029.64 1768.24 Q1032.72 1763.64 1038.53 1763.64 Z" fill="#000000" fill-rule="nonzero" fill-opacity="1" /><path clip-path="url(#clip460)" d="M1059.5 1794.89 L1067.14 1794.89 L1067.14 1768.52 L1058.83 1770.19 L1058.83 1765.93 L1067.09 1764.26 L1071.77 1764.26 L1071.77 1794.89 L1079.41 1794.89 L1079.41 1798.82 L1059.5 1798.82 L1059.5 1794.89 Z" fill="#000000" fill-rule="nonzero" fill-opacity="1" /><path clip-path="url(#clip460)" d="M1086.09 1783.94 L1098.57 1783.94 L1098.57 1787.73 L1086.09 1787.73 L1086.09 1783.94 Z" fill="#000000" fill-rule="nonzero" fill-opacity="1" /><path clip-path="url(#clip460)" d="M1115.96 1767.34 Q1112.34 1767.34 1110.52 1770.9 Q1108.71 1774.45 1108.71 1781.58 Q1108.71 1788.68 1110.52 1792.25 Q1112.34 1795.79 1115.96 1795.79 Q1119.59 1795.79 1121.4 1792.25 Q1123.22 1788.68 1123.22 1781.58 Q1123.22 1774.45 1121.4 1770.9 Q1119.59 1767.34 1115.96 1767.34 M1115.96 1763.64 Q1121.77 1763.64 1124.82 1768.24 Q1127.9 1772.83 1127.9 1781.58 Q1127.9 1790.3 1124.82 1794.91 Q1121.77 1799.49 1115.96 1799.49 Q1110.15 1799.49 1107.07 1794.91 Q1104.01 1790.3 1104.01 1781.58 Q1104.01 1772.83 1107.07 1768.24 Q1110.15 1763.64 1115.96 1763.64 Z" fill="#000000" fill-rule="nonzero" fill-opacity="1" /><path clip-path="url(#clip460)" d="M1136.93 1794.89 L1144.57 1794.89 L1144.57 1768.52 L1136.26 1770.19 L1136.26 1765.93 L1144.52 1764.26 L1149.2 1764.26 L1149.2 1794.89 L1156.84 1794.89 L1156.84 1798.82 L1136.93 1798.82 L1136.93 1794.89 Z" fill="#000000" fill-rule="nonzero" fill-opacity="1" /><path clip-path="url(#clip460)" d="M1575.98 1794.89 L1592.3 1794.89 L1592.3 1798.82 L1570.35 1798.82 L1570.35 1794.89 Q1573.01 1792.13 1577.6 1787.5 Q1582.2 1782.85 1583.38 1781.51 Q1585.63 1778.98 1586.51 1777.25 Q1587.41 1775.49 1587.41 1773.8 Q1587.41 1771.04 1585.47 1769.31 Q1583.55 1767.57 1580.45 1767.57 Q1578.25 1767.57 1575.79 1768.34 Q1573.36 1769.1 1570.58 1770.65 L1570.58 1765.93 Q1573.41 1764.79 1575.86 1764.21 Q1578.32 1763.64 1580.35 1763.64 Q1585.72 1763.64 1588.92 1766.32 Q1592.11 1769.01 1592.11 1773.5 Q1592.11 1775.63 1591.3 1777.55 Q1590.51 1779.45 1588.41 1782.04 Q1587.83 1782.71 1584.73 1785.93 Q1581.63 1789.12 1575.98 1794.89 Z" fill="#000000" fill-rule="nonzero" fill-opacity="1" /><path clip-path="url(#clip460)" d="M1612.11 1767.34 Q1608.5 1767.34 1606.67 1770.9 Q1604.87 1774.45 1604.87 1781.58 Q1604.87 1788.68 1606.67 1792.25 Q1608.5 1795.79 1612.11 1795.79 Q1615.75 1795.79 1617.55 1792.25 Q1619.38 1788.68 1619.38 1781.58 Q1619.38 1774.45 1617.55 1770.9 Q1615.75 1767.34 1612.11 1767.34 M1612.11 1763.64 Q1617.92 1763.64 1620.98 1768.24 Q1624.06 1772.83 1624.06 1781.58 Q1624.06 1790.3 1620.98 1794.91 Q1617.92 1799.49 1612.11 1799.49 Q1606.3 1799.49 1603.22 1794.91 Q1600.17 1790.3 1600.17 1781.58 Q1600.17 1772.83 1603.22 1768.24 Q1606.3 1763.64 1612.11 1763.64 Z" fill="#000000" fill-rule="nonzero" fill-opacity="1" /><path clip-path="url(#clip460)" d="M1636.3 1794.89 L1652.62 1794.89 L1652.62 1798.82 L1630.68 1798.82 L1630.68 1794.89 Q1633.34 1792.13 1637.92 1787.5 Q1642.53 1782.85 1643.71 1781.51 Q1645.95 1778.98 1646.83 1777.25 Q1647.74 1775.49 1647.74 1773.8 Q1647.74 1771.04 1645.79 1769.31 Q1643.87 1767.57 1640.77 1767.57 Q1638.57 1767.57 1636.12 1768.34 Q1633.69 1769.1 1630.91 1770.65 L1630.91 1765.93 Q1633.73 1764.79 1636.19 1764.21 Q1638.64 1763.64 1640.68 1763.64 Q1646.05 1763.64 1649.24 1766.32 Q1652.44 1769.01 1652.44 1773.5 Q1652.44 1775.63 1651.63 1777.55 Q1650.84 1779.45 1648.73 1782.04 Q1648.15 1782.71 1645.05 1785.93 Q1641.95 1789.12 1636.3 1794.89 Z" fill="#000000" fill-rule="nonzero" fill-opacity="1" /><path clip-path="url(#clip460)" d="M1666.46 1794.89 L1682.78 1794.89 L1682.78 1798.82 L1660.84 1798.82 L1660.84 1794.89 Q1663.5 1792.13 1668.08 1787.5 Q1672.69 1782.85 1673.87 1781.51 Q1676.12 1778.98 1677 1777.25 Q1677.9 1775.49 1677.9 1773.8 Q1677.9 1771.04 1675.95 1769.31 Q1674.03 1767.57 1670.93 1767.57 Q1668.73 1767.57 1666.28 1768.34 Q1663.85 1769.1 1661.07 1770.65 L1661.07 1765.93 Q1663.89 1764.79 1666.35 1764.21 Q1668.8 1763.64 1670.84 1763.64 Q1676.21 1763.64 1679.4 1766.32 Q1682.6 1769.01 1682.6 1773.5 Q1682.6 1775.63 1681.79 1777.55 Q1681 1779.45 1678.89 1782.04 Q1678.31 1782.71 1675.21 1785.93 Q1672.11 1789.12 1666.46 1794.89 Z" fill="#000000" fill-rule="nonzero" fill-opacity="1" /><path clip-path="url(#clip460)" d="M1689.84 1783.94 L1702.32 1783.94 L1702.32 1787.73 L1689.84 1787.73 L1689.84 1783.94 Z" fill="#000000" fill-rule="nonzero" fill-opacity="1" /><path clip-path="url(#clip460)" d="M1719.7 1767.34 Q1716.09 1767.34 1714.26 1770.9 Q1712.46 1774.45 1712.46 1781.58 Q1712.46 1788.68 1714.26 1792.25 Q1716.09 1795.79 1719.7 1795.79 Q1723.34 1795.79 1725.14 1792.25 Q1726.97 1788.68 1726.97 1781.58 Q1726.97 1774.45 1725.14 1770.9 Q1723.34 1767.34 1719.7 1767.34 M1719.7 1763.64 Q1725.51 1763.64 1728.57 1768.24 Q1731.65 1772.83 1731.65 1781.58 Q1731.65 1790.3 1728.57 1794.91 Q1725.51 1799.49 1719.7 1799.49 Q1713.89 1799.49 1710.81 1794.91 Q1707.76 1790.3 1707.76 1781.58 Q1707.76 1772.83 1710.81 1768.24 Q1713.89 1763.64 1719.7 1763.64 Z" fill="#000000" fill-rule="nonzero" fill-opacity="1" /><path clip-path="url(#clip460)" d="M1740.68 1794.89 L1748.31 1794.89 L1748.31 1768.52 L1740 1770.19 L1740 1765.93 L1748.27 1764.26 L1752.94 1764.26 L1752.94 1794.89 L1760.58 1794.89 L1760.58 1798.82 L1740.68 1798.82 L1740.68 1794.89 Z" fill="#000000" fill-rule="nonzero" fill-opacity="1" /><path clip-path="url(#clip460)" d="M1767.27 1783.94 L1779.75 1783.94 L1779.75 1787.73 L1767.27 1787.73 L1767.27 1783.94 Z" fill="#000000" fill-rule="nonzero" fill-opacity="1" /><path clip-path="url(#clip460)" d="M1797.13 1767.34 Q1793.52 1767.34 1791.69 1770.9 Q1789.89 1774.45 1789.89 1781.58 Q1789.89 1788.68 1791.69 1792.25 Q1793.52 1795.79 1797.13 1795.79 Q1800.77 1795.79 1802.57 1792.25 Q1804.4 1788.68 1804.4 1781.58 Q1804.4 1774.45 1802.57 1770.9 Q1800.77 1767.34 1797.13 1767.34 M1797.13 1763.64 Q1802.94 1763.64 1806 1768.24 Q1809.08 1772.83 1809.08 1781.58 Q1809.08 1790.3 1806 1794.91 Q1802.94 1799.49 1797.13 1799.49 Q1791.32 1799.49 1788.24 1794.91 Q1785.19 1790.3 1785.19 1781.58 Q1785.19 1772.83 1788.24 1768.24 Q1791.32 1763.64 1797.13 1763.64 Z" fill="#000000" fill-rule="nonzero" fill-opacity="1" /><path clip-path="url(#clip460)" d="M1818.11 1794.89 L1825.74 1794.89 L1825.74 1768.52 L1817.43 1770.19 L1817.43 1765.93 L1825.7 1764.26 L1830.37 1764.26 L1830.37 1794.89 L1838.01 1794.89 L1838.01 1798.82 L1818.11 1798.82 L1818.11 1794.89 Z" fill="#000000" fill-rule="nonzero" fill-opacity="1" /><path clip-path="url(#clip460)" d="M2257.16 1794.89 L2273.47 1794.89 L2273.47 1798.82 L2251.53 1798.82 L2251.53 1794.89 Q2254.19 1792.13 2258.78 1787.5 Q2263.38 1782.85 2264.56 1781.51 Q2266.81 1778.98 2267.69 1777.25 Q2268.59 1775.49 2268.59 1773.8 Q2268.59 1771.04 2266.65 1769.31 Q2264.72 1767.57 2261.62 1767.57 Q2259.42 1767.57 2256.97 1768.34 Q2254.54 1769.1 2251.76 1770.65 L2251.76 1765.93 Q2254.59 1764.79 2257.04 1764.21 Q2259.49 1763.64 2261.53 1763.64 Q2266.9 1763.64 2270.1 1766.32 Q2273.29 1769.01 2273.29 1773.5 Q2273.29 1775.63 2272.48 1777.55 Q2271.69 1779.45 2269.59 1782.04 Q2269.01 1782.71 2265.91 1785.93 Q2262.8 1789.12 2257.16 1794.89 Z" fill="#000000" fill-rule="nonzero" fill-opacity="1" /><path clip-path="url(#clip460)" d="M2293.29 1767.34 Q2289.68 1767.34 2287.85 1770.9 Q2286.04 1774.45 2286.04 1781.58 Q2286.04 1788.68 2287.85 1792.25 Q2289.68 1795.79 2293.29 1795.79 Q2296.92 1795.79 2298.73 1792.25 Q2300.56 1788.68 2300.56 1781.58 Q2300.56 1774.45 2298.73 1770.9 Q2296.92 1767.34 2293.29 1767.34 M2293.29 1763.64 Q2299.1 1763.64 2302.16 1768.24 Q2305.23 1772.83 2305.23 1781.58 Q2305.23 1790.3 2302.16 1794.91 Q2299.1 1799.49 2293.29 1799.49 Q2287.48 1799.49 2284.4 1794.91 Q2281.35 1790.3 2281.35 1781.58 Q2281.35 1772.83 2284.4 1768.24 Q2287.48 1763.64 2293.29 1763.64 Z" fill="#000000" fill-rule="nonzero" fill-opacity="1" /><path clip-path="url(#clip460)" d="M2317.48 1794.89 L2333.8 1794.89 L2333.8 1798.82 L2311.85 1798.82 L2311.85 1794.89 Q2314.52 1792.13 2319.1 1787.5 Q2323.71 1782.85 2324.89 1781.51 Q2327.13 1778.98 2328.01 1777.25 Q2328.91 1775.49 2328.91 1773.8 Q2328.91 1771.04 2326.97 1769.31 Q2325.05 1767.57 2321.95 1767.57 Q2319.75 1767.57 2317.29 1768.34 Q2314.86 1769.1 2312.09 1770.65 L2312.09 1765.93 Q2314.91 1764.79 2317.36 1764.21 Q2319.82 1763.64 2321.85 1763.64 Q2327.22 1763.64 2330.42 1766.32 Q2333.61 1769.01 2333.61 1773.5 Q2333.61 1775.63 2332.8 1777.55 Q2332.02 1779.45 2329.91 1782.04 Q2329.33 1782.71 2326.23 1785.93 Q2323.13 1789.12 2317.48 1794.89 Z" fill="#000000" fill-rule="nonzero" fill-opacity="1" /><path clip-path="url(#clip460)" d="M2357.78 1780.19 Q2361.14 1780.9 2363.01 1783.17 Q2364.91 1785.44 2364.91 1788.77 Q2364.91 1793.89 2361.39 1796.69 Q2357.87 1799.49 2351.39 1799.49 Q2349.22 1799.49 2346.9 1799.05 Q2344.61 1798.64 2342.16 1797.78 L2342.16 1793.27 Q2344.1 1794.4 2346.41 1794.98 Q2348.73 1795.56 2351.25 1795.56 Q2355.65 1795.56 2357.94 1793.82 Q2360.26 1792.08 2360.26 1788.77 Q2360.26 1785.72 2358.1 1784.01 Q2355.97 1782.27 2352.15 1782.27 L2348.13 1782.27 L2348.13 1778.43 L2352.34 1778.43 Q2355.79 1778.43 2357.62 1777.06 Q2359.45 1775.67 2359.45 1773.08 Q2359.45 1770.42 2357.55 1769.01 Q2355.67 1767.57 2352.15 1767.57 Q2350.23 1767.57 2348.03 1767.99 Q2345.84 1768.4 2343.2 1769.28 L2343.2 1765.12 Q2345.86 1764.38 2348.17 1764.01 Q2350.51 1763.64 2352.57 1763.64 Q2357.9 1763.64 2361 1766.07 Q2364.1 1768.47 2364.1 1772.59 Q2364.1 1775.46 2362.46 1777.46 Q2360.81 1779.42 2357.78 1780.19 Z" fill="#000000" fill-rule="nonzero" fill-opacity="1" /><path clip-path="url(#clip460)" d="M2371.02 1783.94 L2383.5 1783.94 L2383.5 1787.73 L2371.02 1787.73 L2371.02 1783.94 Z" fill="#000000" fill-rule="nonzero" fill-opacity="1" /><path clip-path="url(#clip460)" d="M2400.88 1767.34 Q2397.27 1767.34 2395.44 1770.9 Q2393.64 1774.45 2393.64 1781.58 Q2393.64 1788.68 2395.44 1792.25 Q2397.27 1795.79 2400.88 1795.79 Q2404.52 1795.79 2406.32 1792.25 Q2408.15 1788.68 2408.15 1781.58 Q2408.15 1774.45 2406.32 1770.9 Q2404.52 1767.34 2400.88 1767.34 M2400.88 1763.64 Q2406.69 1763.64 2409.75 1768.24 Q2412.83 1772.83 2412.83 1781.58 Q2412.83 1790.3 2409.75 1794.91 Q2406.69 1799.49 2400.88 1799.49 Q2395.07 1799.49 2391.99 1794.91 Q2388.94 1790.3 2388.94 1781.58 Q2388.94 1772.83 2391.99 1768.24 Q2395.07 1763.64 2400.88 1763.64 Z" fill="#000000" fill-rule="nonzero" fill-opacity="1" /><path clip-path="url(#clip460)" d="M2421.85 1794.89 L2429.49 1794.89 L2429.49 1768.52 L2421.18 1770.19 L2421.18 1765.93 L2429.45 1764.26 L2434.12 1764.26 L2434.12 1794.89 L2441.76 1794.89 L2441.76 1798.82 L2421.85 1798.82 L2421.85 1794.89 Z" fill="#000000" fill-rule="nonzero" fill-opacity="1" /><path clip-path="url(#clip460)" d="M2448.45 1783.94 L2460.93 1783.94 L2460.93 1787.73 L2448.45 1787.73 L2448.45 1783.94 Z" fill="#000000" fill-rule="nonzero" fill-opacity="1" /><path clip-path="url(#clip460)" d="M2478.31 1767.34 Q2474.7 1767.34 2472.87 1770.9 Q2471.07 1774.45 2471.07 1781.58 Q2471.07 1788.68 2472.87 1792.25 Q2474.7 1795.79 2478.31 1795.79 Q2481.95 1795.79 2483.75 1792.25 Q2485.58 1788.68 2485.58 1781.58 Q2485.58 1774.45 2483.75 1770.9 Q2481.95 1767.34 2478.31 1767.34 M2478.31 1763.64 Q2484.12 1763.64 2487.18 1768.24 Q2490.26 1772.83 2490.26 1781.58 Q2490.26 1790.3 2487.18 1794.91 Q2484.12 1799.49 2478.31 1799.49 Q2472.5 1799.49 2469.42 1794.91 Q2466.37 1790.3 2466.37 1781.58 Q2466.37 1772.83 2469.42 1768.24 Q2472.5 1763.64 2478.31 1763.64 Z" fill="#000000" fill-rule="nonzero" fill-opacity="1" /><path clip-path="url(#clip460)" d="M2499.28 1794.89 L2506.92 1794.89 L2506.92 1768.52 L2498.61 1770.19 L2498.61 1765.93 L2506.88 1764.26 L2511.55 1764.26 L2511.55 1794.89 L2519.19 1794.89 L2519.19 1798.82 L2499.28 1798.82 L2499.28 1794.89 Z" fill="#000000" fill-rule="nonzero" fill-opacity="1" /><path clip-path="url(#clip460)" d="M1467.24 1847.17 Q1467.24 1848.07 1466.82 1848.3 Q1466.41 1848.49 1465.25 1848.49 L1459.06 1848.49 L1454.17 1867.95 Q1453.78 1869.65 1453.78 1871.1 Q1453.78 1872.71 1454.26 1873.42 Q1454.78 1874.13 1455.84 1874.13 Q1457.94 1874.13 1460.19 1872.23 Q1462.48 1870.33 1464.41 1865.69 Q1464.67 1865.08 1464.8 1864.95 Q1464.96 1864.79 1465.38 1864.79 Q1466.18 1864.79 1466.18 1865.43 Q1466.18 1865.66 1465.73 1866.69 Q1465.31 1867.72 1464.38 1869.23 Q1463.48 1870.75 1462.28 1872.16 Q1461.12 1873.58 1459.35 1874.61 Q1457.58 1875.61 1455.68 1875.61 Q1453.01 1875.61 1451.3 1873.9 Q1449.63 1872.2 1449.63 1869.52 Q1449.63 1868.65 1450.3 1865.88 Q1450.98 1863.08 1454.65 1848.49 L1448.82 1848.49 Q1448.02 1848.49 1447.69 1848.46 Q1447.4 1848.43 1447.18 1848.27 Q1446.99 1848.07 1446.99 1847.69 Q1446.99 1847.08 1447.24 1846.82 Q1447.5 1846.53 1447.82 1846.5 Q1448.18 1846.43 1448.98 1846.43 L1455.17 1846.43 L1457.74 1835.97 Q1458 1834.93 1458.64 1834.36 Q1459.32 1833.74 1459.71 1833.68 Q1460.09 1833.58 1460.38 1833.58 Q1461.25 1833.58 1461.77 1834.07 Q1462.28 1834.52 1462.28 1835.35 Q1462.28 1835.8 1459.58 1846.43 L1465.38 1846.43 Q1466.12 1846.43 1466.41 1846.46 Q1466.73 1846.5 1466.99 1846.66 Q1467.24 1846.82 1467.24 1847.17 Z" fill="#000000" fill-rule="nonzero" fill-opacity="1" /><polyline clip-path="url(#clip462)" style="stroke:#000000; stroke-linecap:round; stroke-linejoin:round; stroke-width:2; stroke-opacity:0.1; fill:none" points="276.788,1686.38 2640.76,1686.38 "/>
<polyline clip-path="url(#clip462)" style="stroke:#000000; stroke-linecap:round; stroke-linejoin:round; stroke-width:2; stroke-opacity:0.1; fill:none" points="276.788,1430.25 2640.76,1430.25 "/>
<polyline clip-path="url(#clip462)" style="stroke:#000000; stroke-linecap:round; stroke-linejoin:round; stroke-width:2; stroke-opacity:0.1; fill:none" points="276.788,1174.12 2640.76,1174.12 "/>
<polyline clip-path="url(#clip462)" style="stroke:#000000; stroke-linecap:round; stroke-linejoin:round; stroke-width:2; stroke-opacity:0.1; fill:none" points="276.788,917.994 2640.76,917.994 "/>
<polyline clip-path="url(#clip462)" style="stroke:#000000; stroke-linecap:round; stroke-linejoin:round; stroke-width:2; stroke-opacity:0.1; fill:none" points="276.788,661.867 2640.76,661.867 "/>
<polyline clip-path="url(#clip462)" style="stroke:#000000; stroke-linecap:round; stroke-linejoin:round; stroke-width:2; stroke-opacity:0.1; fill:none" points="276.788,405.74 2640.76,405.74 "/>
<polyline clip-path="url(#clip462)" style="stroke:#000000; stroke-linecap:round; stroke-linejoin:round; stroke-width:2; stroke-opacity:0.1; fill:none" points="276.788,149.613 2640.76,149.613 "/>
<polyline clip-path="url(#clip460)" style="stroke:#000000; stroke-linecap:round; stroke-linejoin:round; stroke-width:4; stroke-opacity:1; fill:none" points="276.788,1734.12 276.788,47.2441 "/>
<polyline clip-path="url(#clip460)" style="stroke:#000000; stroke-linecap:round; stroke-linejoin:round; stroke-width:4; stroke-opacity:1; fill:none" points="276.788,1686.38 295.686,1686.38 "/>
<polyline clip-path="url(#clip460)" style="stroke:#000000; stroke-linecap:round; stroke-linejoin:round; stroke-width:4; stroke-opacity:1; fill:none" points="276.788,1430.25 295.686,1430.25 "/>
<polyline clip-path="url(#clip460)" style="stroke:#000000; stroke-linecap:round; stroke-linejoin:round; stroke-width:4; stroke-opacity:1; fill:none" points="276.788,1174.12 295.686,1174.12 "/>
<polyline clip-path="url(#clip460)" style="stroke:#000000; stroke-linecap:round; stroke-linejoin:round; stroke-width:4; stroke-opacity:1; fill:none" points="276.788,917.994 295.686,917.994 "/>
<polyline clip-path="url(#clip460)" style="stroke:#000000; stroke-linecap:round; stroke-linejoin:round; stroke-width:4; stroke-opacity:1; fill:none" points="276.788,661.867 295.686,661.867 "/>
<polyline clip-path="url(#clip460)" style="stroke:#000000; stroke-linecap:round; stroke-linejoin:round; stroke-width:4; stroke-opacity:1; fill:none" points="276.788,405.74 295.686,405.74 "/>
<polyline clip-path="url(#clip460)" style="stroke:#000000; stroke-linecap:round; stroke-linejoin:round; stroke-width:4; stroke-opacity:1; fill:none" points="276.788,149.613 295.686,149.613 "/>
<path clip-path="url(#clip460)" d="M189.293 1672.17 Q185.682 1672.17 183.853 1675.74 Q182.047 1679.28 182.047 1686.41 Q182.047 1693.52 183.853 1697.08 Q185.682 1700.62 189.293 1700.62 Q192.927 1700.62 194.733 1697.08 Q196.561 1693.52 196.561 1686.41 Q196.561 1679.28 194.733 1675.74 Q192.927 1672.17 189.293 1672.17 M189.293 1668.47 Q195.103 1668.47 198.158 1673.08 Q201.237 1677.66 201.237 1686.41 Q201.237 1695.14 198.158 1699.74 Q195.103 1704.33 189.293 1704.33 Q183.483 1704.33 180.404 1699.74 Q177.348 1695.14 177.348 1686.41 Q177.348 1677.66 180.404 1673.08 Q183.483 1668.47 189.293 1668.47 Z" fill="#000000" fill-rule="nonzero" fill-opacity="1" /><path clip-path="url(#clip460)" d="M209.038 1669.1 L213.714 1669.1 L213.714 1683.7 L229.223 1669.1 L235.242 1669.1 L218.089 1685.21 L236.468 1703.66 L230.311 1703.66 L213.714 1687.01 L213.714 1703.66 L209.038 1703.66 L209.038 1669.1 Z" fill="#000000" fill-rule="nonzero" fill-opacity="1" /><path clip-path="url(#clip460)" d="M119.779 1443.59 L127.418 1443.59 L127.418 1417.23 L119.108 1418.89 L119.108 1414.63 L127.372 1412.97 L132.048 1412.97 L132.048 1443.59 L139.687 1443.59 L139.687 1447.53 L119.779 1447.53 L119.779 1443.59 Z" fill="#000000" fill-rule="nonzero" fill-opacity="1" /><path clip-path="url(#clip460)" d="M159.131 1416.05 Q155.52 1416.05 153.691 1419.61 Q151.886 1423.15 151.886 1430.28 Q151.886 1437.39 153.691 1440.95 Q155.52 1444.5 159.131 1444.5 Q162.765 1444.5 164.571 1440.95 Q166.399 1437.39 166.399 1430.28 Q166.399 1423.15 164.571 1419.61 Q162.765 1416.05 159.131 1416.05 M159.131 1412.34 Q164.941 1412.34 167.997 1416.95 Q171.075 1421.53 171.075 1430.28 Q171.075 1439.01 167.997 1443.62 Q164.941 1448.2 159.131 1448.2 Q153.321 1448.2 150.242 1443.62 Q147.186 1439.01 147.186 1430.28 Q147.186 1421.53 150.242 1416.95 Q153.321 1412.34 159.131 1412.34 Z" fill="#000000" fill-rule="nonzero" fill-opacity="1" /><path clip-path="url(#clip460)" d="M189.293 1416.05 Q185.682 1416.05 183.853 1419.61 Q182.047 1423.15 182.047 1430.28 Q182.047 1437.39 183.853 1440.95 Q185.682 1444.5 189.293 1444.5 Q192.927 1444.5 194.733 1440.95 Q196.561 1437.39 196.561 1430.28 Q196.561 1423.15 194.733 1419.61 Q192.927 1416.05 189.293 1416.05 M189.293 1412.34 Q195.103 1412.34 198.158 1416.95 Q201.237 1421.53 201.237 1430.28 Q201.237 1439.01 198.158 1443.62 Q195.103 1448.2 189.293 1448.2 Q183.483 1448.2 180.404 1443.62 Q177.348 1439.01 177.348 1430.28 Q177.348 1421.53 180.404 1416.95 Q183.483 1412.34 189.293 1412.34 Z" fill="#000000" fill-rule="nonzero" fill-opacity="1" /><path clip-path="url(#clip460)" d="M209.038 1412.97 L213.714 1412.97 L213.714 1427.57 L229.223 1412.97 L235.242 1412.97 L218.089 1429.08 L236.468 1447.53 L230.311 1447.53 L213.714 1430.88 L213.714 1447.53 L209.038 1447.53 L209.038 1412.97 Z" fill="#000000" fill-rule="nonzero" fill-opacity="1" /><path clip-path="url(#clip460)" d="M122.997 1187.47 L139.316 1187.47 L139.316 1191.4 L117.372 1191.4 L117.372 1187.47 Q120.034 1184.71 124.617 1180.08 Q129.224 1175.43 130.404 1174.09 Q132.65 1171.56 133.529 1169.83 Q134.432 1168.07 134.432 1166.38 Q134.432 1163.62 132.488 1161.89 Q130.566 1160.15 127.464 1160.15 Q125.265 1160.15 122.812 1160.92 Q120.381 1161.68 117.603 1163.23 L117.603 1158.51 Q120.427 1157.37 122.881 1156.79 Q125.335 1156.22 127.372 1156.22 Q132.742 1156.22 135.937 1158.9 Q139.131 1161.59 139.131 1166.08 Q139.131 1168.21 138.321 1170.13 Q137.534 1172.03 135.427 1174.62 Q134.849 1175.29 131.747 1178.51 Q128.645 1181.7 122.997 1187.47 Z" fill="#000000" fill-rule="nonzero" fill-opacity="1" /><path clip-path="url(#clip460)" d="M159.131 1159.92 Q155.52 1159.92 153.691 1163.48 Q151.886 1167.03 151.886 1174.16 Q151.886 1181.26 153.691 1184.83 Q155.52 1188.37 159.131 1188.37 Q162.765 1188.37 164.571 1184.83 Q166.399 1181.26 166.399 1174.16 Q166.399 1167.03 164.571 1163.48 Q162.765 1159.92 159.131 1159.92 M159.131 1156.22 Q164.941 1156.22 167.997 1160.82 Q171.075 1165.41 171.075 1174.16 Q171.075 1182.88 167.997 1187.49 Q164.941 1192.07 159.131 1192.07 Q153.321 1192.07 150.242 1187.49 Q147.186 1182.88 147.186 1174.16 Q147.186 1165.41 150.242 1160.82 Q153.321 1156.22 159.131 1156.22 Z" fill="#000000" fill-rule="nonzero" fill-opacity="1" /><path clip-path="url(#clip460)" d="M189.293 1159.92 Q185.682 1159.92 183.853 1163.48 Q182.047 1167.03 182.047 1174.16 Q182.047 1181.26 183.853 1184.83 Q185.682 1188.37 189.293 1188.37 Q192.927 1188.37 194.733 1184.83 Q196.561 1181.26 196.561 1174.16 Q196.561 1167.03 194.733 1163.48 Q192.927 1159.92 189.293 1159.92 M189.293 1156.22 Q195.103 1156.22 198.158 1160.82 Q201.237 1165.41 201.237 1174.16 Q201.237 1182.88 198.158 1187.49 Q195.103 1192.07 189.293 1192.07 Q183.483 1192.07 180.404 1187.49 Q177.348 1182.88 177.348 1174.16 Q177.348 1165.41 180.404 1160.82 Q183.483 1156.22 189.293 1156.22 Z" fill="#000000" fill-rule="nonzero" fill-opacity="1" /><path clip-path="url(#clip460)" d="M209.038 1156.84 L213.714 1156.84 L213.714 1171.45 L229.223 1156.84 L235.242 1156.84 L218.089 1172.95 L236.468 1191.4 L230.311 1191.4 L213.714 1174.76 L213.714 1191.4 L209.038 1191.4 L209.038 1156.84 Z" fill="#000000" fill-rule="nonzero" fill-opacity="1" /><path clip-path="url(#clip460)" d="M133.136 916.64 Q136.492 917.357 138.367 919.626 Q140.265 921.894 140.265 925.228 Q140.265 930.343 136.747 933.144 Q133.228 935.945 126.747 935.945 Q124.571 935.945 122.256 935.505 Q119.964 935.089 117.511 934.232 L117.511 929.718 Q119.455 930.853 121.77 931.431 Q124.085 932.01 126.608 932.01 Q131.006 932.01 133.298 930.274 Q135.612 928.538 135.612 925.228 Q135.612 922.172 133.46 920.459 Q131.33 918.723 127.511 918.723 L123.483 918.723 L123.483 914.881 L127.696 914.881 Q131.145 914.881 132.974 913.515 Q134.802 912.126 134.802 909.533 Q134.802 906.871 132.904 905.459 Q131.029 904.024 127.511 904.024 Q125.589 904.024 123.39 904.441 Q121.191 904.857 118.552 905.737 L118.552 901.57 Q121.214 900.83 123.529 900.459 Q125.867 900.089 127.927 900.089 Q133.251 900.089 136.353 902.519 Q139.455 904.927 139.455 909.047 Q139.455 911.918 137.812 913.908 Q136.168 915.876 133.136 916.64 Z" fill="#000000" fill-rule="nonzero" fill-opacity="1" /><path clip-path="url(#clip460)" d="M159.131 903.793 Q155.52 903.793 153.691 907.357 Q151.886 910.899 151.886 918.029 Q151.886 925.135 153.691 928.7 Q155.52 932.242 159.131 932.242 Q162.765 932.242 164.571 928.7 Q166.399 925.135 166.399 918.029 Q166.399 910.899 164.571 907.357 Q162.765 903.793 159.131 903.793 M159.131 900.089 Q164.941 900.089 167.997 904.695 Q171.075 909.279 171.075 918.029 Q171.075 926.755 167.997 931.362 Q164.941 935.945 159.131 935.945 Q153.321 935.945 150.242 931.362 Q147.186 926.755 147.186 918.029 Q147.186 909.279 150.242 904.695 Q153.321 900.089 159.131 900.089 Z" fill="#000000" fill-rule="nonzero" fill-opacity="1" /><path clip-path="url(#clip460)" d="M189.293 903.793 Q185.682 903.793 183.853 907.357 Q182.047 910.899 182.047 918.029 Q182.047 925.135 183.853 928.7 Q185.682 932.242 189.293 932.242 Q192.927 932.242 194.733 928.7 Q196.561 925.135 196.561 918.029 Q196.561 910.899 194.733 907.357 Q192.927 903.793 189.293 903.793 M189.293 900.089 Q195.103 900.089 198.158 904.695 Q201.237 909.279 201.237 918.029 Q201.237 926.755 198.158 931.362 Q195.103 935.945 189.293 935.945 Q183.483 935.945 180.404 931.362 Q177.348 926.755 177.348 918.029 Q177.348 909.279 180.404 904.695 Q183.483 900.089 189.293 900.089 Z" fill="#000000" fill-rule="nonzero" fill-opacity="1" /><path clip-path="url(#clip460)" d="M209.038 900.714 L213.714 900.714 L213.714 915.32 L229.223 900.714 L235.242 900.714 L218.089 916.825 L236.468 935.274 L230.311 935.274 L213.714 918.631 L213.714 935.274 L209.038 935.274 L209.038 900.714 Z" fill="#000000" fill-rule="nonzero" fill-opacity="1" /><path clip-path="url(#clip460)" d="M131.816 648.661 L120.011 667.11 L131.816 667.11 L131.816 648.661 M130.589 644.587 L136.469 644.587 L136.469 667.11 L141.399 667.11 L141.399 670.999 L136.469 670.999 L136.469 679.147 L131.816 679.147 L131.816 670.999 L116.214 670.999 L116.214 666.485 L130.589 644.587 Z" fill="#000000" fill-rule="nonzero" fill-opacity="1" /><path clip-path="url(#clip460)" d="M159.131 647.666 Q155.52 647.666 153.691 651.23 Q151.886 654.772 151.886 661.902 Q151.886 669.008 153.691 672.573 Q155.52 676.114 159.131 676.114 Q162.765 676.114 164.571 672.573 Q166.399 669.008 166.399 661.902 Q166.399 654.772 164.571 651.23 Q162.765 647.666 159.131 647.666 M159.131 643.962 Q164.941 643.962 167.997 648.568 Q171.075 653.152 171.075 661.902 Q171.075 670.628 167.997 675.235 Q164.941 679.818 159.131 679.818 Q153.321 679.818 150.242 675.235 Q147.186 670.628 147.186 661.902 Q147.186 653.152 150.242 648.568 Q153.321 643.962 159.131 643.962 Z" fill="#000000" fill-rule="nonzero" fill-opacity="1" /><path clip-path="url(#clip460)" d="M189.293 647.666 Q185.682 647.666 183.853 651.23 Q182.047 654.772 182.047 661.902 Q182.047 669.008 183.853 672.573 Q185.682 676.114 189.293 676.114 Q192.927 676.114 194.733 672.573 Q196.561 669.008 196.561 661.902 Q196.561 654.772 194.733 651.23 Q192.927 647.666 189.293 647.666 M189.293 643.962 Q195.103 643.962 198.158 648.568 Q201.237 653.152 201.237 661.902 Q201.237 670.628 198.158 675.235 Q195.103 679.818 189.293 679.818 Q183.483 679.818 180.404 675.235 Q177.348 670.628 177.348 661.902 Q177.348 653.152 180.404 648.568 Q183.483 643.962 189.293 643.962 Z" fill="#000000" fill-rule="nonzero" fill-opacity="1" /><path clip-path="url(#clip460)" d="M209.038 644.587 L213.714 644.587 L213.714 659.193 L229.223 644.587 L235.242 644.587 L218.089 660.698 L236.468 679.147 L230.311 679.147 L213.714 662.503 L213.714 679.147 L209.038 679.147 L209.038 644.587 Z" fill="#000000" fill-rule="nonzero" fill-opacity="1" /><path clip-path="url(#clip460)" d="M119.015 388.46 L137.372 388.46 L137.372 392.395 L123.298 392.395 L123.298 400.867 Q124.316 400.52 125.335 400.358 Q126.353 400.173 127.372 400.173 Q133.159 400.173 136.538 403.344 Q139.918 406.515 139.918 411.932 Q139.918 417.51 136.446 420.612 Q132.974 423.691 126.654 423.691 Q124.478 423.691 122.21 423.321 Q119.964 422.95 117.557 422.21 L117.557 417.51 Q119.64 418.645 121.863 419.2 Q124.085 419.756 126.562 419.756 Q130.566 419.756 132.904 417.649 Q135.242 415.543 135.242 411.932 Q135.242 408.321 132.904 406.214 Q130.566 404.108 126.562 404.108 Q124.687 404.108 122.812 404.524 Q120.96 404.941 119.015 405.821 L119.015 388.46 Z" fill="#000000" fill-rule="nonzero" fill-opacity="1" /><path clip-path="url(#clip460)" d="M159.131 391.538 Q155.52 391.538 153.691 395.103 Q151.886 398.645 151.886 405.774 Q151.886 412.881 153.691 416.446 Q155.52 419.987 159.131 419.987 Q162.765 419.987 164.571 416.446 Q166.399 412.881 166.399 405.774 Q166.399 398.645 164.571 395.103 Q162.765 391.538 159.131 391.538 M159.131 387.835 Q164.941 387.835 167.997 392.441 Q171.075 397.024 171.075 405.774 Q171.075 414.501 167.997 419.108 Q164.941 423.691 159.131 423.691 Q153.321 423.691 150.242 419.108 Q147.186 414.501 147.186 405.774 Q147.186 397.024 150.242 392.441 Q153.321 387.835 159.131 387.835 Z" fill="#000000" fill-rule="nonzero" fill-opacity="1" /><path clip-path="url(#clip460)" d="M189.293 391.538 Q185.682 391.538 183.853 395.103 Q182.047 398.645 182.047 405.774 Q182.047 412.881 183.853 416.446 Q185.682 419.987 189.293 419.987 Q192.927 419.987 194.733 416.446 Q196.561 412.881 196.561 405.774 Q196.561 398.645 194.733 395.103 Q192.927 391.538 189.293 391.538 M189.293 387.835 Q195.103 387.835 198.158 392.441 Q201.237 397.024 201.237 405.774 Q201.237 414.501 198.158 419.108 Q195.103 423.691 189.293 423.691 Q183.483 423.691 180.404 419.108 Q177.348 414.501 177.348 405.774 Q177.348 397.024 180.404 392.441 Q183.483 387.835 189.293 387.835 Z" fill="#000000" fill-rule="nonzero" fill-opacity="1" /><path clip-path="url(#clip460)" d="M209.038 388.46 L213.714 388.46 L213.714 403.066 L229.223 388.46 L235.242 388.46 L218.089 404.571 L236.468 423.02 L230.311 423.02 L213.714 406.376 L213.714 423.02 L209.038 423.02 L209.038 388.46 Z" fill="#000000" fill-rule="nonzero" fill-opacity="1" /><path clip-path="url(#clip460)" d="M129.548 147.749 Q126.4 147.749 124.548 149.902 Q122.719 152.055 122.719 155.805 Q122.719 159.532 124.548 161.707 Q126.4 163.86 129.548 163.86 Q132.696 163.86 134.525 161.707 Q136.376 159.532 136.376 155.805 Q136.376 152.055 134.525 149.902 Q132.696 147.749 129.548 147.749 M138.83 133.096 L138.83 137.356 Q137.071 136.522 135.265 136.083 Q133.483 135.643 131.724 135.643 Q127.094 135.643 124.64 138.768 Q122.21 141.893 121.863 148.212 Q123.228 146.198 125.288 145.133 Q127.349 144.045 129.825 144.045 Q135.034 144.045 138.043 147.217 Q141.075 150.365 141.075 155.805 Q141.075 161.129 137.927 164.346 Q134.779 167.564 129.548 167.564 Q123.552 167.564 120.381 162.981 Q117.21 158.374 117.21 149.647 Q117.21 141.453 121.099 136.592 Q124.988 131.708 131.538 131.708 Q133.298 131.708 135.08 132.055 Q136.886 132.402 138.83 133.096 Z" fill="#000000" fill-rule="nonzero" fill-opacity="1" /><path clip-path="url(#clip460)" d="M159.131 135.411 Q155.52 135.411 153.691 138.976 Q151.886 142.518 151.886 149.647 Q151.886 156.754 153.691 160.319 Q155.52 163.86 159.131 163.86 Q162.765 163.86 164.571 160.319 Q166.399 156.754 166.399 149.647 Q166.399 142.518 164.571 138.976 Q162.765 135.411 159.131 135.411 M159.131 131.708 Q164.941 131.708 167.997 136.314 Q171.075 140.897 171.075 149.647 Q171.075 158.374 167.997 162.981 Q164.941 167.564 159.131 167.564 Q153.321 167.564 150.242 162.981 Q147.186 158.374 147.186 149.647 Q147.186 140.897 150.242 136.314 Q153.321 131.708 159.131 131.708 Z" fill="#000000" fill-rule="nonzero" fill-opacity="1" /><path clip-path="url(#clip460)" d="M189.293 135.411 Q185.682 135.411 183.853 138.976 Q182.047 142.518 182.047 149.647 Q182.047 156.754 183.853 160.319 Q185.682 163.86 189.293 163.86 Q192.927 163.86 194.733 160.319 Q196.561 156.754 196.561 149.647 Q196.561 142.518 194.733 138.976 Q192.927 135.411 189.293 135.411 M189.293 131.708 Q195.103 131.708 198.158 136.314 Q201.237 140.897 201.237 149.647 Q201.237 158.374 198.158 162.981 Q195.103 167.564 189.293 167.564 Q183.483 167.564 180.404 162.981 Q177.348 158.374 177.348 149.647 Q177.348 140.897 180.404 136.314 Q183.483 131.708 189.293 131.708 Z" fill="#000000" fill-rule="nonzero" fill-opacity="1" /><path clip-path="url(#clip460)" d="M209.038 132.333 L213.714 132.333 L213.714 146.939 L229.223 132.333 L235.242 132.333 L218.089 148.444 L236.468 166.893 L230.311 166.893 L213.714 150.249 L213.714 166.893 L209.038 166.893 L209.038 132.333 Z" fill="#000000" fill-rule="nonzero" fill-opacity="1" /><path clip-path="url(#clip460)" d="M25.9905 1107.74 L25.9905 1101.88 L61.6384 1101.88 L61.6384 1107.74 L25.9905 1107.74 M12.1132 1107.74 L12.1132 1101.88 L19.5293 1101.88 L19.5293 1107.74 L12.1132 1107.74 Z" fill="#000000" fill-rule="nonzero" fill-opacity="1" /><path clip-path="url(#clip460)" d="M40.1224 1059.99 L61.6384 1059.99 L61.6384 1065.85 L40.3133 1065.85 Q35.2526 1065.85 32.7381 1067.82 Q30.2237 1069.8 30.2237 1073.74 Q30.2237 1078.48 33.2474 1081.22 Q36.2711 1083.96 41.491 1083.96 L61.6384 1083.96 L61.6384 1089.85 L25.9905 1089.85 L25.9905 1083.96 L31.5287 1083.96 Q28.314 1081.86 26.7225 1079.03 Q25.1311 1076.16 25.1311 1072.44 Q25.1311 1066.29 28.9505 1063.14 Q32.7381 1059.99 40.1224 1059.99 Z" fill="#000000" fill-rule="nonzero" fill-opacity="1" /><path clip-path="url(#clip460)" d="M12.1132 1030.26 L16.983 1030.26 L16.983 1035.87 Q16.983 1039.02 18.2562 1040.26 Q19.5293 1041.47 22.8395 1041.47 L25.9905 1041.47 L25.9905 1031.82 L30.542 1031.82 L30.542 1041.47 L61.6384 1041.47 L61.6384 1047.36 L30.542 1047.36 L30.542 1052.96 L25.9905 1052.96 L25.9905 1047.36 L23.5079 1047.36 Q17.5559 1047.36 14.8505 1044.59 Q12.1132 1041.82 12.1132 1035.8 L12.1132 1030.26 Z" fill="#000000" fill-rule="nonzero" fill-opacity="1" /><path clip-path="url(#clip460)" d="M42.3504 994.871 L45.2149 994.871 L45.2149 1021.8 Q51.2623 1021.42 54.4452 1018.17 Q57.5962 1014.89 57.5962 1009.07 Q57.5962 1005.69 56.7687 1002.54 Q55.9411 999.359 54.2861 996.24 L59.8242 996.24 Q61.161 999.391 61.8612 1002.7 Q62.5615 1006.01 62.5615 1009.42 Q62.5615 1017.95 57.5962 1022.94 Q52.631 1027.91 44.1646 1027.91 Q35.4117 1027.91 30.2873 1023.2 Q25.1311 1018.46 25.1311 1010.44 Q25.1311 1003.24 29.7781 999.073 Q34.3932 994.871 42.3504 994.871 M40.6316 1000.73 Q35.8255 1000.79 32.9609 1003.43 Q30.0964 1006.04 30.0964 1010.37 Q30.0964 1015.27 32.8654 1018.23 Q35.6345 1021.16 40.6634 1021.61 L40.6316 1000.73 Z" fill="#000000" fill-rule="nonzero" fill-opacity="1" /><path clip-path="url(#clip460)" d="M27.3591 959.605 L32.8336 959.605 Q31.465 962.088 30.7966 964.602 Q30.0964 967.085 30.0964 969.631 Q30.0964 975.329 33.7248 978.48 Q37.3214 981.631 43.8463 981.631 Q50.3711 981.631 53.9996 978.48 Q57.5962 975.329 57.5962 969.631 Q57.5962 967.085 56.9278 964.602 Q56.2276 962.088 54.859 959.605 L60.2698 959.605 Q61.4156 962.056 61.9886 964.698 Q62.5615 967.308 62.5615 970.268 Q62.5615 978.32 57.5007 983.063 Q52.44 987.805 43.8463 987.805 Q35.1253 987.805 30.1282 983.031 Q25.1311 978.225 25.1311 969.886 Q25.1311 967.18 25.704 964.602 Q26.2451 962.024 27.3591 959.605 Z" fill="#000000" fill-rule="nonzero" fill-opacity="1" /><path clip-path="url(#clip460)" d="M15.869 943.627 L25.9905 943.627 L25.9905 931.564 L30.542 931.564 L30.542 943.627 L49.8937 943.627 Q54.2542 943.627 55.4955 942.45 Q56.7368 941.24 56.7368 937.58 L56.7368 931.564 L61.6384 931.564 L61.6384 937.58 Q61.6384 944.359 59.124 946.937 Q56.5777 949.516 49.8937 949.516 L30.542 949.516 L30.542 953.812 L25.9905 953.812 L25.9905 949.516 L15.869 949.516 L15.869 943.627 Z" fill="#000000" fill-rule="nonzero" fill-opacity="1" /><path clip-path="url(#clip460)" d="M42.3504 893.37 L45.2149 893.37 L45.2149 920.297 Q51.2623 919.915 54.4452 916.669 Q57.5962 913.39 57.5962 907.566 Q57.5962 904.192 56.7687 901.041 Q55.9411 897.858 54.2861 894.739 L59.8242 894.739 Q61.161 897.89 61.8612 901.2 Q62.5615 904.51 62.5615 907.916 Q62.5615 916.446 57.5962 921.443 Q52.631 926.408 44.1646 926.408 Q35.4117 926.408 30.2873 921.697 Q25.1311 916.955 25.1311 908.934 Q25.1311 901.741 29.7781 897.571 Q34.3932 893.37 42.3504 893.37 M40.6316 899.227 Q35.8255 899.29 32.9609 901.932 Q30.0964 904.542 30.0964 908.871 Q30.0964 913.772 32.8654 916.732 Q35.6345 919.66 40.6634 920.106 L40.6316 899.227 Z" fill="#000000" fill-rule="nonzero" fill-opacity="1" /><path clip-path="url(#clip460)" d="M31.4013 860.3 L12.1132 860.3 L12.1132 854.444 L61.6384 854.444 L61.6384 860.3 L56.2912 860.3 Q59.4741 862.146 61.0337 864.979 Q62.5615 867.78 62.5615 871.727 Q62.5615 878.188 57.4052 882.262 Q52.249 886.304 43.8463 886.304 Q35.4436 886.304 30.2873 882.262 Q25.1311 878.188 25.1311 871.727 Q25.1311 867.78 26.6907 864.979 Q28.2185 862.146 31.4013 860.3 M43.8463 880.257 Q50.3075 880.257 53.9996 877.615 Q57.6599 874.941 57.6599 870.294 Q57.6599 865.647 53.9996 862.974 Q50.3075 860.3 43.8463 860.3 Q37.3851 860.3 33.7248 862.974 Q30.0327 865.647 30.0327 870.294 Q30.0327 874.941 33.7248 877.615 Q37.3851 880.257 43.8463 880.257 Z" fill="#000000" fill-rule="nonzero" fill-opacity="1" /><path clip-path="url(#clip460)" d="M31.4013 798.203 L12.1132 798.203 L12.1132 792.346 L61.6384 792.346 L61.6384 798.203 L56.2912 798.203 Q59.4741 800.049 61.0337 802.882 Q62.5615 805.682 62.5615 809.629 Q62.5615 816.09 57.4052 820.164 Q52.249 824.207 43.8463 824.207 Q35.4436 824.207 30.2873 820.164 Q25.1311 816.09 25.1311 809.629 Q25.1311 805.682 26.6907 802.882 Q28.2185 800.049 31.4013 798.203 M43.8463 818.159 Q50.3075 818.159 53.9996 815.517 Q57.6599 812.844 57.6599 808.197 Q57.6599 803.55 53.9996 800.876 Q50.3075 798.203 43.8463 798.203 Q37.3851 798.203 33.7248 800.876 Q30.0327 803.55 30.0327 808.197 Q30.0327 812.844 33.7248 815.517 Q37.3851 818.159 43.8463 818.159 Z" fill="#000000" fill-rule="nonzero" fill-opacity="1" /><path clip-path="url(#clip460)" d="M43.719 764.083 Q43.719 771.18 45.3422 773.918 Q46.9655 776.655 50.8804 776.655 Q53.9996 776.655 55.8457 774.618 Q57.6599 772.549 57.6599 769.016 Q57.6599 764.146 54.2224 761.218 Q50.7531 758.258 45.0239 758.258 L43.719 758.258 L43.719 764.083 M41.3 752.401 L61.6384 752.401 L61.6384 758.258 L56.2276 758.258 Q59.4741 760.263 61.0337 763.255 Q62.5615 766.247 62.5615 770.576 Q62.5615 776.05 59.5059 779.297 Q56.4186 782.511 51.2623 782.511 Q45.2467 782.511 42.1912 778.501 Q39.1357 774.459 39.1357 766.47 L39.1357 758.258 L38.5628 758.258 Q34.5205 758.258 32.3244 760.932 Q30.0964 763.573 30.0964 768.379 Q30.0964 771.435 30.8284 774.331 Q31.5605 777.228 33.0246 779.901 L27.6137 779.901 Q26.3724 776.687 25.7677 773.663 Q25.1311 770.639 25.1311 767.775 Q25.1311 760.04 29.1415 756.221 Q33.1519 752.401 41.3 752.401 Z" fill="#000000" fill-rule="nonzero" fill-opacity="1" /><path clip-path="url(#clip460)" d="M25.9905 740.338 L25.9905 734.482 L61.6384 734.482 L61.6384 740.338 L25.9905 740.338 M12.1132 740.338 L12.1132 734.482 L19.5293 734.482 L19.5293 740.338 L12.1132 740.338 Z" fill="#000000" fill-rule="nonzero" fill-opacity="1" /><path clip-path="url(#clip460)" d="M12.1132 722.228 L12.1132 716.372 L61.6384 716.372 L61.6384 722.228 L12.1132 722.228 Z" fill="#000000" fill-rule="nonzero" fill-opacity="1" /><path clip-path="url(#clip460)" d="M64.9486 689.285 Q71.3143 691.768 73.2559 694.123 Q75.1974 696.479 75.1974 700.425 L75.1974 705.104 L70.2958 705.104 L70.2958 701.667 Q70.2958 699.248 69.15 697.911 Q68.0041 696.574 63.7391 694.951 L61.0655 693.901 L25.9905 708.319 L25.9905 702.112 L53.8723 690.972 L25.9905 679.832 L25.9905 673.626 L64.9486 689.285 Z" fill="#000000" fill-rule="nonzero" fill-opacity="1" /><polyline clip-path="url(#clip462)" style="stroke:#009af9; stroke-linecap:round; stroke-linejoin:round; stroke-width:4; stroke-opacity:1; fill:none" points="343.693,1686.38 345.559,1686.38 347.426,1686.38 349.292,1686.38 351.158,1686.38 353.024,1686.38 354.891,1686.38 356.757,1686.38 358.623,1686.38 360.489,1686.38 362.356,1686.38 364.222,1686.38 366.088,1686.38 367.954,1686.38 369.821,1686.38 371.687,1686.38 373.553,1686.37 375.419,1686.38 377.286,1686.38 379.152,1686.38 381.018,1686.38 382.884,1686.37 384.75,1686.38 386.617,1686.37 388.483,1686.37 390.349,1686.38 392.215,1686.38 394.082,1686.37 395.948,1686.37 397.814,1686.37 399.68,1686.37 401.547,1686.38 403.413,1686.37 405.279,1686.36 407.145,1686.37 409.012,1686.38 410.878,1686.38 412.744,1686.37 414.61,1686.37 416.477,1686.38 418.343,1686.38 420.209,1686.38 422.075,1686.38 423.942,1686.38 425.808,1686.37 427.674,1686.38 429.54,1686.37 431.406,1686.29 433.273,1686.33 435.139,1686.19 437.005,1685.89 438.871,1685.84 440.738,1685.85 442.604,1686.04 444.47,1685.73 446.336,1685.23 448.203,1685.28 450.069,1684.05 451.935,1684.85 453.801,1684.62 455.668,1684.84 457.534,1685.05 459.4,1685.25 461.266,1685.05 463.133,1685.14 464.999,1685.44 466.865,1685.74 468.731,1686.04 470.598,1685.76 472.464,1686.08 474.33,1686.09 476.196,1686.1 478.063,1686.18 479.929,1686.19 481.795,1686.16 483.661,1686.14 485.527,1685.99 487.394,1686.15 489.26,1686 491.126,1686.12 492.992,1686.21 494.859,1686.18 496.725,1686.12 498.591,1686.11 500.457,1686.14 502.324,1686 504.19,1686.11 506.056,1686.18 507.922,1686.06 509.789,1686.12 511.655,1686.15 513.521,1686.16 515.387,1686.13 517.254,1686.17 519.12,1686.25 520.986,1686.25 522.852,1686.24 524.719,1686.28 526.585,1686.31 528.451,1686.3 530.317,1686.29 532.184,1686.31 534.05,1686.31 535.916,1686.31 537.782,1686.32 539.648,1686.32 541.515,1686.33 543.381,1686.35 545.247,1686.34 547.113,1686.35 548.98,1686.35 550.846,1686.35 552.712,1686.36 554.578,1686.35 556.445,1686.35 558.311,1686.35 560.177,1686.34 562.043,1686.35 563.91,1686.37 565.776,1686.35 567.642,1686.36 569.508,1686.34 571.375,1686.35 573.241,1686.37 575.107,1686.37 576.973,1686.37 578.84,1686.34 580.706,1686.33 582.572,1686.29 584.438,1686.29 586.304,1686.31 588.171,1686.31 590.037,1686.3 591.903,1686.31 593.769,1686.33 595.636,1686.34 597.502,1686.34 599.368,1686.34 601.234,1686.29 603.101,1686.34 604.967,1686.32 606.833,1686.32 608.699,1686.31 610.566,1686.33 612.432,1686.33 614.298,1686.27 616.164,1686.17 618.031,1686.23 619.897,1686.28 621.763,1686.31 623.629,1686.29 625.496,1686.28 627.362,1686.25 629.228,1686.28 631.094,1686.28 632.961,1686.24 634.827,1686.23 636.693,1686.28 638.559,1686.28 640.425,1686.25 642.292,1686.26 644.158,1686.23 646.024,1686.25 647.89,1686.29 649.757,1686.28 651.623,1686.29 653.489,1686.27 655.355,1686.22 657.222,1686.25 659.088,1686.2 660.954,1686.25 662.82,1686.33 664.687,1686.26 666.553,1686.24 668.419,1686.3 670.285,1686.28 672.152,1686.24 674.018,1686.22 675.884,1686.27 677.75,1686.27 679.617,1686.24 681.483,1686.24 683.349,1686.22 685.215,1686.21 687.082,1686.22 688.948,1686.25 690.814,1686.26 692.68,1686.22 694.546,1686.25 696.413,1686.26 698.279,1686.29 700.145,1686.26 702.011,1686.22 703.878,1686.29 705.744,1686.28 707.61,1686.22 709.476,1686.22 711.343,1686.28 713.209,1686.29 715.075,1686.31 716.941,1686.26 718.808,1686.21 720.674,1686.22 722.54,1686.27 724.406,1686.09 726.273,1686.23 728.139,1686.31 730.005,1686.3 731.871,1686.25 733.738,1686.33 735.604,1686.28 737.47,1686.3 739.336,1686.3 741.203,1686.32 743.069,1686.29 744.935,1686.29 746.801,1686.27 748.667,1686.32 750.534,1686.27 752.4,1686.28 754.266,1686.3 756.132,1686.29 757.999,1686.24 759.865,1686.23 761.731,1686.11 763.597,1685.95 765.464,1685.66 767.33,1685.87 769.196,1685.75 771.062,1685.61 772.929,1685.64 774.795,1685.55 776.661,1685.52 778.527,1685.36 780.394,1685.69 782.26,1685.66 784.126,1685.56 785.992,1685.25 787.859,1685.43 789.725,1685.55 791.591,1685.61 793.457,1685.74 795.323,1685.77 797.19,1685.69 799.056,1685.88 800.922,1685.87 802.788,1685.95 804.655,1685.95 806.521,1686.07 808.387,1686.03 810.253,1685.98 812.12,1685.98 813.986,1685.92 815.852,1686.03 817.718,1686.07 819.585,1686.1 821.451,1686.1 823.317,1686.09 825.183,1685.98 827.05,1686.05 828.916,1686.09 830.782,1686.17 832.648,1686.2 834.515,1686.22 836.381,1686.09 838.247,1686.06 840.113,1686.08 841.98,1686.22 843.846,1686.13 845.712,1686.25 847.578,1686.28 849.444,1686.09 851.311,1686.18 853.177,1686.21 855.043,1686.18 856.909,1686.21 858.776,1686.19 860.642,1686.18 862.508,1686.08 864.374,1686.2 866.241,1686.24 868.107,1686.19 869.973,1686.23 871.839,1686.13 873.706,1686.11 875.572,1686.19 877.438,1686.09 879.304,1686.25 881.171,1686.19 883.037,1686.14 884.903,1686.18 886.769,1686.23 888.636,1686.15 890.502,1686.07 892.368,1685.98 894.234,1686.18 896.101,1686.22 897.967,1686.07 899.833,1686.15 901.699,1686.11 903.565,1686.06 905.432,1686.09 907.298,1686.05 909.164,1686.06 911.03,1686.13 912.897,1686.18 914.763,1686.08 916.629,1686.06 918.495,1686 920.362,1686.15 922.228,1686.01 924.094,1686.05 925.96,1686.12 927.827,1686 929.693,1686.01 931.559,1685.89 933.425,1685.85 935.292,1685.84 937.158,1685.81 939.024,1685.79 940.89,1685.65 942.757,1685.54 944.623,1685.48 946.489,1685.39 948.355,1685.53 950.221,1685.68 952.088,1685.48 953.954,1685.4 955.82,1684.89 957.686,1684.95 959.553,1685.09 961.419,1685.22 963.285,1685.25 965.151,1685.22 967.018,1685.07 968.884,1684.99 970.75,1684.77 972.616,1684.9 974.483,1684.76 976.349,1684.8 978.215,1684.87 980.081,1684.66 981.948,1684.63 983.814,1684.61 985.68,1683.94 987.546,1683.74 989.413,1684.54 991.279,1684.12 993.145,1683.61 995.011,1683.78 996.878,1683.65 998.744,1683.7 1000.61,1683.57 1002.48,1684.01 1004.34,1684.16 1006.21,1683.58 1008.07,1683.85 1009.94,1683.21 1011.81,1683.48 1013.67,1683.89 1015.54,1684.31 1017.41,1683.7 1019.27,1683.69 1021.14,1683.9 1023,1683.74 1024.87,1684.26 1026.74,1684.69 1028.6,1683.76 1030.47,1684.55 1032.34,1684.23 1034.2,1684.15 1036.07,1684.65 1037.93,1684.73 1039.8,1684.69 1041.67,1685.22 1043.53,1685 1045.4,1684.94 1047.27,1685.03 1049.13,1685.06 1051,1684.89 1052.86,1685.04 1054.73,1685.38 1056.6,1685.39 1058.46,1685.34 1060.33,1685.35 1062.2,1685.49 1064.06,1685.27 1065.93,1685.37 1067.79,1685.26 1069.66,1685.48 1071.53,1684.94 1073.39,1685.1 1075.26,1685.17 1077.13,1685.21 1078.99,1685.47 1080.86,1685.59 1082.72,1685.51 1084.59,1685.18 1086.46,1685.22 1088.32,1685.43 1090.19,1685.38 1092.06,1685.43 1093.92,1685.64 1095.79,1685.6 1097.65,1685.24 1099.52,1685.08 1101.39,1685.34 1103.25,1685.45 1105.12,1685.54 1106.99,1685.5 1108.85,1685.2 1110.72,1684.78 1112.58,1684.78 1114.45,1684.94 1116.32,1685.23 1118.18,1685.31 1120.05,1685.52 1121.92,1685.46 1123.78,1685.25 1125.65,1685.36 1127.51,1685.38 1129.38,1685.31 1131.25,1685.47 1133.11,1685.47 1134.98,1685.49 1136.85,1685.24 1138.71,1685.29 1140.58,1685.36 1142.44,1685.3 1144.31,1685.31 1146.18,1685.49 1148.04,1685.23 1149.91,1685.17 1151.78,1685.18 1153.64,1685.13 1155.51,1685.12 1157.37,1685.2 1159.24,1685.4 1161.11,1685.45 1162.97,1685.17 1164.84,1685.24 1166.71,1685.19 1168.57,1685.23 1170.44,1685.21 1172.3,1685.31 1174.17,1685.49 1176.04,1685.28 1177.9,1685.27 1179.77,1685.12 1181.64,1685.08 1183.5,1685.14 1185.37,1685.4 1187.23,1685.23 1189.1,1685.08 1190.97,1684.96 1192.83,1684.95 1194.7,1684.98 1196.57,1684.98 1198.43,1685.16 1200.3,1685.15 1202.16,1684.66 1204.03,1684.58 1205.9,1684.66 1207.76,1684.64 1209.63,1684.8 1211.5,1684.87 1213.36,1684.99 1215.23,1684.5 1217.09,1684.59 1218.96,1684.65 1220.83,1684.69 1222.69,1684.66 1224.56,1685.01 1226.43,1684.97 1228.29,1684.5 1230.16,1684.49 1232.02,1684.33 1233.89,1684.39 1235.76,1684.73 1237.62,1685.1 1239.49,1685.06 1241.36,1684.41 1243.22,1684.64 1245.09,1684.68 1246.95,1684.77 1248.82,1684.82 1250.69,1685.13 1252.55,1684.99 1254.42,1684.64 1256.29,1684.91 1258.15,1685.03 1260.02,1684.58 1261.88,1684.93 1263.75,1685.19 1265.62,1685.07 1267.48,1684.75 1269.35,1684.54 1271.21,1684.46 1273.08,1684.63 1274.95,1684.81 1276.81,1684.79 1278.68,1685.02 1280.55,1684.7 1282.41,1684.72 1284.28,1684.94 1286.14,1684.67 1288.01,1684.88 1289.88,1685 1291.74,1685.05 1293.61,1684.57 1295.48,1684.76 1297.34,1684.87 1299.21,1685.01 1301.07,1685.15 1302.94,1685.27 1304.81,1685.2 1306.67,1684.64 1308.54,1684.63 1310.41,1684.6 1312.27,1684.47 1314.14,1684.95 1316,1685.13 1317.87,1685.21 1319.74,1684.83 1321.6,1684.81 1323.47,1684.95 1325.34,1684.93 1327.2,1685.22 1329.07,1685.35 1330.93,1685.42 1332.8,1684.98 1334.67,1684.99 1336.53,1685.08 1338.4,1685.14 1340.27,1685.28 1342.13,1685.46 1344,1685.37 1345.86,1684.72 1347.73,1684.81 1349.6,1684.75 1351.46,1684.66 1353.33,1684.8 1355.2,1685.09 1357.06,1684.85 1358.93,1684.34 1360.79,1684.43 1362.66,1684.26 1364.53,1684.34 1366.39,1684.47 1368.26,1684.55 1370.13,1684.46 1371.99,1683.27 1373.86,1683.11 1375.72,1683 1377.59,1682.85 1379.46,1682.98 1381.32,1683.56 1383.19,1683.43 1385.06,1682.24 1386.92,1682.28 1388.79,1682.44 1390.65,1682.65 1392.52,1682.66 1394.39,1683.17 1396.25,1683.1 1398.12,1681.82 1399.99,1681.66 1401.85,1682.2 1403.72,1682.2 1405.58,1682.57 1407.45,1683 1409.32,1682.88 1411.18,1681.52 1413.05,1682.1 1414.92,1682 1416.78,1682.43 1418.65,1682.69 1420.51,1683.26 1422.38,1683.3 1424.25,1681.96 1426.11,1681.83 1427.98,1682.01 1429.85,1681.71 1431.71,1681.95 1433.58,1682.56 1435.44,1682.44 1437.31,1680.68 1439.18,1681.29 1441.04,1681.28 1442.91,1681.44 1444.78,1681.73 1446.64,1682.39 1448.51,1682.86 1450.37,1681.75 1452.24,1680.87 1454.11,1681.12 1455.97,1681.56 1457.84,1682.21 1459.71,1682.75 1461.57,1682.51 1463.44,1680.87 1465.3,1681.55 1467.17,1681.67 1469.04,1681.78 1470.9,1682.23 1472.77,1682.57 1474.64,1682.86 1476.5,1681.2 1478.37,1681.35 1480.23,1682 1482.1,1681.76 1483.97,1682.56 1485.83,1682.86 1487.7,1682.29 1489.57,1681.13 1491.43,1681.13 1493.3,1681.53 1495.16,1681.6 1497.03,1681.88 1498.9,1682.71 1500.76,1682.54 1502.63,1681.05 1504.5,1681.4 1506.36,1681.23 1508.23,1681.04 1510.09,1681.49 1511.96,1682.27 1513.83,1681.95 1515.69,1681.97 1517.56,1681.98 1519.42,1680.14 1521.29,1678 1523.16,1679.28 1525.02,1680.27 1526.89,1680.52 1528.76,1678.99 1530.62,1679.81 1532.49,1680.01 1534.35,1680.62 1536.22,1681.04 1538.09,1682.09 1539.95,1682.34 1541.82,1681.19 1543.69,1680.17 1545.55,1680.8 1547.42,1681.38 1549.28,1682.29 1551.15,1683.05 1553.02,1682.94 1554.88,1682.33 1556.75,1681.41 1558.62,1682.06 1560.48,1682.23 1562.35,1682.75 1564.21,1683.69 1566.08,1683.63 1567.95,1682.35 1569.81,1682.68 1571.68,1682.69 1573.55,1682.52 1575.41,1682.73 1577.28,1683.33 1579.14,1683.14 1581.01,1681.39 1582.88,1680.97 1584.74,1680.94 1586.61,1680.99 1588.48,1681.1 1590.34,1682.06 1592.21,1682.31 1594.07,1679.55 1595.94,1680.02 1597.81,1680.37 1599.67,1680.62 1601.54,1680.68 1603.41,1681.87 1605.27,1681.99 1607.14,1680.16 1609,1679.92 1610.87,1680.31 1612.74,1680.19 1614.6,1680.42 1616.47,1681.24 1618.34,1680.93 1620.2,1678.23 1622.07,1677.94 1623.93,1678.6 1625.8,1678.16 1627.67,1678.38 1629.53,1679.14 1631.4,1679.46 1633.27,1675.84 1635.13,1676.29 1637,1676.38 1638.86,1675.96 1640.73,1676.33 1642.6,1677.91 1644.46,1678.62 1646.33,1673.26 1648.2,1672.89 1650.06,1673.71 1651.93,1672.67 1653.79,1673.24 1655.66,1675.3 1657.53,1673.69 1659.39,1668 1661.26,1668.19 1663.13,1668.39 1664.99,1668.51 1666.86,1669.24 1668.72,1671.48 1670.59,1672.13 1672.46,1666.27 1674.32,1666.86 1676.19,1667.33 1678.06,1667.65 1679.92,1670.41 1681.79,1672.76 1683.65,1673.07 1685.52,1667.29 1687.39,1668.66 1689.25,1670.43 1691.12,1671.41 1692.99,1672.5 1694.85,1675.61 1696.72,1676.48 1698.58,1672.54 1700.45,1673.48 1702.32,1673.9 1704.18,1675.07 1706.05,1676.57 1707.92,1678.37 1709.78,1678.63 1711.65,1675 1713.51,1675.81 1715.38,1676.86 1717.25,1677.39 1719.11,1677.75 1720.98,1678.68 1722.85,1678.45 1724.71,1675.15 1726.58,1675.72 1728.44,1674.74 1730.31,1675.07 1732.18,1675.64 1734.04,1676.5 1735.91,1675.96 1737.78,1671.51 1739.64,1669.47 1741.51,1669.04 1743.37,1668.44 1745.24,1666.84 1747.11,1667.15 1748.97,1664.44 1750.84,1653.06 1752.71,1649.22 1754.57,1645.15 1756.44,1641.49 1758.3,1641.5 1760.17,1642.64 1762.04,1639.4 1763.9,1634.47 1765.77,1627.71 1767.64,1616.1 1769.5,1593.28 1771.37,1587.31 1773.23,1596 1775.1,1592.35 1776.97,1559.42 1778.83,1547.75 1780.7,1548.26 1782.56,1545.73 1784.43,1541.85 1786.3,1546.49 1788.16,1539.96 1790.03,1454.75 1791.9,1447.84 1793.76,1405.09 1795.63,1424.59 1797.49,1417.92 1799.36,1442.19 1801.23,1431.35 1803.09,1247.27 1804.96,1250.92 1806.83,1261.49 1808.69,1260.7 1810.56,1267.47 1812.42,1328.76 1814.29,1330.39 1816.16,1124.84 1818.02,1177.23 1819.89,1002.89 1821.76,1035.02 1823.62,1062.39 1825.49,1146.69 1827.35,1167.2 1829.22,809.322 1831.09,847.462 1832.95,961.605 1834.82,703.741 1836.69,789.498 1838.55,892.945 1840.42,758.37 1842.28,659.997 1844.15,94.9858 1846.02,643.894 1847.88,709.688 1849.75,829.097 1851.62,1151.29 1853.48,780.182 1855.35,429.119 1857.21,673.444 1859.08,816.788 1860.95,827.123 1862.81,871.558 1864.68,1207.33 1866.55,796.485 1868.41,598.929 1870.28,865.086 1872.14,968.52 1874.01,1009.95 1875.88,1086.27 1877.74,1360.97 1879.61,1004.86 1881.48,953.25 1883.34,1110.66 1885.21,1160.46 1887.07,1211.27 1888.94,1265.09 1890.81,1453.69 1892.67,1146.7 1894.54,1185.92 1896.41,1306.27 1898.27,1364.05 1900.14,1410.06 1902,1448.17 1903.87,1564.24 1905.74,1382.95 1907.6,1401.36 1909.47,1453.76 1911.34,1478.76 1913.2,1493.22 1915.07,1520.6 1916.93,1598.5 1918.8,1480.62 1920.67,1489.77 1922.53,1539.24 1924.4,1556.92 1926.27,1575.51 1928.13,1589.63 1930,1635.22 1931.86,1555.48 1933.73,1560.76 1935.6,1578.04 1937.46,1617.95 1939.33,1585.07 1941.2,1583.76 1943.06,1633.71 1944.93,1558.55 1946.79,1573.93 1948.66,1594.52 1950.53,1603.26 1952.39,1610.71 1954.26,1621.23 1956.13,1652.44 1957.99,1596.53 1959.86,1606.14 1961.72,1614.37 1963.59,1622.07 1965.46,1626.28 1967.32,1636.95 1969.19,1660.91 1971.06,1618.95 1972.92,1625.07 1974.79,1638.23 1976.65,1643.9 1978.52,1649.54 1980.39,1653.96 1982.25,1670.69 1984.12,1642.4 1985.99,1645.91 1987.85,1661.08 1989.72,1654.33 1991.58,1655.52 1993.45,1661.19 1995.32,1673.51 1997.18,1670.66 1999.05,1652.2 2000.92,1655.26 2002.78,1662.52 2004.65,1664.79 2006.51,1667.47 2008.38,1676.6 2010.25,1661.36 2012.11,1662.25 2013.98,1665.93 2015.85,1667.94 2017.71,1668.85 2019.58,1670.84 2021.44,1677.38 2023.31,1662.59 2025.18,1663.49 2027.04,1667.22 2028.91,1667.86 2030.78,1669.01 2032.64,1670.38 2034.51,1677.66 2036.37,1661.1 2038.24,1659.6 2040.11,1661.83 2041.97,1661.97 2043.84,1658.98 2045.7,1660.61 2047.57,1670.4 2049.44,1639.92 2051.3,1636.78 2053.17,1639 2055.04,1636.88 2056.9,1634.48 2058.77,1634.1 2060.63,1653.96 2062.5,1590.73 2064.37,1583.31 2066.23,1586.03 2068.1,1586.88 2069.97,1580.57 2071.83,1583.05 2073.7,1619.13 2075.56,1497.97 2077.43,1490.85 2079.3,1504.23 2081.16,1510.59 2083.03,1510.87 2084.9,1518.78 2086.76,1594.62 2088.63,1432.24 2090.49,1429.74 2092.36,1460.12 2094.23,1467.85 2096.09,1476.49 2097.96,1497.89 2099.83,1572.14 2101.69,1400.2 2103.56,1379.34 2105.42,1410.14 2107.29,1397.21 2109.16,1403.07 2111.02,1416.14 2112.89,1544.96 2114.76,1302.6 2116.62,1297.71 2118.49,1334.97 2120.35,1356.7 2122.22,1367.46 2124.09,1380.04 2125.95,1527.38 2127.82,1471.29 2129.69,1223.53 2131.55,1229.18 2133.42,1330.84 2135.28,1355.07 2137.15,1402.22 2139.02,1535.55 2140.88,1301.97 2142.75,1329.72 2144.62,1396.2 2146.48,1427.33 2148.35,1441.68 2150.21,1467.91 2152.08,1576.18 2153.95,1390.3 2155.81,1420.29 2157.68,1477.59 2159.55,1456.92 2161.41,1482.44 2163.28,1501.59 2165.14,1590.46 2167.01,1430.81 2168.88,1467.4 2170.74,1500.36 2172.61,1508.6 2174.48,1576.95 2176.34,1614.11 2178.21,1591.77 2180.07,1539.59 2181.94,1445.96 2183.81,1503.43 2185.67,1553.51 2187.54,1575.07 2189.41,1597.48 2191.27,1636.8 2193.14,1458.14 2195,1601.9 2196.87,1611.82 2198.74,1611.29 2200.6,1620.31 2202.47,1650.24 2204.34,1585.48 2206.2,1593.85 2208.07,1607.36 2209.93,1613.39 2211.8,1617.44 2213.67,1625.94 2215.53,1655.26 2217.4,1644.39 2219.27,1597.51 2221.13,1613.1 2223,1629.26 2224.86,1636.74 2226.73,1641.16 2228.6,1663.37 2230.46,1646.82 2232.33,1608.24 2234.2,1617.38 2236.06,1625.97 2237.93,1628.09 2239.79,1631.39 2241.66,1658.25 2243.53,1601.27 2245.39,1610.97 2247.26,1621.35 2249.13,1622.98 2250.99,1617.67 2252.86,1619.13 2254.72,1649.86 2256.59,1574.39 2258.46,1581.86 2260.32,1596.86 2262.19,1594.43 2264.06,1590.79 2265.92,1597.98 2267.79,1638.97 2269.65,1536.97 2271.52,1546.17 2273.39,1566.33 2275.25,1575.09 2277.12,1581.71 2278.99,1592.44 2280.85,1638.55 2282.72,1526.88 2284.58,1526.37 2286.45,1544.57 2288.32,1546.74 2290.18,1547.23 2292.05,1562.51 2293.92,1625.51 2295.78,1499.7 2297.65,1515.83 2299.51,1544.39 2301.38,1559.8 2303.25,1557.2 2305.11,1568.53 2306.98,1627.23 2308.84,1499.73 2310.71,1506.26 2312.58,1535.03 2314.44,1548.84 2316.31,1551.53 2318.18,1565.92 2320.04,1629.19 2321.91,1503.31 2323.77,1513.71 2325.64,1540.18 2327.51,1550.66 2329.37,1551.33 2331.24,1567.11 2333.11,1627.06 2334.97,1487.61 2336.84,1495.01 2338.7,1519.24 2340.57,1526.03 2342.44,1525.69 2344.3,1547.25 2346.17,1620.64 2348.04,1463.92 2349.9,1469.77 2351.77,1506.69 2353.63,1514.89 2355.5,1515.41 2357.37,1535.61 2359.23,1618.19 2361.1,1462.11 2362.97,1460.54 2364.83,1492.37 2366.7,1511.78 2368.56,1517.21 2370.43,1536.67 2372.3,1620.95 2374.16,1462.39 2376.03,1462.27 2377.9,1503.47 2379.76,1519.36 2381.63,1524.75 2383.49,1539.03 2385.36,1628.14 2387.23,1478.77 2389.09,1485.12 2390.96,1522.18 2392.83,1540.5 2394.69,1549.07 2396.56,1566.59 2398.42,1637.44 2400.29,1532.59 2402.16,1547.19 2404.02,1573.8 2405.89,1584.63 2407.76,1592.76 2409.62,1602.95 2411.49,1650.15 2413.35,1583.41 2415.22,1591.84 2417.09,1610.01 2418.95,1616.18 2420.82,1615.84 2422.69,1643.8 2424.55,1662.74 2426.42,1654.97 2428.28,1636.33 2430.15,1596.48 2432.02,1605.15 2433.88,1626.53 2435.75,1638.04 2437.62,1667.38 2439.48,1636.1 2441.35,1634.07 2443.21,1643.19 2445.08,1648.06 2446.95,1649.23 2448.81,1650.47 2450.68,1671.39 2452.55,1645.09 2454.41,1640.44 2456.28,1648.82 2458.14,1651.79 2460.01,1653.94 2461.88,1655.51 2463.74,1673.12 2465.61,1649.57 2467.48,1648.07 2469.34,1654.31 2471.21,1657.08 2473.07,1659.12 2474.94,1660.06 2476.81,1675.3 2478.67,1655.95 2480.54,1652.87 2482.41,1658.6 2484.27,1660.63 2486.14,1660.99 2488,1662.78 2489.87,1676.06 2491.74,1658.67 2493.6,1654.89 2495.47,1667.01 2497.34,1659.72 2499.2,1657.89 2501.07,1661.24 2502.93,1675.36 2504.8,1654.91 2506.67,1653.6 2508.53,1658.48 2510.4,1659.9 2512.27,1661.1 2514.13,1662.45 2516,1675.62 2517.86,1657.17 2519.73,1655.9 2521.6,1660.93 2523.46,1663.16 2525.33,1663.34 2527.2,1663.82 2529.06,1676.31 2530.93,1655.6 2532.79,1652.87 2534.66,1657.18 2536.53,1660.04 2538.39,1660.37 2540.26,1662.4 2542.13,1675.61 2543.99,1655.31 2545.86,1652.74 2547.72,1658.1 2549.59,1659.82 2551.46,1686.38 2553.32,1659.42 2555.19,1661.47 2557.05,1675.24 2558.92,1662.05 2560.79,1652.14 2562.65,1649.34 2564.52,1655.44 2566.39,1659.81 2568.25,1661.91 2570.12,1676.12 "/>
</svg>
