<?xml version="1.0" encoding="utf-8"?>
<svg xmlns="http://www.w3.org/2000/svg" xmlns:xlink="http://www.w3.org/1999/xlink" width="672" height="480" viewBox="0 0 2688 1920">
<defs>
  <clipPath id="clip260">
    <rect x="0" y="0" width="2688" height="1920"/>
  </clipPath>
</defs>
<path clip-path="url(#clip260)" d="
M0 1920 L2688 1920 L2688 0 L0 0  Z
  " fill="#ffffff" fill-rule="evenodd" fill-opacity="1"/>
<defs>
  <clipPath id="clip261">
    <rect x="537" y="0" width="1883" height="1883"/>
  </clipPath>
</defs>
<path clip-path="url(#clip260)" d="
M266.557 1734.12 L2640.76 1734.12 L2640.76 127.792 L266.557 127.792  Z
  " fill="#ffffff" fill-rule="evenodd" fill-opacity="1"/>
<defs>
  <clipPath id="clip262">
    <rect x="266" y="127" width="2375" height="1607"/>
  </clipPath>
</defs>
<polyline clip-path="url(#clip262)" style="stroke:#000000; stroke-linecap:round; stroke-linejoin:round; stroke-width:2; stroke-opacity:0.1; fill:none" points="
  722.211,1734.12 722.211,127.792 
  "/>
<polyline clip-path="url(#clip262)" style="stroke:#000000; stroke-linecap:round; stroke-linejoin:round; stroke-width:2; stroke-opacity:0.1; fill:none" points="
  1201.85,1734.12 1201.85,127.792 
  "/>
<polyline clip-path="url(#clip262)" style="stroke:#000000; stroke-linecap:round; stroke-linejoin:round; stroke-width:2; stroke-opacity:0.1; fill:none" points="
  1681.48,1734.12 1681.48,127.792 
  "/>
<polyline clip-path="url(#clip262)" style="stroke:#000000; stroke-linecap:round; stroke-linejoin:round; stroke-width:2; stroke-opacity:0.1; fill:none" points="
  2161.12,1734.12 2161.12,127.792 
  "/>
<polyline clip-path="url(#clip262)" style="stroke:#000000; stroke-linecap:round; stroke-linejoin:round; stroke-width:2; stroke-opacity:0.1; fill:none" points="
  2640.76,1734.12 2640.76,127.792 
  "/>
<polyline clip-path="url(#clip260)" style="stroke:#000000; stroke-linecap:round; stroke-linejoin:round; stroke-width:4; stroke-opacity:1; fill:none" points="
  266.557,1734.12 2640.76,1734.12 
  "/>
<polyline clip-path="url(#clip260)" style="stroke:#000000; stroke-linecap:round; stroke-linejoin:round; stroke-width:4; stroke-opacity:1; fill:none" points="
  722.211,1734.12 722.211,1715.22 
  "/>
<polyline clip-path="url(#clip260)" style="stroke:#000000; stroke-linecap:round; stroke-linejoin:round; stroke-width:4; stroke-opacity:1; fill:none" points="
  1201.85,1734.12 1201.85,1715.22 
  "/>
<polyline clip-path="url(#clip260)" style="stroke:#000000; stroke-linecap:round; stroke-linejoin:round; stroke-width:4; stroke-opacity:1; fill:none" points="
  1681.48,1734.12 1681.48,1715.22 
  "/>
<polyline clip-path="url(#clip260)" style="stroke:#000000; stroke-linecap:round; stroke-linejoin:round; stroke-width:4; stroke-opacity:1; fill:none" points="
  2161.12,1734.12 2161.12,1715.22 
  "/>
<polyline clip-path="url(#clip260)" style="stroke:#000000; stroke-linecap:round; stroke-linejoin:round; stroke-width:4; stroke-opacity:1; fill:none" points="
  2640.76,1734.12 2640.76,1715.22 
  "/>
<path clip-path="url(#clip260)" d="M700.985 1794.89 L717.304 1794.89 L717.304 1798.82 L695.36 1798.82 L695.36 1794.89 Q698.022 1792.13 702.605 1787.5 Q707.211 1782.85 708.392 1781.51 Q710.637 1778.98 711.517 1777.25 Q712.42 1775.49 712.42 1773.8 Q712.42 1771.04 710.475 1769.31 Q708.554 1767.57 705.452 1767.57 Q703.253 1767.57 700.799 1768.34 Q698.369 1769.1 695.591 1770.65 L695.591 1765.93 Q698.415 1764.79 700.869 1764.21 Q703.323 1763.64 705.36 1763.64 Q710.73 1763.64 713.924 1766.32 Q717.119 1769.01 717.119 1773.5 Q717.119 1775.63 716.309 1777.55 Q715.522 1779.45 713.415 1782.04 Q712.836 1782.71 709.735 1785.93 Q706.633 1789.12 700.985 1794.89 Z" fill="#000000" fill-rule="evenodd" fill-opacity="1" /><path clip-path="url(#clip260)" d="M737.119 1767.34 Q733.508 1767.34 731.679 1770.9 Q729.873 1774.45 729.873 1781.58 Q729.873 1788.68 731.679 1792.25 Q733.508 1795.79 737.119 1795.79 Q740.753 1795.79 742.558 1792.25 Q744.387 1788.68 744.387 1781.58 Q744.387 1774.45 742.558 1770.9 Q740.753 1767.34 737.119 1767.34 M737.119 1763.64 Q742.929 1763.64 745.984 1768.24 Q749.063 1772.83 749.063 1781.58 Q749.063 1790.3 745.984 1794.91 Q742.929 1799.49 737.119 1799.49 Q731.309 1799.49 728.23 1794.91 Q725.174 1790.3 725.174 1781.58 Q725.174 1772.83 728.23 1768.24 Q731.309 1763.64 737.119 1763.64 Z" fill="#000000" fill-rule="evenodd" fill-opacity="1" /><path clip-path="url(#clip260)" d="M1190.02 1768.34 L1178.21 1786.78 L1190.02 1786.78 L1190.02 1768.34 M1188.79 1764.26 L1194.67 1764.26 L1194.67 1786.78 L1199.6 1786.78 L1199.6 1790.67 L1194.67 1790.67 L1194.67 1798.82 L1190.02 1798.82 L1190.02 1790.67 L1174.42 1790.67 L1174.42 1786.16 L1188.79 1764.26 Z" fill="#000000" fill-rule="evenodd" fill-opacity="1" /><path clip-path="url(#clip260)" d="M1217.33 1767.34 Q1213.72 1767.34 1211.89 1770.9 Q1210.09 1774.45 1210.09 1781.58 Q1210.09 1788.68 1211.89 1792.25 Q1213.72 1795.79 1217.33 1795.79 Q1220.97 1795.79 1222.77 1792.25 Q1224.6 1788.68 1224.6 1781.58 Q1224.6 1774.45 1222.77 1770.9 Q1220.97 1767.34 1217.33 1767.34 M1217.33 1763.64 Q1223.14 1763.64 1226.2 1768.24 Q1229.28 1772.83 1229.28 1781.58 Q1229.28 1790.3 1226.2 1794.91 Q1223.14 1799.49 1217.33 1799.49 Q1211.52 1799.49 1208.44 1794.91 Q1205.39 1790.3 1205.39 1781.58 Q1205.39 1772.83 1208.44 1768.24 Q1211.52 1763.64 1217.33 1763.64 Z" fill="#000000" fill-rule="evenodd" fill-opacity="1" /><path clip-path="url(#clip260)" d="M1666.89 1779.68 Q1663.74 1779.68 1661.89 1781.83 Q1660.06 1783.98 1660.06 1787.73 Q1660.06 1791.46 1661.89 1793.64 Q1663.74 1795.79 1666.89 1795.79 Q1670.04 1795.79 1671.87 1793.64 Q1673.72 1791.46 1673.72 1787.73 Q1673.72 1783.98 1671.87 1781.83 Q1670.04 1779.68 1666.89 1779.68 M1676.17 1765.02 L1676.17 1769.28 Q1674.41 1768.45 1672.61 1768.01 Q1670.82 1767.57 1669.06 1767.57 Q1664.44 1767.57 1661.98 1770.7 Q1659.55 1773.82 1659.2 1780.14 Q1660.57 1778.13 1662.63 1777.06 Q1664.69 1775.97 1667.17 1775.97 Q1672.37 1775.97 1675.38 1779.15 Q1678.42 1782.29 1678.42 1787.73 Q1678.42 1793.06 1675.27 1796.27 Q1672.12 1799.49 1666.89 1799.49 Q1660.89 1799.49 1657.72 1794.91 Q1654.55 1790.3 1654.55 1781.58 Q1654.55 1773.38 1658.44 1768.52 Q1662.33 1763.64 1668.88 1763.64 Q1670.64 1763.64 1672.42 1763.98 Q1674.23 1764.33 1676.17 1765.02 Z" fill="#000000" fill-rule="evenodd" fill-opacity="1" /><path clip-path="url(#clip260)" d="M1696.47 1767.34 Q1692.86 1767.34 1691.03 1770.9 Q1689.23 1774.45 1689.23 1781.58 Q1689.23 1788.68 1691.03 1792.25 Q1692.86 1795.79 1696.47 1795.79 Q1700.11 1795.79 1701.91 1792.25 Q1703.74 1788.68 1703.74 1781.58 Q1703.74 1774.45 1701.91 1770.9 Q1700.11 1767.34 1696.47 1767.34 M1696.47 1763.64 Q1702.28 1763.64 1705.34 1768.24 Q1708.42 1772.83 1708.42 1781.58 Q1708.42 1790.3 1705.34 1794.91 Q1702.28 1799.49 1696.47 1799.49 Q1690.66 1799.49 1687.58 1794.91 Q1684.53 1790.3 1684.53 1781.58 Q1684.53 1772.83 1687.58 1768.24 Q1690.66 1763.64 1696.47 1763.64 Z" fill="#000000" fill-rule="evenodd" fill-opacity="1" /><path clip-path="url(#clip260)" d="M2145.99 1782.41 Q2142.66 1782.41 2140.74 1784.19 Q2138.84 1785.97 2138.84 1789.1 Q2138.84 1792.22 2140.74 1794.01 Q2142.66 1795.79 2145.99 1795.79 Q2149.33 1795.79 2151.25 1794.01 Q2153.17 1792.2 2153.17 1789.1 Q2153.17 1785.97 2151.25 1784.19 Q2149.35 1782.41 2145.99 1782.41 M2141.32 1780.42 Q2138.31 1779.68 2136.62 1777.62 Q2134.95 1775.56 2134.95 1772.59 Q2134.95 1768.45 2137.89 1766.04 Q2140.85 1763.64 2145.99 1763.64 Q2151.15 1763.64 2154.09 1766.04 Q2157.03 1768.45 2157.03 1772.59 Q2157.03 1775.56 2155.34 1777.62 Q2153.68 1779.68 2150.69 1780.42 Q2154.07 1781.21 2155.95 1783.5 Q2157.84 1785.79 2157.84 1789.1 Q2157.84 1794.12 2154.77 1796.81 Q2151.71 1799.49 2145.99 1799.49 Q2140.27 1799.49 2137.2 1796.81 Q2134.14 1794.12 2134.14 1789.1 Q2134.14 1785.79 2136.04 1783.5 Q2137.94 1781.21 2141.32 1780.42 M2139.6 1773.03 Q2139.6 1775.72 2141.27 1777.22 Q2142.96 1778.73 2145.99 1778.73 Q2149 1778.73 2150.69 1777.22 Q2152.4 1775.72 2152.4 1773.03 Q2152.4 1770.35 2150.69 1768.84 Q2149 1767.34 2145.99 1767.34 Q2142.96 1767.34 2141.27 1768.84 Q2139.6 1770.35 2139.6 1773.03 Z" fill="#000000" fill-rule="evenodd" fill-opacity="1" /><path clip-path="url(#clip260)" d="M2176.15 1767.34 Q2172.54 1767.34 2170.71 1770.9 Q2168.91 1774.45 2168.91 1781.58 Q2168.91 1788.68 2170.71 1792.25 Q2172.54 1795.79 2176.15 1795.79 Q2179.79 1795.79 2181.59 1792.25 Q2183.42 1788.68 2183.42 1781.58 Q2183.42 1774.45 2181.59 1770.9 Q2179.79 1767.34 2176.15 1767.34 M2176.15 1763.64 Q2181.96 1763.64 2185.02 1768.24 Q2188.1 1772.83 2188.1 1781.58 Q2188.1 1790.3 2185.02 1794.91 Q2181.96 1799.49 2176.15 1799.49 Q2170.34 1799.49 2167.27 1794.91 Q2164.21 1790.3 2164.21 1781.58 Q2164.21 1772.83 2167.27 1768.24 Q2170.34 1763.64 2176.15 1763.64 Z" fill="#000000" fill-rule="evenodd" fill-opacity="1" /><path clip-path="url(#clip260)" d="M2600.36 1794.89 L2608 1794.89 L2608 1768.52 L2599.69 1770.19 L2599.69 1765.93 L2607.96 1764.26 L2612.63 1764.26 L2612.63 1794.89 L2620.27 1794.89 L2620.27 1798.82 L2600.36 1798.82 L2600.36 1794.89 Z" fill="#000000" fill-rule="evenodd" fill-opacity="1" /><path clip-path="url(#clip260)" d="M2639.71 1767.34 Q2636.1 1767.34 2634.27 1770.9 Q2632.47 1774.45 2632.47 1781.58 Q2632.47 1788.68 2634.27 1792.25 Q2636.1 1795.79 2639.71 1795.79 Q2643.35 1795.79 2645.15 1792.25 Q2646.98 1788.68 2646.98 1781.58 Q2646.98 1774.45 2645.15 1770.9 Q2643.35 1767.34 2639.71 1767.34 M2639.71 1763.64 Q2645.52 1763.64 2648.58 1768.24 Q2651.66 1772.83 2651.66 1781.58 Q2651.66 1790.3 2648.58 1794.91 Q2645.52 1799.49 2639.71 1799.49 Q2633.9 1799.49 2630.83 1794.91 Q2627.77 1790.3 2627.77 1781.58 Q2627.77 1772.83 2630.83 1768.24 Q2633.9 1763.64 2639.71 1763.64 Z" fill="#000000" fill-rule="evenodd" fill-opacity="1" /><path clip-path="url(#clip260)" d="M2669.88 1767.34 Q2666.27 1767.34 2664.44 1770.9 Q2662.63 1774.45 2662.63 1781.58 Q2662.63 1788.68 2664.44 1792.25 Q2666.27 1795.79 2669.88 1795.79 Q2673.51 1795.79 2675.32 1792.25 Q2677.14 1788.68 2677.14 1781.58 Q2677.14 1774.45 2675.32 1770.9 Q2673.51 1767.34 2669.88 1767.34 M2669.88 1763.64 Q2675.69 1763.64 2678.74 1768.24 Q2681.82 1772.83 2681.82 1781.58 Q2681.82 1790.3 2678.74 1794.91 Q2675.69 1799.49 2669.88 1799.49 Q2664.07 1799.49 2660.99 1794.91 Q2657.93 1790.3 2657.93 1781.58 Q2657.93 1772.83 2660.99 1768.24 Q2664.07 1763.64 2669.88 1763.64 Z" fill="#000000" fill-rule="evenodd" fill-opacity="1" /><path clip-path="url(#clip260)" d="M1462.13 1847.17 Q1462.13 1848.07 1461.71 1848.3 Q1461.29 1848.49 1460.13 1848.49 L1453.95 1848.49 L1449.05 1867.95 Q1448.67 1869.65 1448.67 1871.1 Q1448.67 1872.71 1449.15 1873.42 Q1449.66 1874.13 1450.73 1874.13 Q1452.82 1874.13 1455.07 1872.23 Q1457.36 1870.33 1459.29 1865.69 Q1459.55 1865.08 1459.68 1864.95 Q1459.84 1864.79 1460.26 1864.79 Q1461.06 1864.79 1461.06 1865.43 Q1461.06 1865.66 1460.61 1866.69 Q1460.2 1867.72 1459.26 1869.23 Q1458.36 1870.75 1457.17 1872.16 Q1456.01 1873.58 1454.24 1874.61 Q1452.47 1875.61 1450.57 1875.61 Q1447.89 1875.61 1446.19 1873.9 Q1444.51 1872.2 1444.51 1869.52 Q1444.51 1868.65 1445.19 1865.88 Q1445.86 1863.08 1449.54 1848.49 L1443.71 1848.49 Q1442.9 1848.49 1442.58 1848.46 Q1442.29 1848.43 1442.06 1848.27 Q1441.87 1848.07 1441.87 1847.69 Q1441.87 1847.08 1442.13 1846.82 Q1442.39 1846.53 1442.71 1846.5 Q1443.06 1846.43 1443.87 1846.43 L1450.05 1846.43 L1452.63 1835.97 Q1452.88 1834.93 1453.53 1834.36 Q1454.2 1833.74 1454.59 1833.68 Q1454.98 1833.58 1455.27 1833.58 Q1456.14 1833.58 1456.65 1834.07 Q1457.17 1834.52 1457.17 1835.35 Q1457.17 1835.8 1454.46 1846.43 L1460.26 1846.43 Q1461 1846.43 1461.29 1846.46 Q1461.61 1846.5 1461.87 1846.66 Q1462.13 1846.82 1462.13 1847.17 Z" fill="#000000" fill-rule="evenodd" fill-opacity="1" /><polyline clip-path="url(#clip262)" style="stroke:#000000; stroke-linecap:round; stroke-linejoin:round; stroke-width:2; stroke-opacity:0.1; fill:none" points="
  266.557,1688.65 2640.76,1688.65 
  "/>
<polyline clip-path="url(#clip262)" style="stroke:#000000; stroke-linecap:round; stroke-linejoin:round; stroke-width:2; stroke-opacity:0.1; fill:none" points="
  266.557,1309.8 2640.76,1309.8 
  "/>
<polyline clip-path="url(#clip262)" style="stroke:#000000; stroke-linecap:round; stroke-linejoin:round; stroke-width:2; stroke-opacity:0.1; fill:none" points="
  266.557,930.955 2640.76,930.955 
  "/>
<polyline clip-path="url(#clip262)" style="stroke:#000000; stroke-linecap:round; stroke-linejoin:round; stroke-width:2; stroke-opacity:0.1; fill:none" points="
  266.557,552.104 2640.76,552.104 
  "/>
<polyline clip-path="url(#clip262)" style="stroke:#000000; stroke-linecap:round; stroke-linejoin:round; stroke-width:2; stroke-opacity:0.1; fill:none" points="
  266.557,173.254 2640.76,173.254 
  "/>
<polyline clip-path="url(#clip260)" style="stroke:#000000; stroke-linecap:round; stroke-linejoin:round; stroke-width:4; stroke-opacity:1; fill:none" points="
  266.557,1734.12 266.557,127.792 
  "/>
<polyline clip-path="url(#clip260)" style="stroke:#000000; stroke-linecap:round; stroke-linejoin:round; stroke-width:4; stroke-opacity:1; fill:none" points="
  266.557,1688.65 285.455,1688.65 
  "/>
<polyline clip-path="url(#clip260)" style="stroke:#000000; stroke-linecap:round; stroke-linejoin:round; stroke-width:4; stroke-opacity:1; fill:none" points="
  266.557,1309.8 285.455,1309.8 
  "/>
<polyline clip-path="url(#clip260)" style="stroke:#000000; stroke-linecap:round; stroke-linejoin:round; stroke-width:4; stroke-opacity:1; fill:none" points="
  266.557,930.955 285.455,930.955 
  "/>
<polyline clip-path="url(#clip260)" style="stroke:#000000; stroke-linecap:round; stroke-linejoin:round; stroke-width:4; stroke-opacity:1; fill:none" points="
  266.557,552.104 285.455,552.104 
  "/>
<polyline clip-path="url(#clip260)" style="stroke:#000000; stroke-linecap:round; stroke-linejoin:round; stroke-width:4; stroke-opacity:1; fill:none" points="
  266.557,173.254 285.455,173.254 
  "/>
<path clip-path="url(#clip260)" d="M156.237 1674.45 Q152.626 1674.45 150.798 1678.02 Q148.992 1681.56 148.992 1688.69 Q148.992 1695.8 150.798 1699.36 Q152.626 1702.9 156.237 1702.9 Q159.872 1702.9 161.677 1699.36 Q163.506 1695.8 163.506 1688.69 Q163.506 1681.56 161.677 1678.02 Q159.872 1674.45 156.237 1674.45 M156.237 1670.75 Q162.048 1670.75 165.103 1675.36 Q168.182 1679.94 168.182 1688.69 Q168.182 1697.42 165.103 1702.02 Q162.048 1706.61 156.237 1706.61 Q150.427 1706.61 147.349 1702.02 Q144.293 1697.42 144.293 1688.69 Q144.293 1679.94 147.349 1675.36 Q150.427 1670.75 156.237 1670.75 Z" fill="#000000" fill-rule="evenodd" fill-opacity="1" /><path clip-path="url(#clip260)" d="M195.983 1684.99 Q197.58 1682.12 199.802 1680.75 Q202.024 1679.38 205.033 1679.38 Q209.084 1679.38 211.283 1682.23 Q213.482 1685.06 213.482 1690.29 L213.482 1705.93 L209.2 1705.93 L209.2 1690.43 Q209.2 1686.7 207.881 1684.89 Q206.561 1683.09 203.853 1683.09 Q200.543 1683.09 198.621 1685.29 Q196.7 1687.49 196.7 1691.28 L196.7 1705.93 L192.418 1705.93 L192.418 1690.43 Q192.418 1686.68 191.098 1684.89 Q189.779 1683.09 187.024 1683.09 Q183.76 1683.09 181.839 1685.31 Q179.918 1687.51 179.918 1691.28 L179.918 1705.93 L175.635 1705.93 L175.635 1680.01 L179.918 1680.01 L179.918 1684.04 Q181.376 1681.65 183.413 1680.52 Q185.45 1679.38 188.251 1679.38 Q191.075 1679.38 193.043 1680.82 Q195.033 1682.25 195.983 1684.99 Z" fill="#000000" fill-rule="evenodd" fill-opacity="1" /><path clip-path="url(#clip260)" d="M221.978 1680.01 L226.237 1680.01 L226.237 1705.93 L221.978 1705.93 L221.978 1680.01 M221.978 1669.92 L226.237 1669.92 L226.237 1675.31 L221.978 1675.31 L221.978 1669.92 Z" fill="#000000" fill-rule="evenodd" fill-opacity="1" /><path clip-path="url(#clip260)" d="M150.265 1323.15 L166.585 1323.15 L166.585 1327.08 L144.64 1327.08 L144.64 1323.15 Q147.302 1320.39 151.886 1315.77 Q156.492 1311.11 157.673 1309.77 Q159.918 1307.25 160.798 1305.51 Q161.7 1303.75 161.7 1302.06 Q161.7 1299.31 159.756 1297.57 Q157.835 1295.83 154.733 1295.83 Q152.534 1295.83 150.08 1296.6 Q147.649 1297.36 144.872 1298.91 L144.872 1294.19 Q147.696 1293.06 150.149 1292.48 Q152.603 1291.9 154.64 1291.9 Q160.011 1291.9 163.205 1294.58 Q166.399 1297.27 166.399 1301.76 Q166.399 1303.89 165.589 1305.81 Q164.802 1307.71 162.696 1310.3 Q162.117 1310.97 159.015 1314.19 Q155.913 1317.39 150.265 1323.15 Z" fill="#000000" fill-rule="evenodd" fill-opacity="1" /><path clip-path="url(#clip260)" d="M195.983 1306.14 Q197.58 1303.27 199.802 1301.9 Q202.024 1300.53 205.033 1300.53 Q209.084 1300.53 211.283 1303.38 Q213.482 1306.21 213.482 1311.44 L213.482 1327.08 L209.2 1327.08 L209.2 1311.58 Q209.2 1307.85 207.881 1306.04 Q206.561 1304.24 203.853 1304.24 Q200.543 1304.24 198.621 1306.44 Q196.7 1308.64 196.7 1312.43 L196.7 1327.08 L192.418 1327.08 L192.418 1311.58 Q192.418 1307.83 191.098 1306.04 Q189.779 1304.24 187.024 1304.24 Q183.76 1304.24 181.839 1306.46 Q179.918 1308.66 179.918 1312.43 L179.918 1327.08 L175.635 1327.08 L175.635 1301.16 L179.918 1301.16 L179.918 1305.19 Q181.376 1302.8 183.413 1301.67 Q185.45 1300.53 188.251 1300.53 Q191.075 1300.53 193.043 1301.97 Q195.033 1303.4 195.983 1306.14 Z" fill="#000000" fill-rule="evenodd" fill-opacity="1" /><path clip-path="url(#clip260)" d="M221.978 1301.16 L226.237 1301.16 L226.237 1327.08 L221.978 1327.08 L221.978 1301.16 M221.978 1291.07 L226.237 1291.07 L226.237 1296.46 L221.978 1296.46 L221.978 1291.07 Z" fill="#000000" fill-rule="evenodd" fill-opacity="1" /><path clip-path="url(#clip260)" d="M146.284 913.675 L164.64 913.675 L164.64 917.61 L150.566 917.61 L150.566 926.082 Q151.585 925.735 152.603 925.573 Q153.622 925.387 154.64 925.387 Q160.427 925.387 163.807 928.559 Q167.186 931.73 167.186 937.147 Q167.186 942.725 163.714 945.827 Q160.242 948.906 153.923 948.906 Q151.747 948.906 149.478 948.535 Q147.233 948.165 144.825 947.424 L144.825 942.725 Q146.909 943.86 149.131 944.415 Q151.353 944.971 153.83 944.971 Q157.835 944.971 160.173 942.864 Q162.51 940.758 162.51 937.147 Q162.51 933.536 160.173 931.429 Q157.835 929.323 153.83 929.323 Q151.955 929.323 150.08 929.739 Q148.228 930.156 146.284 931.036 L146.284 913.675 Z" fill="#000000" fill-rule="evenodd" fill-opacity="1" /><path clip-path="url(#clip260)" d="M195.983 927.286 Q197.58 924.415 199.802 923.05 Q202.024 921.684 205.033 921.684 Q209.084 921.684 211.283 924.531 Q213.482 927.355 213.482 932.586 L213.482 948.235 L209.2 948.235 L209.2 932.725 Q209.2 928.999 207.881 927.193 Q206.561 925.387 203.853 925.387 Q200.543 925.387 198.621 927.587 Q196.7 929.786 196.7 933.582 L196.7 948.235 L192.418 948.235 L192.418 932.725 Q192.418 928.975 191.098 927.193 Q189.779 925.387 187.024 925.387 Q183.76 925.387 181.839 927.61 Q179.918 929.809 179.918 933.582 L179.918 948.235 L175.635 948.235 L175.635 922.309 L179.918 922.309 L179.918 926.337 Q181.376 923.952 183.413 922.818 Q185.45 921.684 188.251 921.684 Q191.075 921.684 193.043 923.119 Q195.033 924.554 195.983 927.286 Z" fill="#000000" fill-rule="evenodd" fill-opacity="1" /><path clip-path="url(#clip260)" d="M221.978 922.309 L226.237 922.309 L226.237 948.235 L221.978 948.235 L221.978 922.309 M221.978 912.216 L226.237 912.216 L226.237 917.61 L221.978 917.61 L221.978 912.216 Z" fill="#000000" fill-rule="evenodd" fill-opacity="1" /><path clip-path="url(#clip260)" d="M145.057 534.824 L167.279 534.824 L167.279 536.815 L154.733 569.384 L149.849 569.384 L161.654 538.76 L145.057 538.76 L145.057 534.824 Z" fill="#000000" fill-rule="evenodd" fill-opacity="1" /><path clip-path="url(#clip260)" d="M195.983 548.435 Q197.58 545.565 199.802 544.199 Q202.024 542.834 205.033 542.834 Q209.084 542.834 211.283 545.681 Q213.482 548.505 213.482 553.736 L213.482 569.384 L209.2 569.384 L209.2 553.875 Q209.2 550.148 207.881 548.343 Q206.561 546.537 203.853 546.537 Q200.543 546.537 198.621 548.736 Q196.7 550.935 196.7 554.732 L196.7 569.384 L192.418 569.384 L192.418 553.875 Q192.418 550.125 191.098 548.343 Q189.779 546.537 187.024 546.537 Q183.76 546.537 181.839 548.759 Q179.918 550.959 179.918 554.732 L179.918 569.384 L175.635 569.384 L175.635 543.459 L179.918 543.459 L179.918 547.486 Q181.376 545.102 183.413 543.968 Q185.45 542.834 188.251 542.834 Q191.075 542.834 193.043 544.269 Q195.033 545.704 195.983 548.435 Z" fill="#000000" fill-rule="evenodd" fill-opacity="1" /><path clip-path="url(#clip260)" d="M221.978 543.459 L226.237 543.459 L226.237 569.384 L221.978 569.384 L221.978 543.459 M221.978 533.366 L226.237 533.366 L226.237 538.76 L221.978 538.76 L221.978 533.366 Z" fill="#000000" fill-rule="evenodd" fill-opacity="1" /><path clip-path="url(#clip260)" d="M116.886 186.599 L124.525 186.599 L124.525 160.233 L116.214 161.9 L116.214 157.641 L124.478 155.974 L129.154 155.974 L129.154 186.599 L136.793 186.599 L136.793 190.534 L116.886 190.534 L116.886 186.599 Z" fill="#000000" fill-rule="evenodd" fill-opacity="1" /><path clip-path="url(#clip260)" d="M156.237 159.053 Q152.626 159.053 150.798 162.618 Q148.992 166.159 148.992 173.289 Q148.992 180.395 150.798 183.96 Q152.626 187.502 156.237 187.502 Q159.872 187.502 161.677 183.96 Q163.506 180.395 163.506 173.289 Q163.506 166.159 161.677 162.618 Q159.872 159.053 156.237 159.053 M156.237 155.349 Q162.048 155.349 165.103 159.956 Q168.182 164.539 168.182 173.289 Q168.182 182.016 165.103 186.622 Q162.048 191.205 156.237 191.205 Q150.427 191.205 147.349 186.622 Q144.293 182.016 144.293 173.289 Q144.293 164.539 147.349 159.956 Q150.427 155.349 156.237 155.349 Z" fill="#000000" fill-rule="evenodd" fill-opacity="1" /><path clip-path="url(#clip260)" d="M195.983 169.585 Q197.58 166.715 199.802 165.349 Q202.024 163.983 205.033 163.983 Q209.084 163.983 211.283 166.831 Q213.482 169.655 213.482 174.886 L213.482 190.534 L209.2 190.534 L209.2 175.025 Q209.2 171.298 207.881 169.493 Q206.561 167.687 203.853 167.687 Q200.543 167.687 198.621 169.886 Q196.7 172.085 196.7 175.881 L196.7 190.534 L192.418 190.534 L192.418 175.025 Q192.418 171.275 191.098 169.493 Q189.779 167.687 187.024 167.687 Q183.76 167.687 181.839 169.909 Q179.918 172.108 179.918 175.881 L179.918 190.534 L175.635 190.534 L175.635 164.608 L179.918 164.608 L179.918 168.636 Q181.376 166.252 183.413 165.118 Q185.45 163.983 188.251 163.983 Q191.075 163.983 193.043 165.419 Q195.033 166.854 195.983 169.585 Z" fill="#000000" fill-rule="evenodd" fill-opacity="1" /><path clip-path="url(#clip260)" d="M221.978 164.608 L226.237 164.608 L226.237 190.534 L221.978 190.534 L221.978 164.608 M221.978 154.516 L226.237 154.516 L226.237 159.909 L221.978 159.909 L221.978 154.516 Z" fill="#000000" fill-rule="evenodd" fill-opacity="1" /><path clip-path="url(#clip260)" d="M25.3797 901.652 Q26.7001 901.652 26.7001 902.779 Q26.8289 906.418 28.0528 907.9 Q29.2444 909.349 31.5632 909.897 L68.3101 919.108 Q69.4695 919.43 69.5983 919.623 Q69.6949 919.816 69.6949 920.17 Q69.6949 920.621 69.4695 920.879 Q69.2441 921.104 68.4389 921.426 L29.5986 937.851 Q29.341 937.98 28.9867 938.141 Q28.6325 938.302 28.407 938.431 L63.2216 947.159 Q64.2199 947.416 64.7352 947.416 Q65.9913 947.416 66.7964 946.547 Q67.5694 945.645 67.666 943.069 Q67.666 941.748 68.3745 941.748 Q69.6949 941.748 69.6949 942.94 Q69.6949 944.035 69.5983 946.321 Q69.5017 948.608 69.5017 949.735 Q69.5017 950.83 69.5983 953.053 Q69.6949 955.275 69.6949 956.338 Q69.6949 957.175 68.9542 957.175 Q68.3745 957.175 68.0847 956.949 Q67.7626 956.724 67.7304 956.531 Q67.666 956.338 67.666 956.048 Q67.6016 954.115 67.2151 952.795 Q66.8286 951.474 66.0879 950.734 Q65.3472 949.961 64.6064 949.606 Q63.8335 949.22 62.7063 948.93 L27.2798 940.106 Q26.7001 940.106 26.7001 944.582 Q26.7001 945.355 26.6679 945.677 Q26.6357 945.967 26.4747 946.193 Q26.3136 946.418 25.9594 946.418 Q25.0576 946.418 24.8644 946.032 Q24.6389 945.645 24.6389 944.518 L24.6389 935.661 Q24.6389 934.534 24.8322 934.244 Q24.9932 933.954 25.895 933.568 L60.323 918.979 L30.9835 911.604 Q30.4038 911.41 29.5986 911.41 Q28.3104 911.41 27.5375 912.377 Q26.7323 913.31 26.7001 915.887 Q26.7001 917.079 25.9594 917.079 Q25.3475 917.079 25.0576 916.853 Q24.7356 916.595 24.7034 916.402 Q24.6389 916.177 24.6389 915.887 Q24.6389 914.792 24.7356 912.538 Q24.8322 910.283 24.8322 909.156 Q24.8322 908.061 24.7356 905.839 Q24.6389 903.584 24.6389 902.489 Q24.6389 902.103 24.8322 901.91 Q24.9932 901.684 25.1864 901.652 L25.3797 901.652 Z" fill="#000000" fill-rule="evenodd" fill-opacity="1" /><path clip-path="url(#clip260)" d="M635.495 14.0809 L635.495 22.0612 Q630.837 19.8332 626.705 18.7395 Q622.573 17.6457 618.725 17.6457 Q612.041 17.6457 608.395 20.2383 Q604.789 22.8309 604.789 27.611 Q604.789 31.6214 607.18 33.6873 Q609.61 35.7128 616.335 36.9686 L621.277 37.9813 Q630.432 39.7232 634.766 44.1387 Q639.141 48.5136 639.141 55.8863 Q639.141 64.6767 633.227 69.2137 Q627.353 73.7508 615.97 73.7508 Q611.676 73.7508 606.815 72.7785 Q601.994 71.8063 596.809 69.9024 L596.809 61.4765 Q601.792 64.2716 606.572 65.6895 Q611.352 67.1073 615.97 67.1073 Q622.978 67.1073 626.786 64.3527 Q630.594 61.598 630.594 56.4939 Q630.594 52.0379 627.839 49.5264 Q625.125 47.0148 618.887 45.759 L613.904 44.7868 Q604.749 42.9639 600.658 39.075 Q596.566 35.1862 596.566 28.2591 Q596.566 20.2383 602.197 15.6203 Q607.868 11.0023 617.793 11.0023 Q622.046 11.0023 626.462 11.7719 Q630.877 12.5416 635.495 14.0809 Z" fill="#000000" fill-rule="evenodd" fill-opacity="1" /><path clip-path="url(#clip260)" d="M651.901 12.096 L660.084 12.096 L660.084 72.576 L651.901 72.576 L651.901 12.096 Z" fill="#000000" fill-rule="evenodd" fill-opacity="1" /><path clip-path="url(#clip260)" d="M705.049 44.2197 Q707.682 45.1109 710.153 48.0275 Q712.665 50.9442 715.177 56.0483 L723.481 72.576 L714.691 72.576 L706.953 57.061 Q703.956 50.9847 701.12 48.9997 Q698.325 47.0148 693.464 47.0148 L684.552 47.0148 L684.552 72.576 L676.369 72.576 L676.369 12.096 L694.841 12.096 Q705.211 12.096 710.316 16.4305 Q715.42 20.7649 715.42 29.5149 Q715.42 35.2267 712.746 38.994 Q710.113 42.7613 705.049 44.2197 M684.552 18.8205 L684.552 40.2903 L694.841 40.2903 Q700.755 40.2903 703.753 37.5762 Q706.791 34.8216 706.791 29.5149 Q706.791 24.2082 703.753 21.5346 Q700.755 18.8205 694.841 18.8205 L684.552 18.8205 Z" fill="#000000" fill-rule="evenodd" fill-opacity="1" /><path clip-path="url(#clip260)" d="M760.385 12.096 L772.578 12.096 L788.012 53.2532 L803.527 12.096 L815.72 12.096 L815.72 72.576 L807.74 72.576 L807.74 19.4686 L792.144 60.9499 L783.92 60.9499 L768.324 19.4686 L768.324 72.576 L760.385 72.576 L760.385 12.096 Z" fill="#000000" fill-rule="evenodd" fill-opacity="1" /><path clip-path="url(#clip260)" d="M849.221 32.4315 Q843.226 32.4315 839.742 37.1306 Q836.258 41.7891 836.258 49.9314 Q836.258 58.0738 839.701 62.7728 Q843.185 67.4314 849.221 67.4314 Q855.176 67.4314 858.66 62.7323 Q862.143 58.0333 862.143 49.9314 Q862.143 41.8701 858.66 37.1711 Q855.176 32.4315 849.221 32.4315 M849.221 26.1121 Q858.943 26.1121 864.493 32.4315 Q870.043 38.7509 870.043 49.9314 Q870.043 61.0714 864.493 67.4314 Q858.943 73.7508 849.221 73.7508 Q839.458 73.7508 833.909 67.4314 Q828.399 61.0714 828.399 49.9314 Q828.399 38.7509 833.909 32.4315 Q839.458 26.1121 849.221 26.1121 Z" fill="#000000" fill-rule="evenodd" fill-opacity="1" /><path clip-path="url(#clip260)" d="M912.253 34.0924 L912.253 9.54393 L919.707 9.54393 L919.707 72.576 L912.253 72.576 L912.253 65.7705 Q909.904 69.8214 906.298 71.8063 Q902.733 73.7508 897.71 73.7508 Q889.487 73.7508 884.302 67.1883 Q879.157 60.6258 879.157 49.9314 Q879.157 39.2371 884.302 32.6746 Q889.487 26.1121 897.71 26.1121 Q902.733 26.1121 906.298 28.0971 Q909.904 30.0415 912.253 34.0924 M886.854 49.9314 Q886.854 58.1548 890.216 62.8538 Q893.619 67.5124 899.533 67.5124 Q905.448 67.5124 908.85 62.8538 Q912.253 58.1548 912.253 49.9314 Q912.253 41.7081 908.85 37.0496 Q905.448 32.3505 899.533 32.3505 Q893.619 32.3505 890.216 37.0496 Q886.854 41.7081 886.854 49.9314 Z" fill="#000000" fill-rule="evenodd" fill-opacity="1" /><path clip-path="url(#clip260)" d="M973.867 48.0275 L973.867 51.6733 L939.597 51.6733 Q940.083 59.3701 944.215 63.421 Q948.387 67.4314 955.8 67.4314 Q960.094 67.4314 964.105 66.3781 Q968.156 65.3249 972.125 63.2184 L972.125 70.267 Q968.115 71.9684 963.902 72.8596 Q959.689 73.7508 955.355 73.7508 Q944.498 73.7508 938.138 67.4314 Q931.819 61.1119 931.819 50.3365 Q931.819 39.1965 937.814 32.6746 Q943.85 26.1121 954.058 26.1121 Q963.213 26.1121 968.52 32.0264 Q973.867 37.9003 973.867 48.0275 M966.414 45.84 Q966.333 39.7232 962.97 36.0774 Q959.649 32.4315 954.139 32.4315 Q947.901 32.4315 944.134 35.9558 Q940.407 39.4801 939.84 45.8805 L966.414 45.84 Z" fill="#000000" fill-rule="evenodd" fill-opacity="1" /><path clip-path="url(#clip260)" d="M986.101 9.54393 L993.555 9.54393 L993.555 72.576 L986.101 72.576 L986.101 9.54393 Z" fill="#000000" fill-rule="evenodd" fill-opacity="1" /><path clip-path="url(#clip260)" d="M1058.49 9.54393 L1058.49 15.7418 L1051.36 15.7418 Q1047.35 15.7418 1045.77 17.3622 Q1044.23 18.9825 1044.23 23.1955 L1044.23 27.2059 L1056.51 27.2059 L1056.51 32.9987 L1044.23 32.9987 L1044.23 72.576 L1036.74 72.576 L1036.74 32.9987 L1029.61 32.9987 L1029.61 27.2059 L1036.74 27.2059 L1036.74 24.0462 Q1036.74 16.471 1040.26 13.0277 Q1043.79 9.54393 1051.44 9.54393 L1058.49 9.54393 Z" fill="#000000" fill-rule="evenodd" fill-opacity="1" /><path clip-path="url(#clip260)" d="M1082.31 32.4315 Q1076.31 32.4315 1072.83 37.1306 Q1069.35 41.7891 1069.35 49.9314 Q1069.35 58.0738 1072.79 62.7728 Q1076.27 67.4314 1082.31 67.4314 Q1088.26 67.4314 1091.75 62.7323 Q1095.23 58.0333 1095.23 49.9314 Q1095.23 41.8701 1091.75 37.1711 Q1088.26 32.4315 1082.31 32.4315 M1082.31 26.1121 Q1092.03 26.1121 1097.58 32.4315 Q1103.13 38.7509 1103.13 49.9314 Q1103.13 61.0714 1097.58 67.4314 Q1092.03 73.7508 1082.31 73.7508 Q1072.55 73.7508 1067 67.4314 Q1061.49 61.0714 1061.49 49.9314 Q1061.49 38.7509 1067 32.4315 Q1072.55 26.1121 1082.31 26.1121 Z" fill="#000000" fill-rule="evenodd" fill-opacity="1" /><path clip-path="url(#clip260)" d="M1141.78 34.1734 Q1140.52 33.4443 1139.02 33.1202 Q1137.56 32.7556 1135.78 32.7556 Q1129.46 32.7556 1126.06 36.8875 Q1122.7 40.9789 1122.7 48.6757 L1122.7 72.576 L1115.2 72.576 L1115.2 27.2059 L1122.7 27.2059 L1122.7 34.2544 Q1125.05 30.1225 1128.81 28.1376 Q1132.58 26.1121 1137.97 26.1121 Q1138.74 26.1121 1139.67 26.2337 Q1140.6 26.3147 1141.74 26.5172 L1141.78 34.1734 Z" fill="#000000" fill-rule="evenodd" fill-opacity="1" /><path clip-path="url(#clip260)" d="M1178.44 65.6895 L1191.81 65.6895 L1191.81 19.5497 L1177.26 22.4663 L1177.26 15.0127 L1191.72 12.096 L1199.91 12.096 L1199.91 65.6895 L1213.28 65.6895 L1213.28 72.576 L1178.44 72.576 L1178.44 65.6895 Z" fill="#000000" fill-rule="evenodd" fill-opacity="1" /><path clip-path="url(#clip260)" d="M1247.3 17.4837 Q1240.98 17.4837 1237.78 23.7221 Q1234.62 29.92 1234.62 42.3968 Q1234.62 54.833 1237.78 61.0714 Q1240.98 67.2693 1247.3 67.2693 Q1253.66 67.2693 1256.82 61.0714 Q1260.02 54.833 1260.02 42.3968 Q1260.02 29.92 1256.82 23.7221 Q1253.66 17.4837 1247.3 17.4837 M1247.3 11.0023 Q1257.47 11.0023 1262.82 19.0636 Q1268.21 27.0843 1268.21 42.3968 Q1268.21 57.6687 1262.82 65.73 Q1257.47 73.7508 1247.3 73.7508 Q1237.14 73.7508 1231.75 65.73 Q1226.4 57.6687 1226.4 42.3968 Q1226.4 27.0843 1231.75 19.0636 Q1237.14 11.0023 1247.3 11.0023 Z" fill="#000000" fill-rule="evenodd" fill-opacity="1" /><path clip-path="url(#clip260)" d="M1300.09 17.4837 Q1293.77 17.4837 1290.57 23.7221 Q1287.41 29.92 1287.41 42.3968 Q1287.41 54.833 1290.57 61.0714 Q1293.77 67.2693 1300.09 67.2693 Q1306.45 67.2693 1309.61 61.0714 Q1312.81 54.833 1312.81 42.3968 Q1312.81 29.92 1309.61 23.7221 Q1306.45 17.4837 1300.09 17.4837 M1300.09 11.0023 Q1310.25 11.0023 1315.6 19.0636 Q1320.99 27.0843 1320.99 42.3968 Q1320.99 57.6687 1315.6 65.73 Q1310.25 73.7508 1300.09 73.7508 Q1289.92 73.7508 1284.53 65.73 Q1279.18 57.6687 1279.18 42.3968 Q1279.18 27.0843 1284.53 19.0636 Q1289.92 11.0023 1300.09 11.0023 Z" fill="#000000" fill-rule="evenodd" fill-opacity="1" /><path clip-path="url(#clip260)" d="M1390.54 34.0924 L1390.54 9.54393 L1398 9.54393 L1398 72.576 L1390.54 72.576 L1390.54 65.7705 Q1388.19 69.8214 1384.59 71.8063 Q1381.02 73.7508 1376 73.7508 Q1367.78 73.7508 1362.59 67.1883 Q1357.45 60.6258 1357.45 49.9314 Q1357.45 39.2371 1362.59 32.6746 Q1367.78 26.1121 1376 26.1121 Q1381.02 26.1121 1384.59 28.0971 Q1388.19 30.0415 1390.54 34.0924 M1365.14 49.9314 Q1365.14 58.1548 1368.51 62.8538 Q1371.91 67.5124 1377.82 67.5124 Q1383.74 67.5124 1387.14 62.8538 Q1390.54 58.1548 1390.54 49.9314 Q1390.54 41.7081 1387.14 37.0496 Q1383.74 32.3505 1377.82 32.3505 Q1371.91 32.3505 1368.51 37.0496 Q1365.14 41.7081 1365.14 49.9314 Z" fill="#000000" fill-rule="evenodd" fill-opacity="1" /><path clip-path="url(#clip260)" d="M1433.97 49.7694 Q1424.94 49.7694 1421.45 51.8354 Q1417.97 53.9013 1417.97 58.8839 Q1417.97 62.8538 1420.56 65.2034 Q1423.19 67.5124 1427.69 67.5124 Q1433.89 67.5124 1437.61 63.1374 Q1441.38 58.7219 1441.38 51.4303 L1441.38 49.7694 L1433.97 49.7694 M1448.84 46.6907 L1448.84 72.576 L1441.38 72.576 L1441.38 65.6895 Q1438.83 69.8214 1435.02 71.8063 Q1431.21 73.7508 1425.71 73.7508 Q1418.74 73.7508 1414.61 69.8619 Q1410.51 65.9325 1410.51 59.3701 Q1410.51 51.7138 1415.62 47.825 Q1420.76 43.9361 1430.93 43.9361 L1441.38 43.9361 L1441.38 43.2069 Q1441.38 38.0623 1437.98 35.2672 Q1434.62 32.4315 1428.5 32.4315 Q1424.61 32.4315 1420.93 33.3632 Q1417.24 34.295 1413.84 36.1584 L1413.84 29.2718 Q1417.93 27.692 1421.78 26.9223 Q1425.62 26.1121 1429.27 26.1121 Q1439.11 26.1121 1443.97 31.2163 Q1448.84 36.3204 1448.84 46.6907 Z" fill="#000000" fill-rule="evenodd" fill-opacity="1" /><path clip-path="url(#clip260)" d="M1483.07 76.7889 Q1479.91 84.8907 1476.91 87.3618 Q1473.91 89.8329 1468.89 89.8329 L1462.93 89.8329 L1462.93 83.5945 L1467.31 83.5945 Q1470.39 83.5945 1472.09 82.1361 Q1473.79 80.6778 1475.86 75.2496 L1477.19 71.8468 L1458.84 27.2059 L1466.74 27.2059 L1480.92 62.6918 L1495.1 27.2059 L1503 27.2059 L1483.07 76.7889 Z" fill="#000000" fill-rule="evenodd" fill-opacity="1" /><path clip-path="url(#clip260)" d="M1542.21 28.5427 L1542.21 35.5912 Q1539.05 33.9709 1535.65 33.1607 Q1532.24 32.3505 1528.6 32.3505 Q1523.05 32.3505 1520.25 34.0519 Q1517.5 35.7533 1517.5 39.156 Q1517.5 41.7486 1519.48 43.2475 Q1521.47 44.7058 1527.46 46.0426 L1530.02 46.6097 Q1537.96 48.3111 1541.28 51.4303 Q1544.64 54.509 1544.64 60.0587 Q1544.64 66.3781 1539.62 70.0644 Q1534.63 73.7508 1525.88 73.7508 Q1522.24 73.7508 1518.27 73.0216 Q1514.34 72.3329 1509.96 70.9151 L1509.96 63.2184 Q1514.1 65.3654 1518.11 66.4591 Q1522.12 67.5124 1526.05 67.5124 Q1531.31 67.5124 1534.15 65.73 Q1536.98 63.9071 1536.98 60.6258 Q1536.98 57.5877 1534.92 55.9673 Q1532.89 54.3469 1525.97 52.8481 L1523.37 52.2405 Q1516.45 50.7821 1513.37 47.7845 Q1510.29 44.7463 1510.29 39.4801 Q1510.29 33.0797 1514.83 29.5959 Q1519.36 26.1121 1527.71 26.1121 Q1531.84 26.1121 1535.48 26.7198 Q1539.13 27.3274 1542.21 28.5427 Z" fill="#000000" fill-rule="evenodd" fill-opacity="1" /><path clip-path="url(#clip260)" d="M1558.41 62.2867 L1566.96 62.2867 L1566.96 69.2543 L1560.32 82.2172 L1555.09 82.2172 L1558.41 69.2543 L1558.41 62.2867 Z" fill="#000000" fill-rule="evenodd" fill-opacity="1" /><path clip-path="url(#clip260)" d="M1616.71 69.7809 L1616.71 89.8329 L1609.21 89.8329 L1609.21 27.4894 Q1609.21 9.01731 1626.47 9.01731 Q1644.05 9.01731 1644.05 24.6133 Q1644.05 35.7128 1637.08 39.7637 Q1648.42 43.4095 1648.42 54.2254 Q1648.42 73.4267 1628.9 73.4267 Q1620.31 73.4267 1616.71 69.7809 M1616.71 60.0587 Q1621.2 67.0668 1629.18 67.0668 Q1640.85 67.0668 1640.85 54.3469 Q1640.85 42.9234 1622.05 43.8146 L1622.05 36.928 Q1636.76 36.928 1636.76 23.9651 Q1636.76 15.0937 1627.28 15.0937 Q1616.71 15.0937 1616.71 27.7325 L1616.71 60.0587 Z" fill="#000000" fill-rule="evenodd" fill-opacity="1" /><path clip-path="url(#clip260)" d="M1689.54 34.9026 L1741.47 34.9026 L1741.47 41.7081 L1689.54 41.7081 L1689.54 34.9026 M1689.54 51.4303 L1741.47 51.4303 L1741.47 58.3168 L1689.54 58.3168 L1689.54 51.4303 Z" fill="#000000" fill-rule="evenodd" fill-opacity="1" /><path clip-path="url(#clip260)" d="M1803.01 17.4837 Q1796.69 17.4837 1793.49 23.7221 Q1790.33 29.92 1790.33 42.3968 Q1790.33 54.833 1793.49 61.0714 Q1796.69 67.2693 1803.01 67.2693 Q1809.37 67.2693 1812.53 61.0714 Q1815.73 54.833 1815.73 42.3968 Q1815.73 29.92 1812.53 23.7221 Q1809.37 17.4837 1803.01 17.4837 M1803.01 11.0023 Q1813.17 11.0023 1818.52 19.0636 Q1823.91 27.0843 1823.91 42.3968 Q1823.91 57.6687 1818.52 65.73 Q1813.17 73.7508 1803.01 73.7508 Q1792.84 73.7508 1787.45 65.73 Q1782.1 57.6687 1782.1 42.3968 Q1782.1 27.0843 1787.45 19.0636 Q1792.84 11.0023 1803.01 11.0023 Z" fill="#000000" fill-rule="evenodd" fill-opacity="1" /><path clip-path="url(#clip260)" d="M1838.29 62.2867 L1846.84 62.2867 L1846.84 72.576 L1838.29 72.576 L1838.29 62.2867 Z" fill="#000000" fill-rule="evenodd" fill-opacity="1" /><path clip-path="url(#clip260)" d="M1864.74 12.096 L1896.87 12.096 L1896.87 18.9825 L1872.24 18.9825 L1872.24 33.8088 Q1874.02 33.2012 1875.8 32.9176 Q1877.58 32.5936 1879.37 32.5936 Q1889.49 32.5936 1895.41 38.1433 Q1901.32 43.6931 1901.32 53.1722 Q1901.32 62.9348 1895.25 68.3631 Q1889.17 73.7508 1878.11 73.7508 Q1874.3 73.7508 1870.33 73.1026 Q1866.4 72.4545 1862.19 71.1582 L1862.19 62.9348 Q1865.84 64.9198 1869.72 65.892 Q1873.61 66.8642 1877.95 66.8642 Q1884.96 66.8642 1889.05 63.1779 Q1893.14 59.4916 1893.14 53.1722 Q1893.14 46.8528 1889.05 43.1664 Q1884.96 39.4801 1877.95 39.4801 Q1874.67 39.4801 1871.39 40.2093 Q1868.14 40.9384 1864.74 42.4778 L1864.74 12.096 Z" fill="#000000" fill-rule="evenodd" fill-opacity="1" /><path clip-path="url(#clip260)" d="M1918.3 62.2867 L1926.84 62.2867 L1926.84 69.2543 L1920.2 82.2172 L1914.97 82.2172 L1918.3 69.2543 L1918.3 62.2867 Z" fill="#000000" fill-rule="evenodd" fill-opacity="1" /><path clip-path="url(#clip260)" d="M1975.94 34.3355 L1985.86 62.3677 L2000.04 27.2059 L2007.94 27.2059 L1989.59 72.576 L1989.59 89.8329 L1982.14 89.8329 L1982.14 72.576 L1970.23 38.7104 Q1968.45 33.6063 1964.6 33.6063 L1962.61 33.6063 L1962.61 27.2059 L1965.45 27.2059 Q1973.43 27.2059 1975.94 34.3355 Z" fill="#000000" fill-rule="evenodd" fill-opacity="1" /><path clip-path="url(#clip260)" d="M2045.57 34.9026 L2097.51 34.9026 L2097.51 41.7081 L2045.57 41.7081 L2045.57 34.9026 M2045.57 51.4303 L2097.51 51.4303 L2097.51 58.3168 L2045.57 58.3168 L2045.57 51.4303 Z" fill="#000000" fill-rule="evenodd" fill-opacity="1" /><path clip-path="url(#clip260)" d="M2159.04 17.4837 Q2152.72 17.4837 2149.52 23.7221 Q2146.36 29.92 2146.36 42.3968 Q2146.36 54.833 2149.52 61.0714 Q2152.72 67.2693 2159.04 67.2693 Q2165.4 67.2693 2168.56 61.0714 Q2171.76 54.833 2171.76 42.3968 Q2171.76 29.92 2168.56 23.7221 Q2165.4 17.4837 2159.04 17.4837 M2159.04 11.0023 Q2169.21 11.0023 2174.56 19.0636 Q2179.94 27.0843 2179.94 42.3968 Q2179.94 57.6687 2174.56 65.73 Q2169.21 73.7508 2159.04 73.7508 Q2148.87 73.7508 2143.48 65.73 Q2138.14 57.6687 2138.14 42.3968 Q2138.14 27.0843 2143.48 19.0636 Q2148.87 11.0023 2159.04 11.0023 Z" fill="#000000" fill-rule="evenodd" fill-opacity="1" /><path clip-path="url(#clip260)" d="M2194.32 62.2867 L2202.87 62.2867 L2202.87 72.576 L2194.32 72.576 L2194.32 62.2867 Z" fill="#000000" fill-rule="evenodd" fill-opacity="1" /><path clip-path="url(#clip260)" d="M2238.2 17.4837 Q2231.88 17.4837 2228.68 23.7221 Q2225.52 29.92 2225.52 42.3968 Q2225.52 54.833 2228.68 61.0714 Q2231.88 67.2693 2238.2 67.2693 Q2244.55 67.2693 2247.71 61.0714 Q2250.91 54.833 2250.91 42.3968 Q2250.91 29.92 2247.71 23.7221 Q2244.55 17.4837 2238.2 17.4837 M2238.2 11.0023 Q2248.36 11.0023 2253.71 19.0636 Q2259.1 27.0843 2259.1 42.3968 Q2259.1 57.6687 2253.71 65.73 Q2248.36 73.7508 2238.2 73.7508 Q2228.03 73.7508 2222.64 65.73 Q2217.29 57.6687 2217.29 42.3968 Q2217.29 27.0843 2222.64 19.0636 Q2228.03 11.0023 2238.2 11.0023 Z" fill="#000000" fill-rule="evenodd" fill-opacity="1" /><path clip-path="url(#clip260)" d="M2298.27 39.9662 Q2304.14 41.222 2307.43 45.1919 Q2310.75 49.1618 2310.75 54.9951 Q2310.75 63.9476 2304.59 68.8492 Q2298.43 73.7508 2287.09 73.7508 Q2283.28 73.7508 2279.23 72.9811 Q2275.22 72.2519 2270.93 70.7531 L2270.93 62.8538 Q2274.33 64.8388 2278.38 65.8515 Q2282.43 66.8642 2286.85 66.8642 Q2294.54 66.8642 2298.55 63.826 Q2302.6 60.7879 2302.6 54.9951 Q2302.6 49.6479 2298.84 46.6502 Q2295.11 43.612 2288.43 43.612 L2281.38 43.612 L2281.38 36.8875 L2288.75 36.8875 Q2294.79 36.8875 2297.99 34.4975 Q2301.19 32.067 2301.19 27.5299 Q2301.19 22.8714 2297.86 20.4004 Q2294.58 17.8888 2288.43 17.8888 Q2285.06 17.8888 2281.22 18.618 Q2277.37 19.3471 2272.75 20.8865 L2272.75 13.5948 Q2277.41 12.2985 2281.46 11.6504 Q2285.55 11.0023 2289.16 11.0023 Q2298.47 11.0023 2303.9 15.2557 Q2309.33 19.4686 2309.33 26.6793 Q2309.33 31.7024 2306.45 35.1862 Q2303.58 38.6294 2298.27 39.9662 Z" fill="#000000" fill-rule="evenodd" fill-opacity="1" /><polyline clip-path="url(#clip262)" style="stroke:#009af9; stroke-linecap:round; stroke-linejoin:round; stroke-width:12; stroke-opacity:1; fill:none" points="
  266.557,173.254 268.934,173.254 271.31,173.254 273.687,173.254 276.063,173.254 278.44,173.255 280.816,173.255 283.193,173.255 285.57,173.255 287.946,173.255 
  290.323,173.255 292.699,173.255 295.076,173.255 297.452,173.255 299.829,173.256 302.206,173.256 304.582,173.256 306.959,173.256 309.335,173.256 311.712,173.256 
  314.089,173.257 316.465,173.257 318.842,173.257 321.218,173.257 323.595,173.257 325.971,173.258 328.348,173.258 330.725,173.258 333.101,173.258 335.478,173.259 
  337.854,173.259 340.231,173.259 342.607,173.26 344.984,173.26 347.361,173.26 349.737,173.261 352.114,173.261 354.49,173.262 356.867,173.262 359.243,173.262 
  361.62,173.263 363.997,173.263 366.373,173.264 368.75,173.264 371.126,173.265 373.503,173.266 375.879,173.266 378.256,173.267 380.633,173.268 383.009,173.268 
  385.386,173.269 387.762,173.27 390.139,173.271 392.516,173.272 394.892,173.272 397.269,173.273 399.645,173.274 402.022,173.275 404.398,173.277 406.775,173.278 
  409.152,173.279 411.528,173.28 413.905,173.281 416.281,173.283 418.658,173.284 421.034,173.286 423.411,173.287 425.788,173.289 428.164,173.291 430.541,173.293 
  432.917,173.295 435.294,173.297 437.67,173.299 440.047,173.301 442.424,173.303 444.8,173.306 447.177,173.308 449.553,173.311 451.93,173.314 454.306,173.316 
  456.683,173.319 459.06,173.323 461.436,173.326 463.813,173.33 466.189,173.333 468.566,173.337 470.942,173.341 473.319,173.345 475.696,173.35 478.072,173.354 
  480.449,173.359 482.825,173.364 485.202,173.37 487.579,173.375 489.955,173.381 492.332,173.387 494.708,173.394 497.085,173.4 499.461,173.407 501.838,173.415 
  504.215,173.422 506.591,173.431 508.968,173.439 511.344,173.448 513.721,173.457 516.097,173.467 518.474,173.477 520.851,173.488 523.227,173.499 525.604,173.511 
  527.98,173.523 530.357,173.536 532.733,173.55 535.11,173.564 537.487,173.579 539.863,173.594 542.24,173.61 544.616,173.627 546.993,173.645 549.369,173.664 
  551.746,173.684 554.123,173.704 556.499,173.726 558.876,173.748 561.252,173.772 563.629,173.797 566.006,173.823 568.382,173.85 570.759,173.878 573.135,173.908 
  575.512,173.939 577.888,173.972 580.265,174.006 582.642,174.042 585.018,174.08 587.395,174.119 589.771,174.161 592.148,174.204 594.524,174.249 596.901,174.297 
  599.278,174.346 601.654,174.398 604.031,174.453 606.407,174.51 608.784,174.57 611.16,174.633 613.537,174.699 615.914,174.767 618.29,174.84 620.667,174.915 
  623.043,174.994 625.42,175.077 627.796,175.164 630.173,175.255 632.55,175.35 634.926,175.45 637.303,175.555 639.679,175.665 642.056,175.78 644.433,175.9 
  646.809,176.026 649.186,176.158 651.562,176.296 653.939,176.441 656.315,176.592 658.692,176.751 661.069,176.918 663.445,177.092 665.822,177.274 668.198,177.465 
  670.575,177.665 672.951,177.875 675.328,178.095 677.705,178.325 680.081,178.566 682.458,178.818 684.834,179.083 687.211,179.36 689.587,179.65 691.964,179.953 
  694.341,180.271 696.717,180.604 699.094,180.953 701.47,181.318 703.847,181.7 706.223,182.101 708.6,182.52 710.977,182.958 713.353,183.418 715.73,183.899 
  718.106,184.402 720.483,184.929 722.859,185.481 725.236,186.059 727.613,186.664 729.989,187.297 732.366,187.96 734.742,188.654 737.119,189.381 739.496,190.142 
  741.872,190.938 744.249,191.77 746.625,192.642 749.002,193.553 751.378,194.507 753.755,195.505 756.132,196.549 758.508,197.64 760.885,198.782 763.261,199.977 
  765.638,201.226 768.014,202.532 770.391,203.899 772.768,205.328 775.144,206.822 777.521,208.384 779.897,210.017 782.274,211.724 784.65,213.509 787.027,215.374 
  789.404,217.323 791.78,219.359 794.157,221.486 796.533,223.707 798.91,226.027 801.286,228.449 803.663,230.976 806.04,233.614 808.416,236.366 810.793,239.237 
  813.169,242.233 815.546,245.359 817.923,248.619 820.299,252.019 822.676,255.564 825.052,259.259 827.429,263.11 829.805,267.122 832.182,271.301 834.559,275.652 
  836.935,280.182 839.312,284.895 841.688,289.797 844.065,294.896 846.441,300.196 848.818,305.704 851.195,311.426 853.571,317.368 855.948,323.537 858.324,329.937 
  860.701,336.573 863.077,343.452 865.454,350.581 867.831,357.969 870.207,365.62 872.584,373.541 874.96,381.738 877.337,390.215 879.713,398.977 882.09,408.029 
  884.467,417.373 886.843,427.013 889.22,436.951 891.596,447.191 893.973,457.734 896.35,468.581 898.726,479.733 901.103,491.19 903.479,502.953 905.856,515.022 
  908.232,527.394 910.609,540.069 912.986,553.045 915.362,566.32 917.739,579.892 920.115,593.756 922.492,607.902 924.868,622.324 927.245,637.01 929.622,651.95 
  931.998,667.135 934.375,682.553 936.751,698.192 939.128,714.041 941.504,730.086 943.881,746.314 946.258,762.713 948.634,779.266 951.011,795.96 953.387,812.779 
  955.764,829.708 958.14,846.729 960.517,863.827 962.894,880.983 965.27,898.179 967.647,915.397 970.023,932.618 972.4,949.823 974.776,966.99 977.153,984.101 
  979.53,1001.14 981.906,1018.09 984.283,1034.93 986.659,1051.65 989.036,1068.23 991.413,1084.66 993.789,1100.92 996.166,1116.99 998.542,1132.87 1000.92,1148.54 
  1003.3,1164 1005.67,1179.22 1008.05,1194.21 1010.43,1208.94 1012.8,1223.42 1015.18,1237.63 1017.55,1251.57 1019.93,1265.24 1022.31,1278.62 1024.68,1291.71 
  1027.06,1304.51 1029.44,1317.01 1031.81,1329.21 1034.19,1341.12 1036.57,1352.73 1038.94,1364.03 1041.32,1375.04 1043.7,1385.74 1046.07,1396.16 1048.45,1406.27 
  1050.83,1416.1 1053.2,1425.64 1055.58,1434.91 1057.96,1443.89 1060.33,1452.6 1062.71,1461.05 1065.09,1469.23 1067.46,1477.15 1069.84,1484.81 1072.22,1492.23 
  1074.59,1499.4 1076.97,1506.33 1079.35,1513.03 1081.72,1519.5 1084.1,1525.75 1086.48,1531.77 1088.85,1537.58 1091.23,1543.19 1093.61,1548.59 1095.98,1553.8 
  1098.36,1558.82 1100.73,1563.65 1103.11,1568.31 1105.49,1572.8 1107.86,1577.12 1110.24,1581.28 1112.62,1585.29 1114.99,1589.15 1117.37,1592.88 1119.75,1596.47 
  1122.12,1599.93 1124.5,1603.26 1126.88,1606.47 1129.25,1609.55 1131.63,1612.52 1134.01,1615.38 1136.38,1618.13 1138.76,1620.77 1141.14,1623.31 1143.51,1625.76 
  1145.89,1628.11 1148.27,1630.36 1150.64,1632.53 1153.02,1634.62 1155.4,1636.63 1157.77,1638.55 1160.15,1640.4 1162.53,1642.19 1164.9,1643.9 1167.28,1645.54 
  1169.66,1647.13 1172.03,1648.65 1174.41,1650.11 1176.79,1651.52 1179.16,1652.88 1181.54,1654.19 1183.92,1655.45 1186.29,1656.66 1188.67,1657.82 1191.04,1658.94 
  1193.42,1660.02 1195.8,1661.05 1198.17,1662.05 1200.55,1663.01 1202.93,1663.93 1205.3,1664.81 1207.68,1665.67 1210.06,1666.48 1212.43,1667.27 1214.81,1668.03 
  1217.19,1668.76 1219.56,1669.46 1221.94,1670.14 1224.32,1670.79 1226.69,1671.41 1229.07,1672.02 1231.45,1672.6 1233.82,1673.16 1236.2,1673.69 1238.58,1674.21 
  1240.95,1674.71 1243.33,1675.19 1245.71,1675.66 1248.08,1676.11 1250.46,1676.54 1252.84,1676.95 1255.21,1677.35 1257.59,1677.73 1259.97,1678.1 1262.34,1678.46 
  1264.72,1678.8 1267.1,1679.14 1269.47,1679.45 1271.85,1679.76 1274.23,1680.06 1276.6,1680.34 1278.98,1680.62 1281.35,1680.89 1283.73,1681.14 1286.11,1681.39 
  1288.48,1681.63 1290.86,1681.86 1293.24,1682.08 1295.61,1682.29 1297.99,1682.5 1300.37,1682.7 1302.74,1682.89 1305.12,1683.08 1307.5,1683.26 1309.87,1683.43 
  1312.25,1683.6 1314.63,1683.76 1317,1683.91 1319.38,1684.06 1321.76,1684.21 1324.13,1684.35 1326.51,1684.48 1328.89,1684.62 1331.26,1684.74 1333.64,1684.86 
  1336.02,1684.98 1338.39,1685.1 1340.77,1685.2 1343.15,1685.31 1345.52,1685.41 1347.9,1685.51 1350.28,1685.61 1352.65,1685.7 1355.03,1685.79 1357.41,1685.88 
  1359.78,1685.96 1362.16,1686.04 1364.53,1686.12 1366.91,1686.2 1369.29,1686.27 1371.66,1686.34 1374.04,1686.41 1376.42,1686.48 1378.79,1686.54 1381.17,1686.6 
  1383.55,1686.66 1385.92,1686.72 1388.3,1686.78 1390.68,1686.83 1393.05,1686.89 1395.43,1686.94 1397.81,1686.99 1400.18,1687.04 1402.56,1687.08 1404.94,1687.13 
  1407.31,1687.17 1409.69,1687.21 1412.07,1687.25 1414.44,1687.29 1416.82,1687.33 1419.2,1687.37 1421.57,1687.4 1423.95,1687.44 1426.33,1687.47 1428.7,1687.51 
  1431.08,1687.54 1433.46,1687.57 1435.83,1687.6 1438.21,1687.63 1440.59,1687.66 1442.96,1687.68 1445.34,1687.71 1447.72,1687.74 1450.09,1687.76 1452.47,1687.78 
  1454.84,1687.81 1457.22,1687.83 1459.6,1687.85 1461.97,1687.87 1464.35,1687.89 1466.73,1687.92 1469.1,1687.93 1471.48,1687.95 1473.86,1687.97 1476.23,1687.99 
  1478.61,1688.01 1480.99,1688.02 1483.36,1688.04 1485.74,1688.06 1488.12,1688.07 1490.49,1688.09 1492.87,1688.1 1495.25,1688.12 1497.62,1688.13 1500,1688.14 
  1502.38,1688.16 1504.75,1688.17 1507.13,1688.18 1509.51,1688.19 1511.88,1688.2 1514.26,1688.22 1516.64,1688.23 1519.01,1688.24 1521.39,1688.25 1523.77,1688.26 
  1526.14,1688.27 1528.52,1688.28 1530.9,1688.29 1533.27,1688.3 1535.65,1688.3 1538.02,1688.31 1540.4,1688.32 1542.78,1688.33 1545.15,1688.34 1547.53,1688.34 
  1549.91,1688.35 1552.28,1688.36 1554.66,1688.37 1557.04,1688.37 1559.41,1688.38 1561.79,1688.39 1564.17,1688.39 1566.54,1688.4 1568.92,1688.4 1571.3,1688.41 
  1573.67,1688.42 1576.05,1688.42 1578.43,1688.43 1580.8,1688.43 1583.18,1688.44 1585.56,1688.44 1587.93,1688.45 1590.31,1688.45 1592.69,1688.46 1595.06,1688.46 
  1597.44,1688.47 1599.82,1688.47 1602.19,1688.47 1604.57,1688.48 1606.95,1688.48 1609.32,1688.49 1611.7,1688.49 1614.08,1688.49 1616.45,1688.5 1618.83,1688.5 
  1621.21,1688.5 1623.58,1688.51 1625.96,1688.51 1628.33,1688.51 1630.71,1688.52 1633.09,1688.52 1635.46,1688.52 1637.84,1688.53 1640.22,1688.53 1642.59,1688.53 
  1644.97,1688.53 1647.35,1688.54 1649.72,1688.54 1652.1,1688.54 1654.48,1688.54 1656.85,1688.55 1659.23,1688.55 1661.61,1688.55 1663.98,1688.55 1666.36,1688.55 
  1668.74,1688.56 1671.11,1688.56 1673.49,1688.56 1675.87,1688.56 1678.24,1688.56 1680.62,1688.57 1683,1688.57 1685.37,1688.57 1687.75,1688.57 1690.13,1688.57 
  1692.5,1688.57 1694.88,1688.58 1697.26,1688.58 1699.63,1688.58 1702.01,1688.58 1704.39,1688.58 1706.76,1688.58 1709.14,1688.59 1711.51,1688.59 1713.89,1688.59 
  1716.27,1688.59 1718.64,1688.59 1721.02,1688.59 1723.4,1688.59 1725.77,1688.59 1728.15,1688.6 1730.53,1688.6 1732.9,1688.6 1735.28,1688.6 1737.66,1688.6 
  1740.03,1688.6 1742.41,1688.6 1744.79,1688.6 1747.16,1688.6 1749.54,1688.6 1751.92,1688.61 1754.29,1688.61 1756.67,1688.61 1759.05,1688.61 1761.42,1688.61 
  1763.8,1688.61 1766.18,1688.61 1768.55,1688.61 1770.93,1688.61 1773.31,1688.61 1775.68,1688.61 1778.06,1688.61 1780.44,1688.62 1782.81,1688.62 1785.19,1688.62 
  1787.57,1688.62 1789.94,1688.62 1792.32,1688.62 1794.7,1688.62 1797.07,1688.62 1799.45,1688.62 1801.82,1688.62 1804.2,1688.62 1806.58,1688.62 1808.95,1688.62 
  1811.33,1688.62 1813.71,1688.62 1816.08,1688.62 1818.46,1688.63 1820.84,1688.63 1823.21,1688.63 1825.59,1688.63 1827.97,1688.63 1830.34,1688.63 1832.72,1688.63 
  1835.1,1688.63 1837.47,1688.63 1839.85,1688.63 1842.23,1688.63 1844.6,1688.63 1846.98,1688.63 1849.36,1688.63 1851.73,1688.63 1854.11,1688.63 1856.49,1688.63 
  1858.86,1688.63 1861.24,1688.63 1863.62,1688.63 1865.99,1688.63 1868.37,1688.63 1870.75,1688.63 1873.12,1688.63 1875.5,1688.64 1877.88,1688.64 1880.25,1688.64 
  1882.63,1688.64 1885,1688.64 1887.38,1688.64 1889.76,1688.64 1892.13,1688.64 1894.51,1688.64 1896.89,1688.64 1899.26,1688.64 1901.64,1688.64 1904.02,1688.64 
  1906.39,1688.64 1908.77,1688.64 1911.15,1688.64 1913.52,1688.64 1915.9,1688.64 1918.28,1688.64 1920.65,1688.64 1923.03,1688.64 1925.41,1688.64 1927.78,1688.64 
  1930.16,1688.64 1932.54,1688.64 1934.91,1688.64 1937.29,1688.64 1939.67,1688.64 1942.04,1688.64 1944.42,1688.64 1946.8,1688.64 1949.17,1688.64 1951.55,1688.64 
  1953.93,1688.64 1956.3,1688.64 1958.68,1688.64 1961.06,1688.64 1963.43,1688.64 1965.81,1688.64 1968.19,1688.64 1970.56,1688.64 1972.94,1688.64 1975.31,1688.64 
  1977.69,1688.64 1980.07,1688.64 1982.44,1688.64 1984.82,1688.65 1987.2,1688.65 1989.57,1688.65 1991.95,1688.65 1994.33,1688.65 1996.7,1688.65 1999.08,1688.65 
  2001.46,1688.65 2003.83,1688.65 2006.21,1688.65 2008.59,1688.65 2010.96,1688.65 2013.34,1688.65 2015.72,1688.65 2018.09,1688.65 2020.47,1688.65 2022.85,1688.65 
  2025.22,1688.65 2027.6,1688.65 2029.98,1688.65 2032.35,1688.65 2034.73,1688.65 2037.11,1688.65 2039.48,1688.65 2041.86,1688.65 2044.24,1688.65 2046.61,1688.65 
  2048.99,1688.65 2051.37,1688.65 2053.74,1688.65 2056.12,1688.65 2058.49,1688.65 2060.87,1688.65 2063.25,1688.65 2065.62,1688.65 2068,1688.65 2070.38,1688.65 
  2072.75,1688.65 2075.13,1688.65 2077.51,1688.65 2079.88,1688.65 2082.26,1688.65 2084.64,1688.65 2087.01,1688.65 2089.39,1688.65 2091.77,1688.65 2094.14,1688.65 
  2096.52,1688.65 2098.9,1688.65 2101.27,1688.65 2103.65,1688.65 2106.03,1688.65 2108.4,1688.65 2110.78,1688.65 2113.16,1688.65 2115.53,1688.65 2117.91,1688.65 
  2120.29,1688.65 2122.66,1688.65 2125.04,1688.65 2127.42,1688.65 2129.79,1688.65 2132.17,1688.65 2134.55,1688.65 2136.92,1688.65 2139.3,1688.65 2141.68,1688.65 
  2144.05,1688.65 2146.43,1688.65 2148.8,1688.65 2151.18,1688.65 2153.56,1688.65 2155.93,1688.65 2158.31,1688.65 2160.69,1688.65 2163.06,1688.65 2165.44,1688.65 
  2167.82,1688.65 2170.19,1688.65 2172.57,1688.65 2174.95,1688.65 2177.32,1688.65 2179.7,1688.65 2182.08,1688.65 2184.45,1688.65 2186.83,1688.65 2189.21,1688.65 
  2191.58,1688.65 2193.96,1688.65 2196.34,1688.65 2198.71,1688.65 2201.09,1688.65 2203.47,1688.65 2205.84,1688.65 2208.22,1688.65 2210.6,1688.65 2212.97,1688.65 
  2215.35,1688.65 2217.73,1688.65 2220.1,1688.65 2222.48,1688.65 2224.86,1688.65 2227.23,1688.65 2229.61,1688.65 2231.98,1688.65 2234.36,1688.65 2236.74,1688.65 
  2239.11,1688.65 2241.49,1688.65 2243.87,1688.65 2246.24,1688.65 2248.62,1688.65 2251,1688.65 2253.37,1688.65 2255.75,1688.65 2258.13,1688.65 2260.5,1688.65 
  2262.88,1688.65 2265.26,1688.65 2267.63,1688.65 2270.01,1688.65 2272.39,1688.65 2274.76,1688.65 2277.14,1688.65 2279.52,1688.65 2281.89,1688.65 2284.27,1688.65 
  2286.65,1688.65 2289.02,1688.65 2291.4,1688.65 2293.78,1688.65 2296.15,1688.65 2298.53,1688.65 2300.91,1688.65 2303.28,1688.65 2305.66,1688.65 2308.04,1688.65 
  2310.41,1688.65 2312.79,1688.65 2315.17,1688.65 2317.54,1688.65 2319.92,1688.65 2322.29,1688.65 2324.67,1688.65 2327.05,1688.65 2329.42,1688.65 2331.8,1688.65 
  2334.18,1688.65 2336.55,1688.65 2338.93,1688.65 2341.31,1688.65 2343.68,1688.65 2346.06,1688.65 2348.44,1688.65 2350.81,1688.65 2353.19,1688.65 2355.57,1688.65 
  2357.94,1688.65 2360.32,1688.65 2362.7,1688.65 2365.07,1688.65 2367.45,1688.65 2369.83,1688.65 2372.2,1688.65 2374.58,1688.65 2376.96,1688.65 2379.33,1688.65 
  2381.71,1688.65 2384.09,1688.65 2386.46,1688.65 2388.84,1688.65 2391.22,1688.65 2393.59,1688.65 2395.97,1688.65 2398.35,1688.65 2400.72,1688.65 2403.1,1688.65 
  2405.47,1688.65 2407.85,1688.65 2410.23,1688.65 2412.6,1688.65 2414.98,1688.65 2417.36,1688.65 2419.73,1688.65 2422.11,1688.65 2424.49,1688.65 2426.86,1688.65 
  2429.24,1688.65 2431.62,1688.65 2433.99,1688.65 2436.37,1688.65 2438.75,1688.65 2441.12,1688.65 2443.5,1688.65 2445.88,1688.65 2448.25,1688.65 2450.63,1688.65 
  2453.01,1688.65 2455.38,1688.65 2457.76,1688.65 2460.14,1688.65 2462.51,1688.65 2464.89,1688.65 2467.27,1688.65 2469.64,1688.65 2472.02,1688.65 2474.4,1688.65 
  2476.77,1688.65 2479.15,1688.65 2481.53,1688.65 2483.9,1688.65 2486.28,1688.65 2488.66,1688.65 2491.03,1688.65 2493.41,1688.65 2495.78,1688.65 2498.16,1688.65 
  2500.54,1688.65 2502.91,1688.65 2505.29,1688.65 2507.67,1688.65 2510.04,1688.65 2512.42,1688.65 2514.8,1688.65 2517.17,1688.65 2519.55,1688.65 2521.93,1688.65 
  2524.3,1688.65 2526.68,1688.65 2529.06,1688.65 2531.43,1688.65 2533.81,1688.65 2536.19,1688.65 2538.56,1688.65 2540.94,1688.65 2543.32,1688.65 2545.69,1688.65 
  2548.07,1688.65 2550.45,1688.65 2552.82,1688.65 2555.2,1688.65 2557.58,1688.65 2559.95,1688.65 2562.33,1688.65 2564.71,1688.65 2567.08,1688.65 2569.46,1688.65 
  2571.84,1688.65 2574.21,1688.65 2576.59,1688.65 2578.96,1688.65 2581.34,1688.65 2583.72,1688.65 2586.09,1688.65 2588.47,1688.65 2590.85,1688.65 2593.22,1688.65 
  2595.6,1688.65 2597.98,1688.65 2600.35,1688.65 2602.73,1688.65 2605.11,1688.65 2607.48,1688.65 2609.86,1688.65 2612.24,1688.65 2614.61,1688.65 2616.99,1688.65 
  2619.37,1688.65 2621.74,1688.65 2624.12,1688.65 2626.5,1688.65 2628.87,1688.65 2631.25,1688.65 2633.63,1688.65 2636,1688.65 2638.38,1688.65 2640.76,1688.65 
  
  "/>
<polyline clip-path="url(#clip262)" style="stroke:#e26f46; stroke-linecap:round; stroke-linejoin:round; stroke-width:12; stroke-opacity:1; fill:none" points="
  266.557,1688.65 268.934,1688.65 271.31,1688.65 273.687,1688.65 276.063,1688.65 278.44,1688.65 280.816,1688.65 283.193,1688.65 285.57,1688.65 287.946,1688.65 
  290.323,1688.65 292.699,1688.65 295.076,1688.65 297.452,1688.65 299.829,1688.65 302.206,1688.65 304.582,1688.65 306.959,1688.65 309.335,1688.65 311.712,1688.65 
  314.089,1688.65 316.465,1688.65 318.842,1688.65 321.218,1688.65 323.595,1688.65 325.971,1688.65 328.348,1688.65 330.725,1688.65 333.101,1688.65 335.478,1688.65 
  337.854,1688.65 340.231,1688.65 342.607,1688.65 344.984,1688.65 347.361,1688.65 349.737,1688.65 352.114,1688.65 354.49,1688.65 356.867,1688.65 359.243,1688.65 
  361.62,1688.65 363.997,1688.64 366.373,1688.64 368.75,1688.64 371.126,1688.64 373.503,1688.64 375.879,1688.64 378.256,1688.64 380.633,1688.64 383.009,1688.64 
  385.386,1688.64 387.762,1688.64 390.139,1688.64 392.516,1688.64 394.892,1688.64 397.269,1688.64 399.645,1688.63 402.022,1688.63 404.398,1688.63 406.775,1688.63 
  409.152,1688.63 411.528,1688.63 413.905,1688.63 416.281,1688.63 418.658,1688.63 421.034,1688.62 423.411,1688.62 425.788,1688.62 428.164,1688.62 430.541,1688.62 
  432.917,1688.62 435.294,1688.61 437.67,1688.61 440.047,1688.61 442.424,1688.61 444.8,1688.61 447.177,1688.6 449.553,1688.6 451.93,1688.6 454.306,1688.59 
  456.683,1688.59 459.06,1688.59 461.436,1688.59 463.813,1688.58 466.189,1688.58 468.566,1688.58 470.942,1688.57 473.319,1688.57 475.696,1688.56 478.072,1688.56 
  480.449,1688.55 482.825,1688.55 485.202,1688.54 487.579,1688.54 489.955,1688.53 492.332,1688.53 494.708,1688.52 497.085,1688.52 499.461,1688.51 501.838,1688.5 
  504.215,1688.5 506.591,1688.49 508.968,1688.48 511.344,1688.47 513.721,1688.46 516.097,1688.45 518.474,1688.44 520.851,1688.43 523.227,1688.42 525.604,1688.41 
  527.98,1688.4 530.357,1688.39 532.733,1688.38 535.11,1688.36 537.487,1688.35 539.863,1688.33 542.24,1688.32 544.616,1688.3 546.993,1688.29 549.369,1688.27 
  551.746,1688.25 554.123,1688.23 556.499,1688.21 558.876,1688.19 561.252,1688.17 563.629,1688.14 566.006,1688.12 568.382,1688.09 570.759,1688.07 573.135,1688.04 
  575.512,1688.01 577.888,1687.98 580.265,1687.95 582.642,1687.91 585.018,1687.88 587.395,1687.84 589.771,1687.8 592.148,1687.76 594.524,1687.72 596.901,1687.67 
  599.278,1687.63 601.654,1687.58 604.031,1687.53 606.407,1687.47 608.784,1687.42 611.16,1687.36 613.537,1687.3 615.914,1687.23 618.29,1687.16 620.667,1687.09 
  623.043,1687.02 625.42,1686.94 627.796,1686.86 630.173,1686.77 632.55,1686.68 634.926,1686.59 637.303,1686.49 639.679,1686.39 642.056,1686.28 644.433,1686.17 
  646.809,1686.05 649.186,1685.92 651.562,1685.79 653.939,1685.66 656.315,1685.52 658.692,1685.37 661.069,1685.21 663.445,1685.05 665.822,1684.87 668.198,1684.7 
  670.575,1684.51 672.951,1684.31 675.328,1684.1 677.705,1683.89 680.081,1683.66 682.458,1683.42 684.834,1683.18 687.211,1682.92 689.587,1682.64 691.964,1682.36 
  694.341,1682.06 696.717,1681.75 699.094,1681.42 701.47,1681.07 703.847,1680.72 706.223,1680.34 708.6,1679.95 710.977,1679.53 713.353,1679.1 715.73,1678.65 
  718.106,1678.18 720.483,1677.68 722.859,1677.16 725.236,1676.62 727.613,1676.05 729.989,1675.46 732.366,1674.83 734.742,1674.18 737.119,1673.5 739.496,1672.78 
  741.872,1672.04 744.249,1671.26 746.625,1670.44 749.002,1669.58 751.378,1668.68 753.755,1667.75 756.132,1666.77 758.508,1665.74 760.885,1664.67 763.261,1663.55 
  765.638,1662.38 768.014,1661.15 770.391,1659.87 772.768,1658.53 775.144,1657.12 777.521,1655.66 779.897,1654.12 782.274,1652.52 784.65,1650.85 787.027,1649.1 
  789.404,1647.27 791.78,1645.36 794.157,1643.36 796.533,1641.28 798.91,1639.1 801.286,1636.83 803.663,1634.46 806.04,1631.99 808.416,1629.41 810.793,1626.72 
  813.169,1623.91 815.546,1620.98 817.923,1617.93 820.299,1614.74 822.676,1611.42 825.052,1607.96 827.429,1604.36 829.805,1600.6 832.182,1596.69 834.559,1592.62 
  836.935,1588.38 839.312,1583.97 841.688,1579.39 844.065,1574.62 846.441,1569.67 848.818,1564.52 851.195,1559.17 853.571,1553.63 855.948,1547.87 858.324,1541.89 
  860.701,1535.7 863.077,1529.29 865.454,1522.64 867.831,1515.76 870.207,1508.63 872.584,1501.25 874.96,1493.63 877.337,1485.74 879.713,1477.59 882.09,1469.18 
  884.467,1460.5 886.843,1451.56 889.22,1442.34 891.596,1432.84 893.973,1423.07 896.35,1413.03 898.726,1402.72 901.103,1392.12 903.479,1381.26 905.856,1370.12 
  908.232,1358.71 910.609,1347.04 912.986,1335.09 915.362,1322.89 917.739,1310.42 920.115,1297.7 922.492,1284.74 924.868,1271.53 927.245,1258.11 929.622,1244.47 
  931.998,1230.62 934.375,1216.59 936.751,1202.37 939.128,1187.99 941.504,1173.46 943.881,1158.78 946.258,1143.98 948.634,1129.07 951.011,1114.06 953.387,1098.97 
  955.764,1083.82 958.14,1068.62 960.517,1053.39 962.894,1038.14 965.27,1022.9 967.647,1007.69 970.023,992.514 972.4,977.402 974.776,962.371 977.153,947.442 
  979.53,932.631 981.906,917.953 984.283,903.426 986.659,889.064 989.036,874.883 991.413,860.899 993.789,847.124 996.166,833.572 998.542,820.255 1000.92,807.185 
  1003.3,794.371 1005.67,781.825 1008.05,769.554 1010.43,757.569 1012.8,745.875 1015.18,734.481 1017.55,723.392 1019.93,712.614 1022.31,702.15 1024.68,692.006 
  1027.06,682.183 1029.44,672.684 1031.81,663.512 1034.19,654.665 1036.57,646.145 1038.94,637.95 1041.32,630.08 1043.7,622.53 1046.07,615.3 1048.45,608.383 
  1050.83,601.777 1053.2,595.475 1055.58,589.472 1057.96,583.764 1060.33,578.344 1062.71,573.207 1065.09,568.35 1067.46,563.765 1069.84,559.448 1072.22,555.393 
  1074.59,551.595 1076.97,548.047 1079.35,544.745 1081.72,541.681 1084.1,538.85 1086.48,536.247 1088.85,533.863 1091.23,531.695 1093.61,529.734 1095.98,527.975 
  1098.36,526.41 1100.73,525.035 1103.11,523.84 1105.49,522.821 1107.86,521.969 1110.24,521.278 1112.62,520.74 1114.99,520.349 1117.37,520.097 1119.75,519.98 
  1122.12,519.994 1124.5,520.137 1126.88,520.404 1129.25,520.79 1131.63,521.291 1134.01,521.903 1136.38,522.622 1138.76,523.444 1141.14,524.365 1143.51,525.382 
  1145.89,526.489 1148.27,527.685 1150.64,528.964 1153.02,530.324 1155.4,531.761 1157.77,533.272 1160.15,534.852 1162.53,536.5 1164.9,538.212 1167.28,539.984 
  1169.66,541.813 1172.03,543.698 1174.41,545.634 1176.79,547.618 1179.16,549.649 1181.54,551.725 1183.92,553.844 1186.29,556.005 1188.67,558.205 1191.04,560.443 
  1193.42,562.717 1195.8,565.026 1198.17,567.367 1200.55,569.739 1202.93,572.141 1205.3,574.571 1207.68,577.028 1210.06,579.51 1212.43,582.015 1214.81,584.543 
  1217.19,587.093 1219.56,589.662 1221.94,592.25 1224.32,594.856 1226.69,597.478 1229.07,600.115 1231.45,602.767 1233.82,605.433 1236.2,608.111 1238.58,610.8 
  1240.95,613.501 1243.33,616.212 1245.71,618.932 1248.08,621.661 1250.46,624.399 1252.84,627.145 1255.21,629.897 1257.59,632.656 1259.97,635.421 1262.34,638.192 
  1264.72,640.967 1267.1,643.746 1269.47,646.529 1271.85,649.316 1274.23,652.105 1276.6,654.897 1278.98,657.691 1281.35,660.486 1283.73,663.283 1286.11,666.08 
  1288.48,668.877 1290.86,671.675 1293.24,674.473 1295.61,677.269 1297.99,680.065 1300.37,682.86 1302.74,685.654 1305.12,688.446 1307.5,691.236 1309.87,694.024 
  1312.25,696.809 1314.63,699.593 1317,702.373 1319.38,705.151 1321.76,707.926 1324.13,710.697 1326.51,713.465 1328.89,716.23 1331.26,718.991 1333.64,721.747 
  1336.02,724.5 1338.39,727.249 1340.77,729.993 1343.15,732.733 1345.52,735.468 1347.9,738.199 1350.28,740.924 1352.65,743.645 1355.03,746.361 1357.41,749.071 
  1359.78,751.777 1362.16,754.477 1364.53,757.172 1366.91,759.861 1369.29,762.545 1371.66,765.223 1374.04,767.896 1376.42,770.563 1378.79,773.224 1381.17,775.879 
  1383.55,778.529 1385.92,781.172 1388.3,783.81 1390.68,786.441 1393.05,789.067 1395.43,791.686 1397.81,794.3 1400.18,796.907 1402.56,799.508 1404.94,802.102 
  1407.31,804.69 1409.69,807.272 1412.07,809.848 1414.44,812.417 1416.82,814.98 1419.2,817.536 1421.57,820.086 1423.95,822.63 1426.33,825.167 1428.7,827.697 
  1431.08,830.221 1433.46,832.739 1435.83,835.25 1438.21,837.754 1440.59,840.252 1442.96,842.743 1445.34,845.228 1447.72,847.706 1450.09,850.178 1452.47,852.642 
  1454.84,855.101 1457.22,857.553 1459.6,859.998 1461.97,862.436 1464.35,864.868 1466.73,867.294 1469.1,869.712 1471.48,872.124 1473.86,874.53 1476.23,876.929 
  1478.61,879.321 1480.99,881.707 1483.36,884.086 1485.74,886.458 1488.12,888.824 1490.49,891.184 1492.87,893.537 1495.25,895.883 1497.62,898.222 1500,900.555 
  1502.38,902.882 1504.75,905.202 1507.13,907.515 1509.51,909.822 1511.88,912.123 1514.26,914.417 1516.64,916.704 1519.01,918.985 1521.39,921.259 1523.77,923.527 
  1526.14,925.789 1528.52,928.044 1530.9,930.293 1533.27,932.535 1535.65,934.771 1538.02,937 1540.4,939.223 1542.78,941.44 1545.15,943.65 1547.53,945.854 
  1549.91,948.052 1552.28,950.243 1554.66,952.428 1557.04,954.607 1559.41,956.779 1561.79,958.945 1564.17,961.105 1566.54,963.259 1568.92,965.406 1571.3,967.548 
  1573.67,969.682 1576.05,971.811 1578.43,973.934 1580.8,976.05 1583.18,978.161 1585.56,980.265 1587.93,982.363 1590.31,984.455 1592.69,986.541 1595.06,988.62 
  1597.44,990.694 1599.82,992.762 1602.19,994.823 1604.57,996.879 1606.95,998.929 1609.32,1000.97 1611.7,1003.01 1614.08,1005.04 1616.45,1007.07 1618.83,1009.09 
  1621.21,1011.1 1623.58,1013.11 1625.96,1015.11 1628.33,1017.11 1630.71,1019.1 1633.09,1021.08 1635.46,1023.06 1637.84,1025.03 1640.22,1027 1642.59,1028.96 
  1644.97,1030.92 1647.35,1032.87 1649.72,1034.81 1652.1,1036.75 1654.48,1038.68 1656.85,1040.61 1659.23,1042.53 1661.61,1044.45 1663.98,1046.36 1666.36,1048.26 
  1668.74,1050.16 1671.11,1052.06 1673.49,1053.94 1675.87,1055.83 1678.24,1057.7 1680.62,1059.57 1683,1061.44 1685.37,1063.3 1687.75,1065.15 1690.13,1067 
  1692.5,1068.85 1694.88,1070.69 1697.26,1072.52 1699.63,1074.35 1702.01,1076.17 1704.39,1077.99 1706.76,1079.8 1709.14,1081.6 1711.51,1083.4 1713.89,1085.2 
  1716.27,1086.99 1718.64,1088.77 1721.02,1090.55 1723.4,1092.33 1725.77,1094.1 1728.15,1095.86 1730.53,1097.62 1732.9,1099.37 1735.28,1101.12 1737.66,1102.86 
  1740.03,1104.6 1742.41,1106.33 1744.79,1108.06 1747.16,1109.78 1749.54,1111.5 1751.92,1113.21 1754.29,1114.92 1756.67,1116.62 1759.05,1118.32 1761.42,1120.01 
  1763.8,1121.7 1766.18,1123.38 1768.55,1125.06 1770.93,1126.73 1773.31,1128.4 1775.68,1130.06 1778.06,1131.72 1780.44,1133.37 1782.81,1135.02 1785.19,1136.66 
  1787.57,1138.3 1789.94,1139.93 1792.32,1141.56 1794.7,1143.19 1797.07,1144.8 1799.45,1146.42 1801.82,1148.03 1804.2,1149.63 1806.58,1151.23 1808.95,1152.83 
  1811.33,1154.42 1813.71,1156 1816.08,1157.58 1818.46,1159.16 1820.84,1160.73 1823.21,1162.3 1825.59,1163.86 1827.97,1165.42 1830.34,1166.97 1832.72,1168.52 
  1835.1,1170.06 1837.47,1171.6 1839.85,1173.13 1842.23,1174.66 1844.6,1176.19 1846.98,1177.71 1849.36,1179.23 1851.73,1180.74 1854.11,1182.25 1856.49,1183.75 
  1858.86,1185.25 1861.24,1186.74 1863.62,1188.23 1865.99,1189.72 1868.37,1191.2 1870.75,1192.67 1873.12,1194.14 1875.5,1195.61 1877.88,1197.08 1880.25,1198.53 
  1882.63,1199.99 1885,1201.44 1887.38,1202.89 1889.76,1204.33 1892.13,1205.76 1894.51,1207.2 1896.89,1208.63 1899.26,1210.05 1901.64,1211.47 1904.02,1212.89 
  1906.39,1214.3 1908.77,1215.71 1911.15,1217.11 1913.52,1218.51 1915.9,1219.91 1918.28,1221.3 1920.65,1222.69 1923.03,1224.07 1925.41,1225.45 1927.78,1226.82 
  1930.16,1228.19 1932.54,1229.56 1934.91,1230.92 1937.29,1232.28 1939.67,1233.64 1942.04,1234.99 1944.42,1236.33 1946.8,1237.68 1949.17,1239.01 1951.55,1240.35 
  1953.93,1241.68 1956.3,1243.01 1958.68,1244.33 1961.06,1245.65 1963.43,1246.96 1965.81,1248.27 1968.19,1249.58 1970.56,1250.88 1972.94,1252.18 1975.31,1253.48 
  1977.69,1254.77 1980.07,1256.06 1982.44,1257.34 1984.82,1258.62 1987.2,1259.9 1989.57,1261.17 1991.95,1262.44 1994.33,1263.71 1996.7,1264.97 1999.08,1266.22 
  2001.46,1267.48 2003.83,1268.73 2006.21,1269.98 2008.59,1271.22 2010.96,1272.46 2013.34,1273.69 2015.72,1274.92 2018.09,1276.15 2020.47,1277.38 2022.85,1278.6 
  2025.22,1279.81 2027.6,1281.03 2029.98,1282.24 2032.35,1283.44 2034.73,1284.65 2037.11,1285.85 2039.48,1287.04 2041.86,1288.23 2044.24,1289.42 2046.61,1290.61 
  2048.99,1291.79 2051.37,1292.97 2053.74,1294.14 2056.12,1295.31 2058.49,1296.48 2060.87,1297.64 2063.25,1298.81 2065.62,1299.96 2068,1301.12 2070.38,1302.27 
  2072.75,1303.41 2075.13,1304.56 2077.51,1305.7 2079.88,1306.83 2082.26,1307.97 2084.64,1309.1 2087.01,1310.22 2089.39,1311.35 2091.77,1312.47 2094.14,1313.58 
  2096.52,1314.7 2098.9,1315.81 2101.27,1316.91 2103.65,1318.02 2106.03,1319.12 2108.4,1320.21 2110.78,1321.31 2113.16,1322.4 2115.53,1323.49 2117.91,1324.57 
  2120.29,1325.65 2122.66,1326.73 2125.04,1327.8 2127.42,1328.87 2129.79,1329.94 2132.17,1331.01 2134.55,1332.07 2136.92,1333.13 2139.3,1334.18 2141.68,1335.23 
  2144.05,1336.28 2146.43,1337.33 2148.8,1338.37 2151.18,1339.41 2153.56,1340.45 2155.93,1341.48 2158.31,1342.51 2160.69,1343.54 2163.06,1344.57 2165.44,1345.59 
  2167.82,1346.6 2170.19,1347.62 2172.57,1348.63 2174.95,1349.64 2177.32,1350.65 2179.7,1351.65 2182.08,1352.65 2184.45,1353.65 2186.83,1354.64 2189.21,1355.64 
  2191.58,1356.62 2193.96,1357.61 2196.34,1358.59 2198.71,1359.57 2201.09,1360.55 2203.47,1361.52 2205.84,1362.49 2208.22,1363.46 2210.6,1364.43 2212.97,1365.39 
  2215.35,1366.35 2217.73,1367.31 2220.1,1368.26 2222.48,1369.21 2224.86,1370.16 2227.23,1371.1 2229.61,1372.05 2231.98,1372.99 2234.36,1373.92 2236.74,1374.86 
  2239.11,1375.79 2241.49,1376.72 2243.87,1377.64 2246.24,1378.57 2248.62,1379.49 2251,1380.41 2253.37,1381.32 2255.75,1382.23 2258.13,1383.14 2260.5,1384.05 
  2262.88,1384.95 2265.26,1385.86 2267.63,1386.75 2270.01,1387.65 2272.39,1388.54 2274.76,1389.44 2277.14,1390.32 2279.52,1391.21 2281.89,1392.09 2284.27,1392.97 
  2286.65,1393.85 2289.02,1394.73 2291.4,1395.6 2293.78,1396.47 2296.15,1397.34 2298.53,1398.2 2300.91,1399.06 2303.28,1399.92 2305.66,1400.78 2308.04,1401.63 
  2310.41,1402.49 2312.79,1403.34 2315.17,1404.18 2317.54,1405.03 2319.92,1405.87 2322.29,1406.71 2324.67,1407.54 2327.05,1408.38 2329.42,1409.21 2331.8,1410.04 
  2334.18,1410.87 2336.55,1411.69 2338.93,1412.51 2341.31,1413.33 2343.68,1414.15 2346.06,1414.97 2348.44,1415.78 2350.81,1416.59 2353.19,1417.4 2355.57,1418.2 
  2357.94,1419 2360.32,1419.81 2362.7,1420.6 2365.07,1421.4 2367.45,1422.19 2369.83,1422.98 2372.2,1423.77 2374.58,1424.56 2376.96,1425.34 2379.33,1426.12 
  2381.71,1426.9 2384.09,1427.68 2386.46,1428.45 2388.84,1429.23 2391.22,1430 2393.59,1430.77 2395.97,1431.53 2398.35,1432.29 2400.72,1433.06 2403.1,1433.81 
  2405.47,1434.57 2407.85,1435.32 2410.23,1436.08 2412.6,1436.83 2414.98,1437.57 2417.36,1438.32 2419.73,1439.06 2422.11,1439.8 2424.49,1440.54 2426.86,1441.28 
  2429.24,1442.01 2431.62,1442.75 2433.99,1443.48 2436.37,1444.2 2438.75,1444.93 2441.12,1445.65 2443.5,1446.37 2445.88,1447.09 2448.25,1447.81 2450.63,1448.52 
  2453.01,1449.24 2455.38,1449.95 2457.76,1450.66 2460.14,1451.36 2462.51,1452.07 2464.89,1452.77 2467.27,1453.47 2469.64,1454.17 2472.02,1454.86 2474.4,1455.56 
  2476.77,1456.25 2479.15,1456.94 2481.53,1457.63 2483.9,1458.31 2486.28,1459 2488.66,1459.68 2491.03,1460.36 2493.41,1461.04 2495.78,1461.71 2498.16,1462.39 
  2500.54,1463.06 2502.91,1463.73 2505.29,1464.4 2507.67,1465.06 2510.04,1465.72 2512.42,1466.39 2514.8,1467.05 2517.17,1467.7 2519.55,1468.36 2521.93,1469.01 
  2524.3,1469.67 2526.68,1470.32 2529.06,1470.96 2531.43,1471.61 2533.81,1472.25 2536.19,1472.9 2538.56,1473.54 2540.94,1474.18 2543.32,1474.81 2545.69,1475.45 
  2548.07,1476.08 2550.45,1476.71 2552.82,1477.34 2555.2,1477.97 2557.58,1478.59 2559.95,1479.22 2562.33,1479.84 2564.71,1480.46 2567.08,1481.08 2569.46,1481.69 
  2571.84,1482.31 2574.21,1482.92 2576.59,1483.53 2578.96,1484.14 2581.34,1484.75 2583.72,1485.35 2586.09,1485.96 2588.47,1486.56 2590.85,1487.16 2593.22,1487.76 
  2595.6,1488.35 2597.98,1488.95 2600.35,1489.54 2602.73,1490.13 2605.11,1490.72 2607.48,1491.31 2609.86,1491.89 2612.24,1492.48 2614.61,1493.06 2616.99,1493.64 
  2619.37,1494.22 2621.74,1494.8 2624.12,1495.37 2626.5,1495.95 2628.87,1496.52 2631.25,1497.09 2633.63,1497.66 2636,1498.22 2638.38,1498.79 2640.76,1499.35 
  
  "/>
<polyline clip-path="url(#clip262)" style="stroke:#3da44d; stroke-linecap:round; stroke-linejoin:round; stroke-width:12; stroke-opacity:1; fill:none" points="
  266.557,1688.65 268.934,1688.65 271.31,1688.65 273.687,1688.65 276.063,1688.65 278.44,1688.65 280.816,1688.65 283.193,1688.65 285.57,1688.65 287.946,1688.65 
  290.323,1688.65 292.699,1688.65 295.076,1688.65 297.452,1688.65 299.829,1688.65 302.206,1688.65 304.582,1688.65 306.959,1688.65 309.335,1688.65 311.712,1688.65 
  314.089,1688.65 316.465,1688.65 318.842,1688.65 321.218,1688.65 323.595,1688.65 325.971,1688.65 328.348,1688.65 330.725,1688.65 333.101,1688.65 335.478,1688.65 
  337.854,1688.65 340.231,1688.65 342.607,1688.65 344.984,1688.65 347.361,1688.65 349.737,1688.65 352.114,1688.65 354.49,1688.65 356.867,1688.65 359.243,1688.65 
  361.62,1688.65 363.997,1688.65 366.373,1688.65 368.75,1688.65 371.126,1688.65 373.503,1688.65 375.879,1688.65 378.256,1688.65 380.633,1688.65 383.009,1688.65 
  385.386,1688.65 387.762,1688.65 390.139,1688.65 392.516,1688.65 394.892,1688.65 397.269,1688.65 399.645,1688.65 402.022,1688.65 404.398,1688.65 406.775,1688.65 
  409.152,1688.65 411.528,1688.65 413.905,1688.65 416.281,1688.65 418.658,1688.65 421.034,1688.65 423.411,1688.65 425.788,1688.65 428.164,1688.65 430.541,1688.65 
  432.917,1688.65 435.294,1688.65 437.67,1688.65 440.047,1688.65 442.424,1688.65 444.8,1688.65 447.177,1688.65 449.553,1688.65 451.93,1688.65 454.306,1688.65 
  456.683,1688.65 459.06,1688.65 461.436,1688.65 463.813,1688.65 466.189,1688.65 468.566,1688.65 470.942,1688.65 473.319,1688.65 475.696,1688.65 478.072,1688.65 
  480.449,1688.65 482.825,1688.65 485.202,1688.65 487.579,1688.65 489.955,1688.65 492.332,1688.65 494.708,1688.65 497.085,1688.65 499.461,1688.65 501.838,1688.65 
  504.215,1688.64 506.591,1688.64 508.968,1688.64 511.344,1688.64 513.721,1688.64 516.097,1688.64 518.474,1688.64 520.851,1688.64 523.227,1688.64 525.604,1688.64 
  527.98,1688.64 530.357,1688.64 532.733,1688.64 535.11,1688.64 537.487,1688.64 539.863,1688.63 542.24,1688.63 544.616,1688.63 546.993,1688.63 549.369,1688.63 
  551.746,1688.63 554.123,1688.63 556.499,1688.63 558.876,1688.63 561.252,1688.62 563.629,1688.62 566.006,1688.62 568.382,1688.62 570.759,1688.62 573.135,1688.62 
  575.512,1688.61 577.888,1688.61 580.265,1688.61 582.642,1688.61 585.018,1688.61 587.395,1688.6 589.771,1688.6 592.148,1688.6 594.524,1688.6 596.901,1688.59 
  599.278,1688.59 601.654,1688.59 604.031,1688.58 606.407,1688.58 608.784,1688.58 611.16,1688.57 613.537,1688.57 615.914,1688.56 618.29,1688.56 620.667,1688.56 
  623.043,1688.55 625.42,1688.55 627.796,1688.54 630.173,1688.53 632.55,1688.53 634.926,1688.52 637.303,1688.52 639.679,1688.51 642.056,1688.5 644.433,1688.5 
  646.809,1688.49 649.186,1688.48 651.562,1688.47 653.939,1688.46 656.315,1688.45 658.692,1688.44 661.069,1688.43 663.445,1688.42 665.822,1688.41 668.198,1688.4 
  670.575,1688.39 672.951,1688.38 675.328,1688.36 677.705,1688.35 680.081,1688.34 682.458,1688.32 684.834,1688.3 687.211,1688.29 689.587,1688.27 691.964,1688.25 
  694.341,1688.23 696.717,1688.21 699.094,1688.19 701.47,1688.17 703.847,1688.15 706.223,1688.12 708.6,1688.1 710.977,1688.07 713.353,1688.04 715.73,1688.01 
  718.106,1687.98 720.483,1687.95 722.859,1687.92 725.236,1687.88 727.613,1687.85 729.989,1687.81 732.366,1687.77 734.742,1687.73 737.119,1687.68 739.496,1687.64 
  741.872,1687.59 744.249,1687.54 746.625,1687.48 749.002,1687.43 751.378,1687.37 753.755,1687.31 756.132,1687.25 758.508,1687.18 760.885,1687.11 763.261,1687.04 
  765.638,1686.96 768.014,1686.88 770.391,1686.8 772.768,1686.71 775.144,1686.62 777.521,1686.52 779.897,1686.42 782.274,1686.32 784.65,1686.21 787.027,1686.09 
  789.404,1685.97 791.78,1685.85 794.157,1685.71 796.533,1685.58 798.91,1685.43 801.286,1685.28 803.663,1685.12 806.04,1684.96 808.416,1684.79 810.793,1684.61 
  813.169,1684.42 815.546,1684.22 817.923,1684.02 820.299,1683.8 822.676,1683.58 825.052,1683.34 827.429,1683.1 829.805,1682.84 832.182,1682.57 834.559,1682.29 
  836.935,1682 839.312,1681.7 841.688,1681.38 844.065,1681.05 846.441,1680.7 848.818,1680.34 851.195,1679.96 853.571,1679.57 855.948,1679.16 858.324,1678.73 
  860.701,1678.29 863.077,1677.82 865.454,1677.34 867.831,1676.84 870.207,1676.31 872.584,1675.77 874.96,1675.2 877.337,1674.61 879.713,1673.99 882.09,1673.35 
  884.467,1672.69 886.843,1671.99 889.22,1671.28 891.596,1670.53 893.973,1669.75 896.35,1668.95 898.726,1668.11 901.103,1667.25 903.479,1666.35 905.856,1665.42 
  908.232,1664.46 910.609,1663.46 912.986,1662.42 915.362,1661.35 917.739,1660.25 920.115,1659.11 922.492,1657.92 924.868,1656.7 927.245,1655.45 929.622,1654.15 
  931.998,1652.8 934.375,1651.42 936.751,1650 939.128,1648.53 941.504,1647.02 943.881,1645.47 946.258,1643.87 948.634,1642.23 951.011,1640.54 953.387,1638.81 
  955.764,1637.03 958.14,1635.21 960.517,1633.35 962.894,1631.44 965.27,1629.48 967.647,1627.48 970.023,1625.43 972.4,1623.34 974.776,1621.2 977.153,1619.02 
  979.53,1616.79 981.906,1614.52 984.283,1612.21 986.659,1609.85 989.036,1607.45 991.413,1605.01 993.789,1602.52 996.166,1600 998.542,1597.44 1000.92,1594.83 
  1003.3,1592.19 1005.67,1589.52 1008.05,1586.8 1010.43,1584.05 1012.8,1581.27 1015.18,1578.45 1017.55,1575.6 1019.93,1572.71 1022.31,1569.8 1024.68,1566.85 
  1027.06,1563.87 1029.44,1560.87 1031.81,1557.84 1034.19,1554.78 1036.57,1551.69 1038.94,1548.58 1041.32,1545.45 1043.7,1542.29 1046.07,1539.11 1048.45,1535.91 
  1050.83,1532.68 1053.2,1529.44 1055.58,1526.19 1057.96,1522.91 1060.33,1519.62 1062.71,1516.31 1065.09,1512.99 1067.46,1509.65 1069.84,1506.3 1072.22,1502.94 
  1074.59,1499.57 1076.97,1496.18 1079.35,1492.79 1081.72,1489.38 1084.1,1485.97 1086.48,1482.54 1088.85,1479.12 1091.23,1475.68 1093.61,1472.23 1095.98,1468.79 
  1098.36,1465.33 1100.73,1461.87 1103.11,1458.41 1105.49,1454.94 1107.86,1451.48 1110.24,1448.01 1112.62,1444.53 1114.99,1441.06 1117.37,1437.59 1119.75,1434.11 
  1122.12,1430.64 1124.5,1427.16 1126.88,1423.69 1129.25,1420.22 1131.63,1416.75 1134.01,1413.28 1136.38,1409.81 1138.76,1406.35 1141.14,1402.88 1143.51,1399.42 
  1145.89,1395.97 1148.27,1392.51 1150.64,1389.06 1153.02,1385.62 1155.4,1382.18 1157.77,1378.74 1160.15,1375.31 1162.53,1371.88 1164.9,1368.45 1167.28,1365.04 
  1169.66,1361.62 1172.03,1358.22 1174.41,1354.81 1176.79,1351.42 1179.16,1348.03 1181.54,1344.65 1183.92,1341.27 1186.29,1337.9 1188.67,1334.54 1191.04,1331.18 
  1193.42,1327.83 1195.8,1324.48 1198.17,1321.15 1200.55,1317.82 1202.93,1314.49 1205.3,1311.18 1207.68,1307.87 1210.06,1304.57 1212.43,1301.27 1214.81,1297.99 
  1217.19,1294.71 1219.56,1291.44 1221.94,1288.17 1224.32,1284.92 1226.69,1281.67 1229.07,1278.43 1231.45,1275.2 1233.82,1271.97 1236.2,1268.76 1238.58,1265.55 
  1240.95,1262.35 1243.33,1259.16 1245.71,1255.97 1248.08,1252.8 1250.46,1249.63 1252.84,1246.47 1255.21,1243.32 1257.59,1240.17 1259.97,1237.04 1262.34,1233.91 
  1264.72,1230.79 1267.1,1227.68 1269.47,1224.58 1271.85,1221.48 1274.23,1218.4 1276.6,1215.32 1278.98,1212.25 1281.35,1209.19 1283.73,1206.14 1286.11,1203.09 
  1288.48,1200.06 1290.86,1197.03 1293.24,1194.01 1295.61,1191 1297.99,1188 1300.37,1185 1302.74,1182.02 1305.12,1179.04 1307.5,1176.07 1309.87,1173.11 
  1312.25,1170.16 1314.63,1167.21 1317,1164.28 1319.38,1161.35 1321.76,1158.43 1324.13,1155.52 1326.51,1152.61 1328.89,1149.72 1331.26,1146.83 1333.64,1143.95 
  1336.02,1141.08 1338.39,1138.22 1340.77,1135.36 1343.15,1132.52 1345.52,1129.68 1347.9,1126.85 1350.28,1124.03 1352.65,1121.22 1355.03,1118.41 1357.41,1115.61 
  1359.78,1112.82 1362.16,1110.04 1364.53,1107.27 1366.91,1104.5 1369.29,1101.75 1371.66,1099 1374.04,1096.26 1376.42,1093.52 1378.79,1090.8 1381.17,1088.08 
  1383.55,1085.37 1385.92,1082.67 1388.3,1079.97 1390.68,1077.29 1393.05,1074.61 1395.43,1071.94 1397.81,1069.28 1400.18,1066.62 1402.56,1063.97 1404.94,1061.33 
  1407.31,1058.7 1409.69,1056.08 1412.07,1053.46 1414.44,1050.85 1416.82,1048.25 1419.2,1045.66 1421.57,1043.07 1423.95,1040.49 1426.33,1037.92 1428.7,1035.36 
  1431.08,1032.8 1433.46,1030.25 1435.83,1027.71 1438.21,1025.18 1440.59,1022.65 1442.96,1020.14 1445.34,1017.62 1447.72,1015.12 1450.09,1012.62 1452.47,1010.14 
  1454.84,1007.65 1457.22,1005.18 1459.6,1002.71 1461.97,1000.25 1464.35,997.799 1466.73,995.354 1469.1,992.916 1471.48,990.484 1473.86,988.06 1476.23,985.644 
  1478.61,983.234 1480.99,980.831 1483.36,978.436 1485.74,976.047 1488.12,973.666 1490.49,971.292 1492.87,968.924 1495.25,966.564 1497.62,964.211 1500,961.864 
  1502.38,959.525 1504.75,957.192 1507.13,954.866 1509.51,952.547 1511.88,950.235 1514.26,947.93 1516.64,945.632 1519.01,943.34 1521.39,941.055 1523.77,938.777 
  1526.14,936.506 1528.52,934.241 1530.9,931.983 1533.27,929.732 1535.65,927.487 1538.02,925.25 1540.4,923.018 1542.78,920.793 1545.15,918.575 1547.53,916.364 
  1549.91,914.159 1552.28,911.96 1554.66,909.768 1557.04,907.582 1559.41,905.403 1561.79,903.231 1564.17,901.065 1566.54,898.905 1568.92,896.751 1571.3,894.604 
  1573.67,892.464 1576.05,890.329 1578.43,888.201 1580.8,886.08 1583.18,883.964 1585.56,881.855 1587.93,879.752 1590.31,877.656 1592.69,875.565 1595.06,873.481 
  1597.44,871.403 1599.82,869.331 1602.19,867.265 1604.57,865.205 1606.95,863.152 1609.32,861.104 1611.7,859.063 1614.08,857.027 1616.45,854.998 1618.83,852.975 
  1621.21,850.957 1623.58,848.946 1625.96,846.941 1628.33,844.941 1630.71,842.948 1633.09,840.96 1635.46,838.978 1637.84,837.002 1640.22,835.032 1642.59,833.068 
  1644.97,831.11 1647.35,829.157 1649.72,827.211 1652.1,825.27 1654.48,823.334 1656.85,821.405 1659.23,819.481 1661.61,817.563 1663.98,815.651 1666.36,813.744 
  1668.74,811.843 1671.11,809.948 1673.49,808.058 1675.87,806.174 1678.24,804.295 1680.62,802.422 1683,800.555 1685.37,798.693 1687.75,796.836 1690.13,794.985 
  1692.5,793.14 1694.88,791.3 1697.26,789.466 1699.63,787.637 1702.01,785.813 1704.39,783.995 1706.76,782.182 1709.14,780.374 1711.51,778.572 1713.89,776.776 
  1716.27,774.984 1718.64,773.198 1721.02,771.417 1723.4,769.642 1725.77,767.872 1728.15,766.107 1730.53,764.347 1732.9,762.592 1735.28,760.843 1737.66,759.099 
  1740.03,757.36 1742.41,755.626 1744.79,753.898 1747.16,752.174 1749.54,750.456 1751.92,748.742 1754.29,747.034 1756.67,745.331 1759.05,743.633 1761.42,741.94 
  1763.8,740.252 1766.18,738.569 1768.55,736.891 1770.93,735.218 1773.31,733.549 1775.68,731.886 1778.06,730.228 1780.44,728.575 1782.81,726.926 1785.19,725.283 
  1787.57,723.644 1789.94,722.011 1792.32,720.382 1794.7,718.758 1797.07,717.138 1799.45,715.524 1801.82,713.914 1804.2,712.309 1806.58,710.709 1808.95,709.114 
  1811.33,707.523 1813.71,705.937 1816.08,704.356 1818.46,702.779 1820.84,701.208 1823.21,699.64 1825.59,698.078 1827.97,696.52 1830.34,694.967 1832.72,693.418 
  1835.1,691.874 1837.47,690.335 1839.85,688.8 1842.23,687.269 1844.6,685.743 1846.98,684.222 1849.36,682.705 1851.73,681.193 1854.11,679.685 1856.49,678.182 
  1858.86,676.683 1861.24,675.189 1863.62,673.699 1865.99,672.213 1868.37,670.732 1870.75,669.255 1873.12,667.783 1875.5,666.315 1877.88,664.851 1880.25,663.392 
  1882.63,661.937 1885,660.487 1887.38,659.04 1889.76,657.598 1892.13,656.16 1894.51,654.727 1896.89,653.298 1899.26,651.873 1901.64,650.452 1904.02,649.035 
  1906.39,647.623 1908.77,646.215 1911.15,644.811 1913.52,643.411 1915.9,642.016 1918.28,640.624 1920.65,639.237 1923.03,637.853 1925.41,636.474 1927.78,635.099 
  1930.16,633.728 1932.54,632.361 1934.91,630.998 1937.29,629.64 1939.67,628.285 1942.04,626.934 1944.42,625.587 1946.8,624.245 1949.17,622.906 1951.55,621.571 
  1953.93,620.24 1956.3,618.913 1958.68,617.59 1961.06,616.271 1963.43,614.956 1965.81,613.645 1968.19,612.338 1970.56,611.034 1972.94,609.735 1975.31,608.439 
  1977.69,607.147 1980.07,605.859 1982.44,604.575 1984.82,603.295 1987.2,602.018 1989.57,600.745 1991.95,599.476 1994.33,598.211 1996.7,596.95 1999.08,595.692 
  2001.46,594.438 2003.83,593.188 2006.21,591.941 2008.59,590.698 2010.96,589.459 2013.34,588.224 2015.72,586.992 2018.09,585.764 2020.47,584.539 2022.85,583.318 
  2025.22,582.101 2027.6,580.887 2029.98,579.677 2032.35,578.471 2034.73,577.268 2037.11,576.068 2039.48,574.873 2041.86,573.68 2044.24,572.492 2046.61,571.307 
  2048.99,570.125 2051.37,568.947 2053.74,567.772 2056.12,566.601 2058.49,565.433 2060.87,564.269 2063.25,563.109 2065.62,561.951 2068,560.797 2070.38,559.647 
  2072.75,558.5 2075.13,557.356 2077.51,556.216 2079.88,555.079 2082.26,553.946 2084.64,552.816 2087.01,551.689 2089.39,550.566 2091.77,549.446 2094.14,548.329 
  2096.52,547.215 2098.9,546.105 2101.27,544.998 2103.65,543.895 2106.03,542.795 2108.4,541.698 2110.78,540.604 2113.16,539.513 2115.53,538.426 2117.91,537.342 
  2120.29,536.261 2122.66,535.184 2125.04,534.109 2127.42,533.038 2129.79,531.97 2132.17,530.905 2134.55,529.844 2136.92,528.785 2139.3,527.73 2141.68,526.677 
  2144.05,525.628 2146.43,524.582 2148.8,523.539 2151.18,522.499 2153.56,521.463 2155.93,520.429 2158.31,519.398 2160.69,518.371 2163.06,517.346 2165.44,516.325 
  2167.82,515.306 2170.19,514.291 2172.57,513.279 2174.95,512.269 2177.32,511.263 2179.7,510.26 2182.08,509.259 2184.45,508.262 2186.83,507.267 2189.21,506.276 
  2191.58,505.287 2193.96,504.301 2196.34,503.319 2198.71,502.339 2201.09,501.362 2203.47,500.388 2205.84,499.417 2208.22,498.449 2210.6,497.483 2212.97,496.521 
  2215.35,495.561 2217.73,494.604 2220.1,493.65 2222.48,492.699 2224.86,491.751 2227.23,490.806 2229.61,489.863 2231.98,488.923 2234.36,487.986 2236.74,487.052 
  2239.11,486.12 2241.49,485.191 2243.87,484.265 2246.24,483.342 2248.62,482.422 2251,481.504 2253.37,480.589 2255.75,479.676 2258.13,478.767 2260.5,477.86 
  2262.88,476.956 2265.26,476.054 2267.63,475.155 2270.01,474.259 2272.39,473.365 2274.76,472.475 2277.14,471.586 2279.52,470.701 2281.89,469.818 2284.27,468.937 
  2286.65,468.06 2289.02,467.184 2291.4,466.312 2293.78,465.442 2296.15,464.575 2298.53,463.71 2300.91,462.848 2303.28,461.988 2305.66,461.131 2308.04,460.276 
  2310.41,459.424 2312.79,458.575 2315.17,457.728 2317.54,456.883 2319.92,456.041 2322.29,455.202 2324.67,454.365 2327.05,453.53 2329.42,452.698 2331.8,451.869 
  2334.18,451.042 2336.55,450.217 2338.93,449.395 2341.31,448.575 2343.68,447.758 2346.06,446.943 2348.44,446.13 2350.81,445.32 2353.19,444.513 2355.57,443.707 
  2357.94,442.905 2360.32,442.104 2362.7,441.306 2365.07,440.51 2367.45,439.717 2369.83,438.926 2372.2,438.137 2374.58,437.351 2376.96,436.567 2379.33,435.785 
  2381.71,435.006 2384.09,434.229 2386.46,433.454 2388.84,432.682 2391.22,431.912 2393.59,431.144 2395.97,430.378 2398.35,429.615 2400.72,428.854 2403.1,428.095 
  2405.47,427.339 2407.85,426.584 2410.23,425.832 2412.6,425.083 2414.98,424.335 2417.36,423.59 2419.73,422.847 2422.11,422.106 2424.49,421.367 2426.86,420.63 
  2429.24,419.896 2431.62,419.164 2433.99,418.434 2436.37,417.706 2438.75,416.98 2441.12,416.257 2443.5,415.535 2445.88,414.816 2448.25,414.099 2450.63,413.384 
  2453.01,412.671 2455.38,411.961 2457.76,411.252 2460.14,410.545 2462.51,409.841 2464.89,409.139 2467.27,408.438 2469.64,407.74 2472.02,407.044 2474.4,406.35 
  2476.77,405.658 2479.15,404.968 2481.53,404.28 2483.9,403.595 2486.28,402.911 2488.66,402.229 2491.03,401.549 2493.41,400.872 2495.78,400.196 2498.16,399.522 
  2500.54,398.851 2502.91,398.181 2505.29,397.513 2507.67,396.847 2510.04,396.184 2512.42,395.522 2514.8,394.862 2517.17,394.204 2519.55,393.548 2521.93,392.894 
  2524.3,392.242 2526.68,391.592 2529.06,390.944 2531.43,390.298 2533.81,389.654 2536.19,389.011 2538.56,388.371 2540.94,387.732 2543.32,387.095 2545.69,386.461 
  2548.07,385.828 2550.45,385.197 2552.82,384.568 2555.2,383.94 2557.58,383.315 2559.95,382.691 2562.33,382.07 2564.71,381.45 2567.08,380.832 2569.46,380.215 
  2571.84,379.601 2574.21,378.988 2576.59,378.378 2578.96,377.769 2581.34,377.162 2583.72,376.556 2586.09,375.953 2588.47,375.351 2590.85,374.751 2593.22,374.153 
  2595.6,373.557 2597.98,372.962 2600.35,372.369 2602.73,371.778 2605.11,371.189 2607.48,370.601 2609.86,370.015 2612.24,369.431 2614.61,368.849 2616.99,368.268 
  2619.37,367.689 2621.74,367.112 2624.12,366.537 2626.5,365.963 2628.87,365.391 2631.25,364.82 2633.63,364.252 2636,363.685 2638.38,363.119 2640.76,362.556 
  
  "/>
<path clip-path="url(#clip260)" d="
M2261.76 388.696 L2561.62 388.696 L2561.62 181.336 L2261.76 181.336  Z
  " fill="#ffffff" fill-rule="evenodd" fill-opacity="1"/>
<polyline clip-path="url(#clip260)" style="stroke:#000000; stroke-linecap:round; stroke-linejoin:round; stroke-width:4; stroke-opacity:1; fill:none" points="
  2261.76,388.696 2561.62,388.696 2561.62,181.336 2261.76,181.336 2261.76,388.696 
  "/>
<polyline clip-path="url(#clip260)" style="stroke:#009af9; stroke-linecap:round; stroke-linejoin:round; stroke-width:4; stroke-opacity:1; fill:none" points="
  2288.14,233.176 2446.42,233.176 
  "/>
<path clip-path="url(#clip260)" d="M2501.26 216.069 L2498.66 226.562 Q2498.52 227.194 2498.4 227.358 Q2498.29 227.522 2497.96 227.522 Q2497.7 227.522 2497.54 227.405 Q2497.4 227.288 2497.4 227.171 L2497.37 227.054 Q2497.37 226.984 2497.42 226.632 Q2497.47 226.257 2497.51 225.648 Q2497.56 225.039 2497.56 224.36 Q2497.56 220.519 2495.69 218.739 Q2493.84 216.935 2490.65 216.935 Q2488.45 216.935 2486.48 218.106 Q2484.52 219.278 2483.39 221.128 Q2482.27 222.955 2482.27 224.875 Q2482.27 226.632 2483.16 227.756 Q2484.05 228.881 2485.19 229.255 L2488.4 230.122 Q2491.78 230.989 2492.74 231.364 Q2493.7 231.715 2494.49 232.511 Q2496.86 234.713 2496.86 238.133 Q2496.86 241.084 2495.2 243.941 Q2493.53 246.775 2490.68 248.626 Q2487.82 250.453 2484.66 250.453 Q2479.1 250.453 2476.55 247.01 L2474.21 249.727 Q2473.76 250.242 2473.62 250.336 Q2473.51 250.453 2473.34 250.453 Q2473.13 250.453 2472.97 250.312 Q2472.8 250.195 2472.8 249.984 Q2472.8 249.82 2474.19 244.316 Q2475.57 238.812 2475.68 238.695 Q2475.87 238.507 2476.18 238.507 Q2476.74 238.507 2476.74 239.046 Q2476.69 239.187 2476.65 239.374 Q2476.36 241.06 2476.36 241.974 Q2476.36 243.684 2476.95 244.995 Q2477.54 246.284 2478.4 247.033 Q2479.29 247.759 2480.49 248.228 Q2481.68 248.673 2482.69 248.837 Q2483.7 248.977 2484.75 248.977 Q2487.02 248.977 2489.04 247.666 Q2491.07 246.354 2492.22 244.316 Q2493.39 242.278 2493.39 240.147 Q2493.39 239.023 2493.09 238.156 Q2492.78 237.266 2492.36 236.774 Q2491.96 236.282 2491.28 235.907 Q2490.61 235.533 2490.14 235.392 Q2489.69 235.228 2488.99 235.064 L2483.86 233.706 Q2481.8 233.097 2480.32 231.34 Q2478.87 229.583 2478.87 226.89 Q2478.87 224.056 2480.53 221.432 Q2482.22 218.786 2484.96 217.193 Q2487.72 215.577 2490.7 215.577 Q2493.04 215.577 2494.84 216.49 Q2496.65 217.38 2497.56 219.043 L2499.88 216.303 Q2500.35 215.764 2500.44 215.67 Q2500.56 215.577 2500.72 215.577 Q2501 215.577 2501.12 215.741 Q2501.26 215.905 2501.26 216.069 Z" fill="#000000" fill-rule="evenodd" fill-opacity="1" /><polyline clip-path="url(#clip260)" style="stroke:#e26f46; stroke-linecap:round; stroke-linejoin:round; stroke-width:4; stroke-opacity:1; fill:none" points="
  2288.14,285.016 2446.42,285.016 
  "/>
<path clip-path="url(#clip260)" d="M2495.01 269.065 Q2495.01 269.51 2494.82 269.721 Q2494.66 269.908 2494.4 269.955 Q2494.14 269.979 2493.46 269.979 Q2492.31 269.979 2491.59 270.072 Q2490.86 270.143 2490.42 270.26 Q2489.97 270.353 2489.72 270.681 Q2489.48 270.986 2489.36 271.267 Q2489.27 271.548 2489.11 272.18 L2482.69 297.734 Q2482.48 298.484 2482.48 298.858 Q2482.48 299.257 2482.71 299.421 Q2482.95 299.585 2483.7 299.655 Q2484.89 299.772 2485.76 299.772 Q2486.9 299.772 2487.07 299.936 Q2487.19 300.1 2487.19 300.334 Q2487.19 300.756 2487 300.99 Q2486.81 301.201 2486.65 301.224 Q2486.51 301.248 2486.23 301.248 L2479.81 301.107 L2473.51 301.248 Q2472.8 301.248 2472.8 300.709 Q2472.8 300.357 2472.85 300.17 Q2472.92 299.959 2473.16 299.889 Q2473.41 299.795 2473.6 299.795 Q2473.79 299.772 2474.33 299.772 Q2475.29 299.772 2475.92 299.749 Q2476.58 299.702 2477.04 299.585 Q2477.54 299.444 2477.77 299.327 Q2478.03 299.186 2478.21 298.882 Q2478.43 298.554 2478.5 298.296 Q2478.59 298.039 2478.71 297.5 L2485.17 271.642 Q2485.26 271.22 2485.26 270.892 Q2485.26 270.26 2484.52 270.119 Q2483.79 269.979 2481.96 269.979 Q2481.4 269.979 2481.17 269.955 Q2480.96 269.932 2480.77 269.815 Q2480.6 269.698 2480.6 269.44 Q2480.6 269.112 2480.7 268.901 Q2480.79 268.667 2480.96 268.597 Q2481.14 268.526 2481.26 268.503 Q2481.38 268.48 2481.56 268.48 L2487.96 268.62 L2494.28 268.48 Q2495.01 268.48 2495.01 269.065 Z" fill="#000000" fill-rule="evenodd" fill-opacity="1" /><polyline clip-path="url(#clip260)" style="stroke:#3da44d; stroke-linecap:round; stroke-linejoin:round; stroke-width:4; stroke-opacity:1; fill:none" points="
  2288.14,336.856 2446.42,336.856 
  "/>
<path clip-path="url(#clip260)" d="M2501.82 326.025 Q2501.82 325.252 2501.61 324.62 Q2501.43 323.964 2501.12 323.519 Q2500.84 323.05 2500.3 322.699 Q2499.76 322.324 2499.32 322.09 Q2498.87 321.856 2498.12 321.715 Q2497.37 321.551 2496.88 321.481 Q2496.39 321.387 2495.55 321.34 Q2494.7 321.294 2494.28 321.294 Q2493.88 321.294 2493.09 321.294 Q2490.58 321.294 2490.16 321.34 Q2489.53 321.434 2489.29 321.809 Q2489.06 322.16 2488.82 323.121 L2485.71 335.628 L2491.07 335.628 Q2494 335.628 2496.02 334.808 Q2498.03 333.989 2499.18 332.841 Q2500.44 331.576 2501.12 329.538 Q2501.82 327.501 2501.82 326.025 M2507.05 348.112 Q2507.05 348.37 2506.84 348.955 Q2506.65 349.541 2506.18 350.361 Q2505.71 351.157 2505.08 351.883 Q2504.45 352.609 2503.44 353.101 Q2502.43 353.617 2501.29 353.617 Q2501 353.617 2500.72 353.593 Q2500.44 353.593 2499.74 353.476 Q2499.06 353.382 2498.5 353.195 Q2497.94 353.031 2497.23 352.633 Q2496.53 352.258 2496.04 351.743 Q2495.57 351.204 2495.24 350.361 Q2494.91 349.494 2494.91 348.44 Q2494.91 347.503 2495.69 344.365 Q2496.37 341.695 2496.37 341.039 Q2496.37 340.313 2496.13 339.633 Q2495.92 338.954 2495.38 338.251 Q2494.87 337.549 2493.77 337.127 Q2492.67 336.682 2491.12 336.682 L2485.43 336.682 L2482.24 349.401 Q2482.24 349.424 2482.17 349.752 Q2482.1 350.056 2482.1 350.22 Q2482.1 350.525 2482.29 350.712 Q2482.5 350.9 2483.02 350.993 Q2483.53 351.064 2483.93 351.087 Q2484.35 351.087 2485.22 351.087 Q2486.3 351.087 2486.48 351.274 Q2486.58 351.391 2486.58 351.602 Q2486.58 351.93 2486.48 352.164 Q2486.41 352.375 2486.23 352.445 Q2486.06 352.516 2485.94 352.539 Q2485.83 352.563 2485.62 352.563 L2479.53 352.422 L2473.48 352.563 Q2472.8 352.563 2472.8 352.024 Q2472.8 351.555 2472.97 351.368 Q2473.13 351.157 2473.34 351.134 Q2473.55 351.087 2474.09 351.087 Q2475.26 351.087 2475.97 351.017 Q2476.67 350.946 2477.11 350.853 Q2477.58 350.736 2477.82 350.408 Q2478.07 350.08 2478.19 349.799 Q2478.31 349.494 2478.47 348.815 L2484.89 323.05 Q2485.08 322.277 2485.08 322.16 Q2485.08 321.715 2484.8 321.598 Q2484.54 321.458 2483.79 321.387 L2481.96 321.294 Q2481.4 321.294 2481.17 321.27 Q2480.96 321.247 2480.79 321.13 Q2480.63 321.013 2480.63 320.755 Q2480.63 320.099 2480.91 319.958 Q2481.19 319.795 2482.01 319.795 L2495.69 319.795 Q2500.35 319.795 2503.3 321.832 Q2506.27 323.87 2506.27 326.985 Q2506.27 328.391 2505.64 329.702 Q2505.01 331.014 2503.96 332.044 Q2502.93 333.075 2501.54 333.942 Q2500.16 334.785 2498.69 335.37 Q2497.23 335.933 2495.73 336.261 Q2496.39 336.495 2497 336.846 Q2497.63 337.197 2498.43 337.853 Q2499.25 338.509 2499.74 339.563 Q2500.23 340.617 2500.23 341.905 Q2500.23 342.819 2500.04 344.177 Q2499.58 348.042 2499.58 349.635 Q2499.58 351.157 2499.97 351.86 Q2500.37 352.563 2501.5 352.563 Q2502.6 352.563 2503.82 351.579 Q2505.06 350.572 2505.85 348.206 Q2506.04 347.527 2506.49 347.527 Q2506.51 347.527 2506.53 347.527 Q2506.58 347.527 2506.67 347.574 Q2506.77 347.597 2506.84 347.667 Q2506.93 347.714 2506.98 347.831 Q2507.05 347.948 2507.05 348.112 Z" fill="#000000" fill-rule="evenodd" fill-opacity="1" /></svg>
