<?xml version="1.0" encoding="utf-8"?>
<svg xmlns="http://www.w3.org/2000/svg" xmlns:xlink="http://www.w3.org/1999/xlink" width="672" height="480" viewBox="0 0 2688 1920">
<defs>
  <clipPath id="clip360">
    <rect x="0" y="0" width="2688" height="1920"/>
  </clipPath>
</defs>
<path clip-path="url(#clip360)" d="M0 1920 L2688 1920 L2688 0 L0 0  Z" fill="#ffffff" fill-rule="evenodd" fill-opacity="1"/>
<defs>
  <clipPath id="clip361">
    <rect x="537" y="0" width="1883" height="1883"/>
  </clipPath>
</defs>
<path clip-path="url(#clip360)" d="M115.057 1734.12 L2640.76 1734.12 L2640.76 47.2441 L115.057 47.2441  Z" fill="#ffffff" fill-rule="evenodd" fill-opacity="1"/>
<defs>
  <clipPath id="clip362">
    <rect x="115" y="47" width="2527" height="1688"/>
  </clipPath>
</defs>
<polyline clip-path="url(#clip362)" style="stroke:#000000; stroke-linecap:round; stroke-linejoin:round; stroke-width:2; stroke-opacity:0.1; fill:none" points="115.057,1734.12 115.057,47.2441 "/>
<polyline clip-path="url(#clip362)" style="stroke:#000000; stroke-linecap:round; stroke-linejoin:round; stroke-width:2; stroke-opacity:0.1; fill:none" points="620.197,1734.12 620.197,47.2441 "/>
<polyline clip-path="url(#clip362)" style="stroke:#000000; stroke-linecap:round; stroke-linejoin:round; stroke-width:2; stroke-opacity:0.1; fill:none" points="1125.34,1734.12 1125.34,47.2441 "/>
<polyline clip-path="url(#clip362)" style="stroke:#000000; stroke-linecap:round; stroke-linejoin:round; stroke-width:2; stroke-opacity:0.1; fill:none" points="1630.48,1734.12 1630.48,47.2441 "/>
<polyline clip-path="url(#clip362)" style="stroke:#000000; stroke-linecap:round; stroke-linejoin:round; stroke-width:2; stroke-opacity:0.1; fill:none" points="2135.62,1734.12 2135.62,47.2441 "/>
<polyline clip-path="url(#clip362)" style="stroke:#000000; stroke-linecap:round; stroke-linejoin:round; stroke-width:2; stroke-opacity:0.1; fill:none" points="2640.76,1734.12 2640.76,47.2441 "/>
<polyline clip-path="url(#clip360)" style="stroke:#000000; stroke-linecap:round; stroke-linejoin:round; stroke-width:4; stroke-opacity:1; fill:none" points="115.057,1734.12 2640.76,1734.12 "/>
<polyline clip-path="url(#clip360)" style="stroke:#000000; stroke-linecap:round; stroke-linejoin:round; stroke-width:4; stroke-opacity:1; fill:none" points="115.057,1734.12 115.057,1715.22 "/>
<polyline clip-path="url(#clip360)" style="stroke:#000000; stroke-linecap:round; stroke-linejoin:round; stroke-width:4; stroke-opacity:1; fill:none" points="620.197,1734.12 620.197,1715.22 "/>
<polyline clip-path="url(#clip360)" style="stroke:#000000; stroke-linecap:round; stroke-linejoin:round; stroke-width:4; stroke-opacity:1; fill:none" points="1125.34,1734.12 1125.34,1715.22 "/>
<polyline clip-path="url(#clip360)" style="stroke:#000000; stroke-linecap:round; stroke-linejoin:round; stroke-width:4; stroke-opacity:1; fill:none" points="1630.48,1734.12 1630.48,1715.22 "/>
<polyline clip-path="url(#clip360)" style="stroke:#000000; stroke-linecap:round; stroke-linejoin:round; stroke-width:4; stroke-opacity:1; fill:none" points="2135.62,1734.12 2135.62,1715.22 "/>
<polyline clip-path="url(#clip360)" style="stroke:#000000; stroke-linecap:round; stroke-linejoin:round; stroke-width:4; stroke-opacity:1; fill:none" points="2640.76,1734.12 2640.76,1715.22 "/>
<path clip-path="url(#clip360)" d="M115.057 1767.34 Q111.446 1767.34 109.617 1770.9 Q107.812 1774.45 107.812 1781.58 Q107.812 1788.68 109.617 1792.25 Q111.446 1795.79 115.057 1795.79 Q118.691 1795.79 120.497 1792.25 Q122.326 1788.68 122.326 1781.58 Q122.326 1774.45 120.497 1770.9 Q118.691 1767.34 115.057 1767.34 M115.057 1763.64 Q120.867 1763.64 123.923 1768.24 Q127.002 1772.83 127.002 1781.58 Q127.002 1790.3 123.923 1794.91 Q120.867 1799.49 115.057 1799.49 Q109.247 1799.49 106.168 1794.91 Q103.113 1790.3 103.113 1781.58 Q103.113 1772.83 106.168 1768.24 Q109.247 1763.64 115.057 1763.64 Z" fill="#000000" fill-rule="nonzero" fill-opacity="1" /><path clip-path="url(#clip360)" d="M614.85 1794.89 L631.169 1794.89 L631.169 1798.82 L609.225 1798.82 L609.225 1794.89 Q611.887 1792.13 616.47 1787.5 Q621.077 1782.85 622.257 1781.51 Q624.502 1778.98 625.382 1777.25 Q626.285 1775.49 626.285 1773.8 Q626.285 1771.04 624.34 1769.31 Q622.419 1767.57 619.317 1767.57 Q617.118 1767.57 614.665 1768.34 Q612.234 1769.1 609.456 1770.65 L609.456 1765.93 Q612.28 1764.79 614.734 1764.21 Q617.188 1763.64 619.225 1763.64 Q624.595 1763.64 627.789 1766.32 Q630.984 1769.01 630.984 1773.5 Q630.984 1775.63 630.174 1777.55 Q629.387 1779.45 627.28 1782.04 Q626.702 1782.71 623.6 1785.93 Q620.498 1789.12 614.85 1794.89 Z" fill="#000000" fill-rule="nonzero" fill-opacity="1" /><path clip-path="url(#clip360)" d="M1128.35 1768.34 L1116.54 1786.78 L1128.35 1786.78 L1128.35 1768.34 M1127.12 1764.26 L1133 1764.26 L1133 1786.78 L1137.93 1786.78 L1137.93 1790.67 L1133 1790.67 L1133 1798.82 L1128.35 1798.82 L1128.35 1790.67 L1112.74 1790.67 L1112.74 1786.16 L1127.12 1764.26 Z" fill="#000000" fill-rule="nonzero" fill-opacity="1" /><path clip-path="url(#clip360)" d="M1630.88 1779.68 Q1627.73 1779.68 1625.88 1781.83 Q1624.05 1783.98 1624.05 1787.73 Q1624.05 1791.46 1625.88 1793.64 Q1627.73 1795.79 1630.88 1795.79 Q1634.03 1795.79 1635.86 1793.64 Q1637.71 1791.46 1637.71 1787.73 Q1637.71 1783.98 1635.86 1781.83 Q1634.03 1779.68 1630.88 1779.68 M1640.16 1765.02 L1640.16 1769.28 Q1638.4 1768.45 1636.6 1768.01 Q1634.82 1767.57 1633.06 1767.57 Q1628.43 1767.57 1625.97 1770.7 Q1623.54 1773.82 1623.2 1780.14 Q1624.56 1778.13 1626.62 1777.06 Q1628.68 1775.97 1631.16 1775.97 Q1636.37 1775.97 1639.38 1779.15 Q1642.41 1782.29 1642.41 1787.73 Q1642.41 1793.06 1639.26 1796.27 Q1636.11 1799.49 1630.88 1799.49 Q1624.89 1799.49 1621.71 1794.91 Q1618.54 1790.3 1618.54 1781.58 Q1618.54 1773.38 1622.43 1768.52 Q1626.32 1763.64 1632.87 1763.64 Q1634.63 1763.64 1636.41 1763.98 Q1638.22 1764.33 1640.16 1765.02 Z" fill="#000000" fill-rule="nonzero" fill-opacity="1" /><path clip-path="url(#clip360)" d="M2135.62 1782.41 Q2132.28 1782.41 2130.36 1784.19 Q2128.46 1785.97 2128.46 1789.1 Q2128.46 1792.22 2130.36 1794.01 Q2132.28 1795.79 2135.62 1795.79 Q2138.95 1795.79 2140.87 1794.01 Q2142.79 1792.2 2142.79 1789.1 Q2142.79 1785.97 2140.87 1784.19 Q2138.97 1782.41 2135.62 1782.41 M2130.94 1780.42 Q2127.93 1779.68 2126.24 1777.62 Q2124.57 1775.56 2124.57 1772.59 Q2124.57 1768.45 2127.51 1766.04 Q2130.48 1763.64 2135.62 1763.64 Q2140.78 1763.64 2143.72 1766.04 Q2146.66 1768.45 2146.66 1772.59 Q2146.66 1775.56 2144.97 1777.62 Q2143.3 1779.68 2140.32 1780.42 Q2143.69 1781.21 2145.57 1783.5 Q2147.47 1785.79 2147.47 1789.1 Q2147.47 1794.12 2144.39 1796.81 Q2141.33 1799.49 2135.62 1799.49 Q2129.9 1799.49 2126.82 1796.81 Q2123.76 1794.12 2123.76 1789.1 Q2123.76 1785.79 2125.66 1783.5 Q2127.56 1781.21 2130.94 1780.42 M2129.23 1773.03 Q2129.23 1775.72 2130.89 1777.22 Q2132.58 1778.73 2135.62 1778.73 Q2138.63 1778.73 2140.32 1777.22 Q2142.03 1775.72 2142.03 1773.03 Q2142.03 1770.35 2140.32 1768.84 Q2138.63 1767.34 2135.62 1767.34 Q2132.58 1767.34 2130.89 1768.84 Q2129.23 1770.35 2129.23 1773.03 Z" fill="#000000" fill-rule="nonzero" fill-opacity="1" /><path clip-path="url(#clip360)" d="M2615.44 1794.89 L2623.08 1794.89 L2623.08 1768.52 L2614.77 1770.19 L2614.77 1765.93 L2623.04 1764.26 L2627.71 1764.26 L2627.71 1794.89 L2635.35 1794.89 L2635.35 1798.82 L2615.44 1798.82 L2615.44 1794.89 Z" fill="#000000" fill-rule="nonzero" fill-opacity="1" /><path clip-path="url(#clip360)" d="M2654.8 1767.34 Q2651.18 1767.34 2649.36 1770.9 Q2647.55 1774.45 2647.55 1781.58 Q2647.55 1788.68 2649.36 1792.25 Q2651.18 1795.79 2654.8 1795.79 Q2658.43 1795.79 2660.23 1792.25 Q2662.06 1788.68 2662.06 1781.58 Q2662.06 1774.45 2660.23 1770.9 Q2658.43 1767.34 2654.8 1767.34 M2654.8 1763.64 Q2660.61 1763.64 2663.66 1768.24 Q2666.74 1772.83 2666.74 1781.58 Q2666.74 1790.3 2663.66 1794.91 Q2660.61 1799.49 2654.8 1799.49 Q2648.99 1799.49 2645.91 1794.91 Q2642.85 1790.3 2642.85 1781.58 Q2642.85 1772.83 2645.91 1768.24 Q2648.99 1763.64 2654.8 1763.64 Z" fill="#000000" fill-rule="nonzero" fill-opacity="1" /><path clip-path="url(#clip360)" d="M1376.97 1837.53 L1376.97 1847.65 L1389.03 1847.65 L1389.03 1852.2 L1376.97 1852.2 L1376.97 1871.56 Q1376.97 1875.92 1378.15 1877.16 Q1379.35 1878.4 1383.02 1878.4 L1389.03 1878.4 L1389.03 1883.3 L1383.02 1883.3 Q1376.24 1883.3 1373.66 1880.79 Q1371.08 1878.24 1371.08 1871.56 L1371.08 1852.2 L1366.78 1852.2 L1366.78 1847.65 L1371.08 1847.65 L1371.08 1837.53 L1376.97 1837.53 Z" fill="#000000" fill-rule="nonzero" fill-opacity="1" /><polyline clip-path="url(#clip362)" style="stroke:#000000; stroke-linecap:round; stroke-linejoin:round; stroke-width:2; stroke-opacity:0.1; fill:none" points="115.057,1508.39 2640.76,1508.39 "/>
<polyline clip-path="url(#clip362)" style="stroke:#000000; stroke-linecap:round; stroke-linejoin:round; stroke-width:2; stroke-opacity:0.1; fill:none" points="115.057,1268.9 2640.76,1268.9 "/>
<polyline clip-path="url(#clip362)" style="stroke:#000000; stroke-linecap:round; stroke-linejoin:round; stroke-width:2; stroke-opacity:0.1; fill:none" points="115.057,1029.4 2640.76,1029.4 "/>
<polyline clip-path="url(#clip362)" style="stroke:#000000; stroke-linecap:round; stroke-linejoin:round; stroke-width:2; stroke-opacity:0.1; fill:none" points="115.057,789.905 2640.76,789.905 "/>
<polyline clip-path="url(#clip362)" style="stroke:#000000; stroke-linecap:round; stroke-linejoin:round; stroke-width:2; stroke-opacity:0.1; fill:none" points="115.057,550.409 2640.76,550.409 "/>
<polyline clip-path="url(#clip362)" style="stroke:#000000; stroke-linecap:round; stroke-linejoin:round; stroke-width:2; stroke-opacity:0.1; fill:none" points="115.057,310.912 2640.76,310.912 "/>
<polyline clip-path="url(#clip362)" style="stroke:#000000; stroke-linecap:round; stroke-linejoin:round; stroke-width:2; stroke-opacity:0.1; fill:none" points="115.057,71.4155 2640.76,71.4155 "/>
<polyline clip-path="url(#clip360)" style="stroke:#000000; stroke-linecap:round; stroke-linejoin:round; stroke-width:4; stroke-opacity:1; fill:none" points="115.057,1734.12 115.057,47.2441 "/>
<polyline clip-path="url(#clip360)" style="stroke:#000000; stroke-linecap:round; stroke-linejoin:round; stroke-width:4; stroke-opacity:1; fill:none" points="115.057,1508.39 133.955,1508.39 "/>
<polyline clip-path="url(#clip360)" style="stroke:#000000; stroke-linecap:round; stroke-linejoin:round; stroke-width:4; stroke-opacity:1; fill:none" points="115.057,1268.9 133.955,1268.9 "/>
<polyline clip-path="url(#clip360)" style="stroke:#000000; stroke-linecap:round; stroke-linejoin:round; stroke-width:4; stroke-opacity:1; fill:none" points="115.057,1029.4 133.955,1029.4 "/>
<polyline clip-path="url(#clip360)" style="stroke:#000000; stroke-linecap:round; stroke-linejoin:round; stroke-width:4; stroke-opacity:1; fill:none" points="115.057,789.905 133.955,789.905 "/>
<polyline clip-path="url(#clip360)" style="stroke:#000000; stroke-linecap:round; stroke-linejoin:round; stroke-width:4; stroke-opacity:1; fill:none" points="115.057,550.409 133.955,550.409 "/>
<polyline clip-path="url(#clip360)" style="stroke:#000000; stroke-linecap:round; stroke-linejoin:round; stroke-width:4; stroke-opacity:1; fill:none" points="115.057,310.912 133.955,310.912 "/>
<polyline clip-path="url(#clip360)" style="stroke:#000000; stroke-linecap:round; stroke-linejoin:round; stroke-width:4; stroke-opacity:1; fill:none" points="115.057,71.4155 133.955,71.4155 "/>
<path clip-path="url(#clip360)" d="M54.8299 1521.74 L62.4687 1521.74 L62.4687 1495.37 L54.1586 1497.04 L54.1586 1492.78 L62.4224 1491.11 L67.0983 1491.11 L67.0983 1521.74 L74.7372 1521.74 L74.7372 1525.67 L54.8299 1525.67 L54.8299 1521.74 Z" fill="#000000" fill-rule="nonzero" fill-opacity="1" /><path clip-path="url(#clip360)" d="M58.4178 1282.24 L74.7372 1282.24 L74.7372 1286.18 L52.7928 1286.18 L52.7928 1282.24 Q55.4549 1279.49 60.0382 1274.86 Q64.6446 1270.21 65.8252 1268.86 Q68.0705 1266.34 68.9502 1264.6 Q69.8529 1262.84 69.8529 1261.16 Q69.8529 1258.4 67.9085 1256.66 Q65.9872 1254.93 62.8854 1254.93 Q60.6863 1254.93 58.2326 1255.69 Q55.8021 1256.46 53.0243 1258.01 L53.0243 1253.28 Q55.8484 1252.15 58.3021 1251.57 Q60.7558 1250.99 62.7928 1250.99 Q68.1631 1250.99 71.3576 1253.68 Q74.552 1256.36 74.552 1260.85 Q74.552 1262.98 73.7418 1264.91 Q72.9548 1266.8 70.8483 1269.4 Q70.2696 1270.07 67.1678 1273.28 Q64.0659 1276.48 58.4178 1282.24 Z" fill="#000000" fill-rule="nonzero" fill-opacity="1" /><path clip-path="url(#clip360)" d="M67.6076 1028.05 Q70.964 1028.76 72.839 1031.03 Q74.7372 1033.3 74.7372 1036.64 Q74.7372 1041.75 71.2187 1044.55 Q67.7002 1047.35 61.2187 1047.35 Q59.0428 1047.35 56.728 1046.91 Q54.4364 1046.5 51.9827 1045.64 L51.9827 1041.13 Q53.9271 1042.26 56.2419 1042.84 Q58.5567 1043.42 61.0798 1043.42 Q65.478 1043.42 67.7696 1041.68 Q70.0844 1039.95 70.0844 1036.64 Q70.0844 1033.58 67.9317 1031.87 Q65.802 1030.13 61.9826 1030.13 L57.9549 1030.13 L57.9549 1026.29 L62.1678 1026.29 Q65.6169 1026.29 67.4455 1024.92 Q69.2742 1023.53 69.2742 1020.94 Q69.2742 1018.28 67.3761 1016.87 Q65.5011 1015.43 61.9826 1015.43 Q60.0613 1015.43 57.8623 1015.85 Q55.6632 1016.27 53.0243 1017.14 L53.0243 1012.98 Q55.6864 1012.24 58.0012 1011.87 Q60.3391 1011.5 62.3993 1011.5 Q67.7233 1011.5 70.8252 1013.93 Q73.927 1016.33 73.927 1020.45 Q73.927 1023.33 72.2835 1025.32 Q70.64 1027.28 67.6076 1028.05 Z" fill="#000000" fill-rule="nonzero" fill-opacity="1" /><path clip-path="url(#clip360)" d="M65.1539 776.699 L53.3484 795.148 L65.1539 795.148 L65.1539 776.699 M63.927 772.625 L69.8066 772.625 L69.8066 795.148 L74.7372 795.148 L74.7372 799.037 L69.8066 799.037 L69.8066 807.185 L65.1539 807.185 L65.1539 799.037 L49.5521 799.037 L49.5521 794.523 L63.927 772.625 Z" fill="#000000" fill-rule="nonzero" fill-opacity="1" /><path clip-path="url(#clip360)" d="M53.8345 533.129 L72.1909 533.129 L72.1909 537.064 L58.1169 537.064 L58.1169 545.536 Q59.1354 545.189 60.1539 545.027 Q61.1724 544.841 62.1909 544.841 Q67.978 544.841 71.3576 548.013 Q74.7372 551.184 74.7372 556.601 Q74.7372 562.179 71.265 565.281 Q67.7928 568.36 61.4734 568.36 Q59.2974 568.36 57.0289 567.989 Q54.7836 567.619 52.3762 566.878 L52.3762 562.179 Q54.4595 563.314 56.6817 563.869 Q58.9039 564.425 61.3808 564.425 Q65.3854 564.425 67.7233 562.318 Q70.0613 560.212 70.0613 556.601 Q70.0613 552.99 67.7233 550.883 Q65.3854 548.777 61.3808 548.777 Q59.5058 548.777 57.6308 549.193 Q55.7789 549.61 53.8345 550.49 L53.8345 533.129 Z" fill="#000000" fill-rule="nonzero" fill-opacity="1" /><path clip-path="url(#clip360)" d="M63.2095 309.049 Q60.0613 309.049 58.2095 311.201 Q56.3808 313.354 56.3808 317.104 Q56.3808 320.831 58.2095 323.007 Q60.0613 325.16 63.2095 325.16 Q66.3576 325.16 68.1863 323.007 Q70.0381 320.831 70.0381 317.104 Q70.0381 313.354 68.1863 311.201 Q66.3576 309.049 63.2095 309.049 M72.4918 294.396 L72.4918 298.655 Q70.7326 297.822 68.927 297.382 Q67.1446 296.942 65.3854 296.942 Q60.7558 296.942 58.3021 300.067 Q55.8715 303.192 55.5243 309.512 Q56.89 307.498 58.9502 306.433 Q61.0104 305.345 63.4872 305.345 Q68.6955 305.345 71.7048 308.516 Q74.7372 311.664 74.7372 317.104 Q74.7372 322.428 71.589 325.646 Q68.4409 328.863 63.2095 328.863 Q57.2141 328.863 54.0428 324.28 Q50.8716 319.674 50.8716 310.947 Q50.8716 302.752 54.7604 297.891 Q58.6493 293.007 65.2002 293.007 Q66.9594 293.007 68.7418 293.354 Q70.5474 293.701 72.4918 294.396 Z" fill="#000000" fill-rule="nonzero" fill-opacity="1" /><path clip-path="url(#clip360)" d="M52.5151 54.1355 L74.7372 54.1355 L74.7372 56.1262 L62.1909 88.6955 L57.3067 88.6955 L69.1122 58.0707 L52.5151 58.0707 L52.5151 54.1355 Z" fill="#000000" fill-rule="nonzero" fill-opacity="1" /><polyline clip-path="url(#clip362)" style="stroke:#009af9; stroke-linecap:round; stroke-linejoin:round; stroke-width:4; stroke-opacity:1; fill:none" points="115.057,1508.39 117.585,1507.17 120.114,1505.89 122.642,1504.56 125.17,1503.17 127.698,1501.73 130.227,1500.24 132.755,1498.7 135.283,1497.1 137.811,1495.45 140.339,1493.75 142.868,1492 145.396,1490.19 147.924,1488.33 150.452,1486.42 152.981,1484.46 155.509,1482.44 158.037,1480.38 160.565,1478.25 163.093,1476.08 165.622,1473.86 168.15,1471.58 170.678,1469.24 173.206,1466.86 175.735,1464.42 178.263,1461.92 180.791,1459.38 183.319,1456.77 185.848,1454.12 188.376,1451.4 190.904,1448.64 193.432,1445.81 195.96,1442.93 198.489,1439.99 201.017,1437 203.545,1433.95 206.073,1430.84 208.602,1427.67 211.13,1424.45 213.658,1421.16 216.186,1417.82 218.714,1414.41 221.243,1410.94 223.771,1407.42 226.299,1403.83 228.827,1400.18 231.356,1396.46 233.884,1392.69 236.412,1388.84 238.94,1384.94 241.469,1380.97 243.997,1376.93 246.525,1372.83 249.053,1368.66 251.581,1364.42 254.11,1360.11 256.638,1355.73 259.166,1351.29 261.694,1346.77 264.223,1342.19 266.751,1337.53 269.279,1332.8 271.807,1327.99 274.335,1323.11 276.864,1318.16 279.392,1313.13 281.92,1308.02 284.448,1302.84 286.977,1297.58 289.505,1292.24 292.033,1286.82 294.561,1281.32 297.09,1275.74 299.618,1270.08 302.146,1264.33 304.674,1258.5 307.202,1252.59 309.731,1246.59 312.259,1240.5 314.787,1234.33 317.315,1228.06 319.844,1221.71 322.372,1215.27 324.9,1208.74 327.428,1202.12 329.956,1195.41 332.485,1188.6 335.013,1181.7 337.541,1174.7 340.069,1167.6 342.598,1160.41 345.126,1153.12 347.654,1145.74 350.182,1138.25 352.711,1130.66 355.239,1122.97 357.767,1115.18 360.295,1107.29 362.823,1099.29 365.352,1091.19 367.88,1082.98 370.408,1074.67 372.936,1066.25 375.465,1057.72 377.993,1049.08 380.521,1040.33 383.049,1031.47 385.577,1022.5 388.106,1013.41 390.634,1004.22 393.162,994.906 395.69,985.483 398.219,975.945 400.747,966.292 403.275,956.524 405.803,946.641 408.332,936.642 410.86,926.527 413.388,916.295 415.916,905.947 418.444,895.482 420.973,884.9 423.501,874.202 426.029,863.386 428.557,852.454 431.086,841.404 433.614,830.238 436.142,818.956 438.67,807.563 441.198,796.059 443.727,784.444 446.255,772.716 448.783,760.877 451.311,748.926 453.84,736.863 456.368,724.691 458.896,712.408 461.424,700.019 463.952,687.524 466.481,674.926 469.009,662.227 471.537,649.431 474.065,636.541 476.594,623.56 479.122,610.494 481.65,597.346 484.178,584.121 486.707,570.825 489.235,557.463 491.763,544.042 494.291,530.566 496.819,517.043 499.348,503.481 501.876,489.886 504.404,476.266 506.932,462.629 509.461,448.984 511.989,435.339 514.517,421.703 517.045,408.087 519.573,394.5 522.102,380.952 524.63,367.453 527.158,353.999 529.686,340.601 532.215,327.283 534.743,314.066 537.271,300.974 539.799,288.032 542.328,275.263 544.856,262.694 547.384,250.349 549.912,238.255 552.44,226.44 554.969,214.929 557.497,203.753 560.025,192.939 562.553,182.517 565.082,172.517 567.61,162.969 570.138,153.905 572.666,145.355 575.194,137.354 577.723,129.932 580.251,123.125 582.779,116.965 585.307,111.489 587.836,106.73 590.364,102.726 592.892,99.5115 595.42,97.1249 597.949,95.6036 600.477,94.9858 603.005,95.3104 605.533,96.6169 608.061,98.9453 610.59,102.336 613.118,106.831 615.646,112.472 618.174,119.304 620.703,127.377 623.231,136.694 625.759,147.252 628.287,159.044 630.815,172.055 633.344,186.271 635.872,201.67 638.4,218.229 640.928,235.918 643.457,254.705 645.985,274.553 648.513,295.422 651.041,317.265 653.57,340.035 656.098,363.678 658.626,388.138 661.154,413.352 663.682,439.255 666.211,465.778 668.739,492.847 671.267,520.386 673.795,548.311 676.324,576.537 678.852,604.975 681.38,633.531 683.908,662.105 686.436,690.597 688.965,718.932 691.493,747.085 694.021,774.985 696.549,802.568 699.078,829.775 701.606,856.548 704.134,882.838 706.662,908.599 709.191,933.789 711.719,958.374 714.247,982.321 716.775,1005.6 719.303,1028.2 721.832,1050.1 724.36,1071.28 726.888,1091.74 729.416,1111.48 731.945,1130.49 734.473,1148.8 737.001,1166.4 739.529,1183.32 742.057,1199.58 744.586,1215.21 747.114,1230.23 749.642,1244.69 752.17,1258.58 754.699,1271.89 757.227,1284.63 759.755,1296.83 762.283,1308.51 764.812,1319.68 767.34,1330.37 769.868,1340.58 772.396,1350.35 774.924,1359.69 777.453,1368.6 779.981,1377.12 782.509,1385.25 785.037,1393.01 787.566,1400.42 790.094,1407.48 792.622,1414.21 795.15,1420.63 797.678,1426.74 800.207,1432.57 802.735,1438.11 805.263,1443.38 807.791,1448.4 810.32,1453.16 812.848,1457.7 815.376,1462.01 817.904,1466.1 820.432,1469.99 822.961,1473.69 825.489,1477.19 828.017,1480.51 830.545,1483.65 833.074,1486.62 835.602,1489.43 838.13,1492.08 840.658,1494.59 843.187,1496.94 845.715,1499.16 848.243,1501.25 850.771,1503.2 853.299,1505.04 855.828,1506.75 858.356,1508.35 860.884,1509.83 863.412,1511.21 865.941,1512.48 868.469,1513.65 870.997,1514.73 873.525,1515.7 876.053,1516.58 878.582,1517.37 881.11,1518.07 883.638,1518.69 886.166,1519.21 888.695,1519.66 891.223,1520.03 893.751,1520.32 896.279,1520.54 898.808,1520.68 901.336,1520.75 903.864,1520.75 906.392,1520.68 908.92,1520.54 911.449,1520.33 913.977,1520.06 916.505,1519.72 919.033,1519.32 921.562,1518.86 924.09,1518.33 926.618,1517.75 929.146,1517.1 931.674,1516.4 934.203,1515.63 936.731,1514.81 939.259,1513.94 941.787,1513 944.316,1512.02 946.844,1510.97 949.372,1509.88 951.9,1508.72 954.429,1507.52 956.957,1506.26 959.485,1504.94 962.013,1503.58 964.541,1502.16 967.07,1500.69 969.598,1499.17 972.126,1497.59 974.654,1495.96 977.183,1494.28 979.711,1492.54 982.239,1490.76 984.767,1488.92 987.295,1487.03 989.824,1485.09 992.352,1483.09 994.88,1481.04 997.408,1478.94 999.937,1476.78 1002.46,1474.57 1004.99,1472.31 1007.52,1470 1010.05,1467.63 1012.58,1465.21 1015.11,1462.73 1017.63,1460.2 1020.16,1457.62 1022.69,1454.98 1025.22,1452.28 1027.75,1449.53 1030.28,1446.73 1032.8,1443.87 1035.33,1440.95 1037.86,1437.97 1040.39,1434.94 1042.92,1431.85 1045.44,1428.7 1047.97,1425.5 1050.5,1422.23 1053.03,1418.91 1055.56,1415.53 1058.09,1412.08 1060.61,1408.58 1063.14,1405.01 1065.67,1401.38 1068.2,1397.69 1070.73,1393.93 1073.26,1390.11 1075.78,1386.23 1078.31,1382.28 1080.84,1378.26 1083.37,1374.18 1085.9,1370.04 1088.42,1365.82 1090.95,1361.54 1093.48,1357.19 1096.01,1352.77 1098.54,1348.28 1101.07,1343.71 1103.59,1339.08 1106.12,1334.37 1108.65,1329.59 1111.18,1324.74 1113.71,1319.81 1116.24,1314.81 1118.76,1309.73 1121.29,1304.58 1123.82,1299.34 1126.35,1294.03 1128.88,1288.64 1131.4,1283.17 1133.93,1277.62 1136.46,1271.99 1138.99,1266.27 1141.52,1260.47 1144.05,1254.59 1146.57,1248.62 1149.1,1242.56 1151.63,1236.42 1154.16,1230.19 1156.69,1223.87 1159.21,1217.46 1161.74,1210.97 1164.27,1204.38 1166.8,1197.7 1169.33,1190.92 1171.86,1184.05 1174.38,1177.09 1176.91,1170.03 1179.44,1162.87 1181.97,1155.62 1184.5,1148.27 1187.03,1140.81 1189.55,1133.26 1192.08,1125.61 1194.61,1117.85 1197.14,1109.99 1199.67,1102.03 1202.19,1093.96 1204.72,1085.79 1207.25,1077.51 1209.78,1069.12 1212.31,1060.63 1214.84,1052.03 1217.36,1043.32 1219.89,1034.49 1222.42,1025.56 1224.95,1016.52 1227.48,1007.37 1230.01,998.099 1232.53,988.719 1235.06,979.224 1237.59,969.616 1240.12,959.892 1242.65,950.052 1245.17,940.096 1247.7,930.028 1250.23,919.855 1252.76,909.574 1255.29,899.182 1257.82,888.678 1260.34,878.059 1262.87,867.323 1265.4,856.47 1267.93,845.497 1270.46,834.404 1272.99,823.191 1275.51,811.857 1278.04,800.402 1280.57,788.827 1283.1,777.132 1285.63,765.318 1288.15,753.387 1290.68,741.339 1293.21,729.178 1295.74,716.904 1298.27,704.52 1300.8,692.03 1303.32,679.435 1305.85,666.74 1308.38,653.948 1310.91,641.062 1313.44,628.088 1315.96,615.029 1318.49,601.89 1321.02,588.676 1323.55,575.393 1326.08,562.047 1328.61,548.643 1331.13,535.187 1333.66,521.686 1336.19,508.147 1338.72,494.577 1341.25,480.984 1343.78,467.375 1346.3,453.758 1348.83,440.142 1351.36,426.535 1353.89,412.946 1356.42,399.385 1358.94,385.86 1361.47,372.382 1364,358.961 1366.53,345.606 1369.06,332.325 1371.59,319.119 1374.11,306.011 1376.64,293.029 1379.17,280.199 1381.7,267.55 1384.23,255.108 1386.76,242.904 1389.28,230.964 1391.81,219.319 1394.34,207.997 1396.87,197.03 1399.4,186.446 1401.92,176.278 1404.45,166.555 1406.98,157.311 1409.51,148.576 1412.04,140.384 1414.57,132.766 1417.09,125.757 1419.62,119.389 1422.15,113.698 1424.68,108.717 1427.21,104.481 1429.74,101.025 1432.26,98.386 1434.79,96.5991 1437.32,95.7009 1439.85,95.7284 1442.38,96.7188 1444.9,98.71 1447.43,101.74 1449.96,105.847 1452.49,111.071 1455.02,117.451 1457.55,125.025 1460.07,133.871 1462.6,144.028 1465.13,155.473 1467.66,168.18 1470.19,182.118 1472.72,197.255 1475.24,213.558 1477.77,230.989 1480.3,249.509 1482.83,269.075 1485.36,289.643 1487.88,311.165 1490.41,333.591 1492.94,356.869 1495.47,380.944 1498,405.758 1500.53,431.251 1503.05,457.359 1505.58,484.019 1508.11,511.16 1510.64,538.714 1513.17,566.608 1515.69,594.764 1518.22,623.105 1520.75,651.551 1523.28,680.017 1525.81,708.419 1528.34,736.666 1530.86,764.669 1533.39,792.333 1535.92,819.568 1538.45,846.362 1540.98,872.688 1543.51,898.509 1546.03,923.788 1548.56,948.494 1551.09,972.599 1553.62,996.076 1556.15,1018.9 1558.67,1041.07 1561.2,1062.55 1563.73,1083.33 1566.26,1103.42 1568.79,1122.79 1571.32,1141.46 1573.84,1159.42 1576.37,1176.68 1578.9,1193.25 1581.43,1209.13 1583.96,1224.35 1586.49,1238.92 1589.01,1252.87 1591.54,1266.22 1594.07,1279 1596.6,1291.24 1599.13,1302.98 1601.65,1314.25 1604.18,1325.1 1606.71,1335.5 1609.24,1345.44 1611.77,1354.94 1614.3,1364.01 1616.82,1372.67 1619.35,1380.94 1621.88,1388.84 1624.41,1396.37 1626.94,1403.56 1629.47,1410.42 1631.99,1416.96 1634.52,1423.2 1637.05,1429.15 1639.58,1434.81 1642.11,1440.21 1644.63,1445.35 1647.16,1450.25 1649.69,1454.9 1652.22,1459.33 1654.75,1463.54 1657.28,1467.55 1659.8,1471.34 1662.33,1474.94 1664.86,1478.36 1667.39,1481.58 1669.92,1484.63 1672.44,1487.51 1674.97,1490.24 1677.5,1492.81 1680.03,1495.23 1682.56,1497.52 1685.09,1499.66 1687.61,1501.68 1690.14,1503.57 1692.67,1505.33 1695.2,1506.97 1697.73,1508.5 1700.26,1509.92 1702.78,1511.23 1705.31,1512.44 1707.84,1513.54 1710.37,1514.55 1712.9,1515.47 1715.42,1516.29 1717.95,1517.02 1720.48,1517.67 1723.01,1518.23 1725.54,1518.71 1728.07,1519.11 1730.59,1519.43 1733.12,1519.68 1735.65,1519.85 1738.18,1519.96 1740.71,1519.98 1743.24,1519.94 1745.76,1519.83 1748.29,1519.65 1750.82,1519.41 1753.35,1519.1 1755.88,1518.73 1758.4,1518.29 1760.93,1517.8 1763.46,1517.24 1765.99,1516.62 1768.52,1515.94 1771.05,1515.21 1773.57,1514.41 1776.1,1513.56 1778.63,1512.65 1781.16,1511.68 1783.69,1510.66 1786.22,1509.58 1788.74,1508.45 1791.27,1507.26 1793.8,1506.02 1796.33,1504.73 1798.86,1503.38 1801.38,1501.98 1803.91,1500.52 1806.44,1499.01 1808.97,1497.45 1811.5,1495.84 1814.03,1494.17 1816.55,1492.46 1819.08,1490.69 1821.61,1488.86 1824.14,1486.99 1826.67,1485.06 1829.2,1483.08 1831.72,1481.05 1834.25,1478.97 1836.78,1476.84 1839.31,1474.65 1841.84,1472.4 1844.36,1470.11 1846.89,1467.76 1849.42,1465.36 1851.95,1462.9 1854.48,1460.39 1857.01,1457.83 1859.53,1455.21 1862.06,1452.53 1864.59,1449.8 1867.12,1447.02 1869.65,1444.17 1872.17,1441.27 1874.7,1438.32 1877.23,1435.31 1879.76,1432.23 1882.29,1429.11 1884.82,1425.92 1887.34,1422.67 1889.87,1419.36 1892.4,1416 1894.93,1412.57 1897.46,1409.09 1899.99,1405.54 1902.51,1401.93 1905.04,1398.25 1907.57,1394.52 1910.1,1390.72 1912.63,1386.85 1915.15,1382.92 1917.68,1378.93 1920.21,1374.87 1922.74,1370.74 1925.27,1366.55 1927.8,1362.29 1930.32,1357.96 1932.85,1353.56 1935.38,1349.09 1937.91,1344.55 1940.44,1339.93 1942.97,1335.25 1945.49,1330.49 1948.02,1325.66 1950.55,1320.76 1953.08,1315.78 1955.61,1310.72 1958.13,1305.59 1960.66,1300.38 1963.19,1295.09 1965.72,1289.72 1968.25,1284.27 1970.78,1278.74 1973.3,1273.13 1975.83,1267.44 1978.36,1261.67 1980.89,1255.81 1983.42,1249.87 1985.95,1243.84 1988.47,1237.72 1991,1231.52 1993.53,1225.23 1996.06,1218.85 1998.59,1212.38 2001.11,1205.82 2003.64,1199.16 2006.17,1192.42 2008.7,1185.58 2011.23,1178.65 2013.76,1171.62 2016.28,1164.5 2018.81,1157.27 2021.34,1149.95 2023.87,1142.54 2026.4,1135.02 2028.92,1127.4 2031.45,1119.67 2033.98,1111.85 2036.51,1103.93 2039.04,1095.9 2041.57,1087.77 2044.09,1079.53 2046.62,1071.18 2049.15,1062.73 2051.68,1054.17 2054.21,1045.5 2056.74,1036.72 2059.26,1027.82 2061.79,1018.82 2064.32,1009.7 2066.85,1000.47 2069.38,991.127 2071.9,981.668 2074.43,972.095 2076.96,962.406 2079.49,952.602 2082.02,942.683 2084.55,932.647 2087.07,922.495 2089.6,912.227 2092.13,901.843 2094.66,891.342 2097.19,880.725 2099.72,869.993 2102.24,859.144 2104.77,848.18 2107.3,837.1 2109.83,825.906 2112.36,814.597 2114.88,803.174 2117.41,791.638 2119.94,779.989 2122.47,768.228 2125,756.355 2127.53,744.372 2130.05,732.279 2132.58,720.09 2135.11,707.819 2137.64,695.461 2140.17,683.013 2142.7,670.473 2145.22,657.84 2147.75,645.113 2150.28,632.292 2152.81,619.379 2155.34,606.374 2157.86,593.28 2160.39,580.101 2162.92,566.84 2165.45,553.502 2167.98,540.093 2170.51,526.618 2173.03,513.085 2175.56,499.502 2178.09,485.876 2180.62,472.217 2183.15,458.536 2185.68,444.843 2188.2,431.149 2190.73,417.467 2193.26,403.81 2195.79,390.191 2198.32,376.627 2200.84,363.13 2203.37,349.719 2205.9,336.409 2208.43,323.219 2210.96,310.166 2213.49,297.27 2216.01,284.551 2218.54,272.03 2221.07,259.727 2223.6,247.666 2226.13,235.868 2228.65,224.359 2231.18,213.162 2233.71,202.302 2236.24,191.806 2238.77,181.7 2241.3,172.012 2243.82,162.77 2246.35,154.004 2248.88,145.742 2251.41,138.016 2253.94,130.857 2256.47,124.297 2258.99,118.368 2261.52,113.105 2264.05,108.565 2266.58,104.801 2269.11,101.864 2271.63,99.8009 2274.16,98.6555 2276.69,98.4689 2279.22,99.2784 2281.75,101.118 2284.28,104.019 2286.8,108.009 2289.33,113.111 2291.86,119.348 2294.39,126.737 2296.92,135.291 2299.45,145.024 2301.97,155.942 2304.5,168.049 2307.03,181.349 2309.56,195.837 2312.09,211.51 2314.61,228.359 2317.14,246.372 2319.67,265.547 2322.2,285.849 2324.73,307.205 2327.26,329.543 2329.78,352.788 2332.31,376.868 2334.84,401.708 2337.37,427.236 2339.9,453.376 2342.43,480.054 2344.95,507.197 2347.48,534.73 2350.01,562.576 2352.54,590.663 2355.07,618.913 2357.59,647.252 2360.12,675.604 2362.65,703.893 2365.18,732.044 2367.71,759.979 2370.24,787.622 2372.76,814.897 2375.29,841.727 2377.82,868.061 2380.35,893.883 2382.88,919.16 2385.4,943.864 2387.93,967.968 2390.46,991.451 2392.99,1014.29 2395.52,1036.48 2398.05,1057.99 2400.57,1078.82 2403.1,1098.96 2405.63,1118.41 2408.16,1137.17 2410.69,1155.23 2413.22,1172.61 2415.74,1189.3 2418.27,1205.33 2420.8,1220.7 2423.33,1235.43 2425.86,1249.55 2428.38,1263.07 2430.91,1276.02 2433.44,1288.43 2435.97,1300.33 2438.5,1311.76 2441.03,1322.73 2443.55,1333.21 2446.08,1343.24 2448.61,1352.81 2451.14,1361.96 2453.67,1370.7 2456.2,1379.04 2458.72,1387 2461.25,1394.61 2463.78,1401.86 2466.31,1408.78 2468.84,1415.38 2471.36,1421.67 2473.89,1427.67 2476.42,1433.38 2478.95,1438.83 2481.48,1444.01 2484.01,1448.94 2486.53,1453.64 2489.06,1458.1 2491.59,1462.34 2494.12,1466.37 2496.65,1470.19 2499.18,1473.81 2501.7,1477.24 2504.23,1480.49 2506.76,1483.57 2509.29,1486.49 2511.82,1489.24 2514.34,1491.84 2516.87,1494.29 2519.4,1496.6 2521.93,1498.77 2524.46,1500.81 2526.99,1502.72 2529.51,1504.5 2532.04,1506.17 2534.57,1507.72 2537.1,1509.16 2539.63,1510.49 2542.16,1511.72 2544.68,1512.85 2547.21,1513.88 2549.74,1514.81 2552.27,1515.66 2554.8,1516.41 2557.32,1517.08 2559.85,1517.66 2562.38,1518.16 2564.91,1518.58 2567.44,1518.92 2569.97,1519.18 2572.49,1519.37 2575.02,1519.48 2577.55,1519.52 2580.08,1519.5 2582.61,1519.4 2585.13,1519.23 2587.66,1519 2590.19,1518.7 2592.72,1518.34 2595.25,1517.92 2597.78,1517.43 2600.3,1516.88 2602.83,1516.27 2605.36,1515.6 2607.89,1514.87 2610.42,1514.09 2612.95,1513.24 2615.47,1512.34 2618,1511.38 2620.53,1510.37 2623.06,1509.3 2625.59,1508.18 2628.11,1507 2630.64,1505.77 2633.17,1504.48 2635.7,1503.15 2638.23,1501.75 2640.76,1500.31 "/>
<polyline clip-path="url(#clip362)" style="stroke:#e26f46; stroke-linecap:round; stroke-linejoin:round; stroke-width:4; stroke-opacity:1; fill:none" points="115.057,1508.39 117.585,1513.14 120.114,1517.77 122.642,1522.3 125.17,1526.73 127.698,1531.06 130.227,1535.29 132.755,1539.43 135.283,1543.47 137.811,1547.42 140.339,1551.28 142.868,1555.05 145.396,1558.74 147.924,1562.34 150.452,1565.86 152.981,1569.3 155.509,1572.65 158.037,1575.93 160.565,1579.14 163.093,1582.26 165.622,1585.32 168.15,1588.31 170.678,1591.22 173.206,1594.07 175.735,1596.85 178.263,1599.56 180.791,1602.21 183.319,1604.8 185.848,1607.32 188.376,1609.79 190.904,1612.19 193.432,1614.54 195.96,1616.84 198.489,1619.07 201.017,1621.26 203.545,1623.39 206.073,1625.47 208.602,1627.5 211.13,1629.48 213.658,1631.41 216.186,1633.29 218.714,1635.13 221.243,1636.92 223.771,1638.67 226.299,1640.37 228.827,1642.03 231.356,1643.65 233.884,1645.23 236.412,1646.77 238.94,1648.27 241.469,1649.73 243.997,1651.16 246.525,1652.54 249.053,1653.89 251.581,1655.21 254.11,1656.49 256.638,1657.74 259.166,1658.95 261.694,1660.13 264.223,1661.28 266.751,1662.39 269.279,1663.48 271.807,1664.53 274.335,1665.56 276.864,1666.56 279.392,1667.52 281.92,1668.46 284.448,1669.37 286.977,1670.26 289.505,1671.11 292.033,1671.94 294.561,1672.75 297.09,1673.53 299.618,1674.28 302.146,1675.01 304.674,1675.71 307.202,1676.39 309.731,1677.05 312.259,1677.68 314.787,1678.28 317.315,1678.87 319.844,1679.43 322.372,1679.97 324.9,1680.49 327.428,1680.98 329.956,1681.45 332.485,1681.9 335.013,1682.33 337.541,1682.74 340.069,1683.12 342.598,1683.49 345.126,1683.83 347.654,1684.15 350.182,1684.45 352.711,1684.73 355.239,1684.98 357.767,1685.22 360.295,1685.43 362.823,1685.62 365.352,1685.79 367.88,1685.94 370.408,1686.07 372.936,1686.17 375.465,1686.26 377.993,1686.32 380.521,1686.36 383.049,1686.38 385.577,1686.37 388.106,1686.34 390.634,1686.29 393.162,1686.21 395.69,1686.11 398.219,1685.99 400.747,1685.84 403.275,1685.66 405.803,1685.46 408.332,1685.23 410.86,1684.97 413.388,1684.69 415.916,1684.38 418.444,1684.03 420.973,1683.66 423.501,1683.26 426.029,1682.82 428.557,1682.35 431.086,1681.85 433.614,1681.31 436.142,1680.74 438.67,1680.13 441.198,1679.48 443.727,1678.78 446.255,1678.05 448.783,1677.27 451.311,1676.44 453.84,1675.58 456.368,1674.66 458.896,1673.7 461.424,1672.69 463.952,1671.63 466.481,1670.51 469.009,1669.34 471.537,1668.1 474.065,1666.81 476.594,1665.45 479.122,1664.03 481.65,1662.53 484.178,1660.96 486.707,1659.31 489.235,1657.58 491.763,1655.76 494.291,1653.85 496.819,1651.85 499.348,1649.75 501.876,1647.54 504.404,1645.22 506.932,1642.79 509.461,1640.24 511.989,1637.56 514.517,1634.75 517.045,1631.8 519.573,1628.71 522.102,1625.47 524.63,1622.07 527.158,1618.52 529.686,1614.81 532.215,1610.94 534.743,1606.87 537.271,1602.61 539.799,1598.12 542.328,1593.41 544.856,1588.45 547.384,1583.24 549.912,1577.74 552.44,1571.97 554.969,1565.89 557.497,1559.5 560.025,1552.78 562.553,1545.72 565.082,1538.3 567.61,1530.52 570.138,1522.36 572.666,1513.81 575.194,1504.86 577.723,1495.48 580.251,1485.69 582.779,1475.45 585.307,1464.76 587.836,1453.6 590.364,1441.98 592.892,1429.87 595.42,1417.26 597.949,1404.14 600.477,1390.51 603.005,1376.35 605.533,1361.65 608.061,1346.4 610.59,1330.59 613.118,1314.22 615.646,1297.27 618.174,1279.72 620.703,1261.54 623.231,1242.76 625.759,1223.45 628.287,1203.65 630.815,1183.41 633.344,1162.78 635.872,1141.84 638.4,1120.61 640.928,1099.18 643.457,1077.58 645.985,1055.89 648.513,1034.15 651.041,1012.43 653.57,990.789 656.098,969.289 658.626,947.992 661.154,926.962 663.682,906.262 666.211,885.958 668.739,866.115 671.267,846.801 673.795,828.082 676.324,810.028 678.852,792.708 681.38,776.192 683.908,760.551 686.436,745.857 688.965,732.16 691.493,719.462 694.021,707.796 696.549,697.188 699.078,687.66 701.606,679.228 704.134,671.905 706.662,665.698 709.191,660.608 711.719,656.634 714.247,653.767 716.775,651.995 719.303,651.301 721.832,651.662 724.36,653.051 726.888,655.436 729.416,658.779 731.945,663.039 734.473,668.169 737.001,674.116 739.529,680.825 742.057,688.233 744.586,696.275 747.114,704.877 749.642,713.966 752.17,723.527 754.699,733.575 757.227,744.07 759.755,754.973 762.283,766.247 764.812,777.855 767.34,789.764 769.868,801.938 772.396,814.348 774.924,826.963 777.453,839.753 779.981,852.691 782.509,865.751 785.037,878.908 787.566,892.139 790.094,905.423 792.622,918.739 795.15,932.067 797.678,945.391 800.207,958.694 802.735,971.961 805.263,985.18 807.791,998.338 810.32,1011.42 812.848,1024.41 815.376,1037.3 817.904,1050.08 820.432,1062.75 822.961,1075.29 825.489,1087.7 828.017,1099.98 830.545,1112.12 833.074,1124.11 835.602,1135.95 838.13,1147.64 840.658,1159.17 843.187,1170.54 845.715,1181.74 848.243,1192.78 850.771,1203.65 853.299,1214.34 855.828,1224.87 858.356,1235.22 860.884,1245.4 863.412,1255.4 865.941,1265.23 868.469,1274.88 870.997,1284.36 873.525,1293.67 876.053,1302.81 878.582,1311.78 881.11,1320.59 883.638,1329.23 886.166,1337.71 888.695,1346.03 891.223,1354.18 893.751,1362.17 896.279,1370.01 898.808,1377.69 901.336,1385.21 903.864,1392.58 906.392,1399.81 908.92,1406.88 911.449,1413.81 913.977,1420.6 916.505,1427.24 919.033,1433.74 921.562,1440.11 924.09,1446.34 926.618,1452.44 929.146,1458.41 931.674,1464.24 934.203,1469.96 936.731,1475.54 939.259,1481.01 941.787,1486.35 944.316,1491.58 946.844,1496.69 949.372,1501.69 951.9,1506.58 954.429,1511.36 956.957,1516.03 959.485,1520.6 962.013,1525.07 964.541,1529.43 967.07,1533.7 969.598,1537.87 972.126,1541.95 974.654,1545.93 977.183,1549.82 979.711,1553.63 982.239,1557.34 984.767,1560.98 987.295,1564.52 989.824,1567.99 992.352,1571.38 994.88,1574.69 997.408,1577.92 999.937,1581.07 1002.46,1584.16 1004.99,1587.17 1007.52,1590.11 1010.05,1592.98 1012.58,1595.79 1015.11,1598.53 1017.63,1601.2 1020.16,1603.81 1022.69,1606.36 1025.22,1608.85 1027.75,1611.28 1030.28,1613.65 1032.8,1615.97 1035.33,1618.22 1037.86,1620.43 1040.39,1622.58 1042.92,1624.68 1045.44,1626.73 1047.97,1628.73 1050.5,1630.67 1053.03,1632.57 1055.56,1634.43 1058.09,1636.24 1060.61,1638 1063.14,1639.72 1065.67,1641.39 1068.2,1643.03 1070.73,1644.62 1073.26,1646.17 1075.78,1647.68 1078.31,1649.16 1080.84,1650.59 1083.37,1651.99 1085.9,1653.36 1088.42,1654.68 1090.95,1655.98 1093.48,1657.23 1096.01,1658.46 1098.54,1659.65 1101.07,1660.81 1103.59,1661.94 1106.12,1663.03 1108.65,1664.1 1111.18,1665.14 1113.71,1666.15 1116.24,1667.12 1118.76,1668.07 1121.29,1669 1123.82,1669.89 1126.35,1670.76 1128.88,1671.6 1131.4,1672.42 1133.93,1673.21 1136.46,1673.97 1138.99,1674.71 1141.52,1675.42 1144.05,1676.11 1146.57,1676.77 1149.1,1677.41 1151.63,1678.03 1154.16,1678.62 1156.69,1679.19 1159.21,1679.74 1161.74,1680.26 1164.27,1680.76 1166.8,1681.24 1169.33,1681.7 1171.86,1682.13 1174.38,1682.55 1176.91,1682.94 1179.44,1683.31 1181.97,1683.66 1184.5,1683.99 1187.03,1684.3 1189.55,1684.58 1192.08,1684.85 1194.61,1685.09 1197.14,1685.31 1199.67,1685.51 1202.19,1685.69 1204.72,1685.85 1207.25,1685.98 1209.78,1686.1 1212.31,1686.19 1214.84,1686.26 1217.36,1686.31 1219.89,1686.33 1222.42,1686.34 1224.95,1686.31 1227.48,1686.27 1230.01,1686.2 1232.53,1686.11 1235.06,1685.99 1237.59,1685.85 1240.12,1685.68 1242.65,1685.48 1245.17,1685.26 1247.7,1685.01 1250.23,1684.73 1252.76,1684.41 1255.29,1684.06 1257.82,1683.67 1260.34,1683.26 1262.87,1682.81 1265.4,1682.33 1267.93,1681.81 1270.46,1681.26 1272.99,1680.68 1275.51,1680.07 1278.04,1679.42 1280.57,1678.74 1283.1,1678.01 1285.63,1677.25 1288.15,1676.45 1290.68,1675.61 1293.21,1674.73 1295.74,1673.79 1298.27,1672.82 1300.8,1671.79 1303.32,1670.71 1305.85,1669.57 1308.38,1668.38 1310.91,1667.12 1313.44,1665.81 1315.96,1664.42 1318.49,1662.96 1321.02,1661.43 1323.55,1659.82 1326.08,1658.13 1328.61,1656.35 1331.13,1654.48 1333.66,1652.52 1336.19,1650.46 1338.72,1648.29 1341.25,1646.01 1343.78,1643.61 1346.3,1641.1 1348.83,1638.46 1351.36,1635.69 1353.89,1632.78 1356.42,1629.73 1358.94,1626.53 1361.47,1623.18 1364,1619.66 1366.53,1615.97 1369.06,1612.12 1371.59,1608.09 1374.11,1603.89 1376.64,1599.48 1379.17,1594.86 1381.7,1590.01 1384.23,1584.9 1386.76,1579.53 1389.28,1573.89 1391.81,1567.94 1394.34,1561.69 1396.87,1555.11 1399.4,1548.19 1401.92,1540.92 1404.45,1533.28 1406.98,1525.26 1409.51,1516.85 1412.04,1508.04 1414.57,1498.81 1417.09,1489.14 1419.62,1479.04 1422.15,1468.49 1424.68,1457.48 1427.21,1445.99 1429.74,1434.02 1432.26,1421.56 1434.79,1408.59 1437.32,1395.12 1439.85,1381.12 1442.38,1366.6 1444.9,1351.54 1447.43,1335.94 1449.96,1319.78 1452.49,1303.07 1455.02,1285.79 1457.55,1267.94 1460.07,1249.46 1462.6,1230.34 1465.13,1210.64 1467.66,1190.45 1470.19,1169.83 1472.72,1148.84 1475.24,1127.56 1477.77,1106.05 1480.3,1084.38 1482.83,1062.61 1485.36,1040.81 1487.88,1019.04 1490.41,997.372 1492.94,975.863 1495.47,954.576 1498,933.574 1500.53,912.917 1503.05,892.665 1505.58,872.878 1508.11,853.614 1510.64,834.932 1513.17,816.89 1515.69,799.544 1518.22,782.95 1520.75,767.163 1523.28,752.239 1525.81,738.232 1528.34,725.194 1530.86,713.178 1533.39,702.237 1535.92,692.419 1538.45,683.721 1540.98,676.134 1543.51,669.653 1546.03,664.268 1548.56,659.97 1551.09,656.745 1553.62,654.577 1556.15,653.448 1558.67,653.338 1561.2,654.222 1563.73,656.074 1566.26,658.868 1568.79,662.571 1571.32,667.149 1573.84,672.568 1576.37,678.789 1578.9,685.77 1581.43,693.468 1583.96,701.837 1586.49,710.829 1589.01,720.392 1591.54,730.472 1594.07,741.014 1596.6,751.958 1599.13,763.244 1601.65,774.808 1604.18,786.585 1606.71,798.594 1609.24,810.844 1611.77,823.307 1614.3,835.955 1616.82,848.762 1619.35,861.703 1621.88,874.755 1624.41,887.893 1626.94,901.096 1629.47,914.344 1631.99,927.617 1634.52,940.896 1637.05,954.163 1639.58,967.403 1642.11,980.6 1644.63,993.739 1647.16,1006.81 1649.69,1019.79 1652.22,1032.69 1654.75,1045.48 1657.28,1058.15 1659.8,1070.71 1662.33,1083.14 1664.86,1095.44 1667.39,1107.6 1669.92,1119.63 1672.44,1131.5 1674.97,1143.22 1677.5,1154.79 1680.03,1166.19 1682.56,1177.42 1685.09,1188.5 1687.61,1199.4 1690.14,1210.14 1692.67,1220.71 1695.2,1231.11 1697.73,1241.35 1700.26,1251.41 1702.78,1261.3 1705.31,1271.01 1707.84,1280.56 1710.37,1289.94 1712.9,1299.14 1715.42,1308.18 1717.95,1317.05 1720.48,1325.75 1723.01,1334.29 1725.54,1342.65 1728.07,1350.86 1730.59,1358.9 1733.12,1366.79 1735.65,1374.52 1738.18,1382.09 1740.71,1389.51 1743.24,1396.78 1745.76,1403.9 1748.29,1410.88 1750.82,1417.71 1753.35,1424.4 1755.88,1430.95 1758.4,1437.37 1760.93,1443.64 1763.46,1449.79 1765.99,1455.8 1768.52,1461.69 1771.05,1467.44 1773.57,1473.08 1776.1,1478.59 1778.63,1483.98 1781.16,1489.25 1783.69,1494.41 1786.22,1499.45 1788.74,1504.39 1791.27,1509.21 1793.8,1513.93 1796.33,1518.54 1798.86,1523.04 1801.38,1527.45 1803.91,1531.75 1806.44,1535.96 1808.97,1540.07 1811.5,1544.09 1814.03,1548.02 1816.55,1551.86 1819.08,1555.61 1821.61,1559.27 1824.14,1562.85 1826.67,1566.35 1829.2,1569.77 1831.72,1573.11 1834.25,1576.37 1836.78,1579.55 1839.31,1582.66 1841.84,1585.7 1844.36,1588.67 1846.89,1591.56 1849.42,1594.39 1851.95,1597.16 1854.48,1599.85 1857.01,1602.49 1859.53,1605.06 1862.06,1607.57 1864.59,1610.02 1867.12,1612.41 1869.65,1614.75 1872.17,1617.03 1874.7,1619.25 1877.23,1621.43 1879.76,1623.55 1882.29,1625.61 1884.82,1627.63 1887.34,1629.6 1889.87,1631.52 1892.4,1633.4 1894.93,1635.23 1897.46,1637.01 1899.99,1638.75 1902.51,1640.45 1905.04,1642.1 1907.57,1643.71 1910.1,1645.28 1912.63,1646.82 1915.15,1648.31 1917.68,1649.76 1920.21,1651.18 1922.74,1652.56 1925.27,1653.9 1927.8,1655.21 1930.32,1656.48 1932.85,1657.72 1935.38,1658.92 1937.91,1660.1 1940.44,1661.23 1942.97,1662.34 1945.49,1663.42 1948.02,1664.47 1950.55,1665.48 1953.08,1666.47 1955.61,1667.43 1958.13,1668.36 1960.66,1669.27 1963.19,1670.14 1965.72,1670.99 1968.25,1671.81 1970.78,1672.61 1973.3,1673.38 1975.83,1674.13 1978.36,1674.85 1980.89,1675.55 1983.42,1676.22 1985.95,1676.87 1988.47,1677.49 1991,1678.09 1993.53,1678.67 1996.06,1679.23 1998.59,1679.76 2001.11,1680.27 2003.64,1680.76 2006.17,1681.22 2008.7,1681.67 2011.23,1682.09 2013.76,1682.49 2016.28,1682.87 2018.81,1683.23 2021.34,1683.56 2023.87,1683.88 2026.4,1684.17 2028.92,1684.44 2031.45,1684.69 2033.98,1684.92 2036.51,1685.12 2039.04,1685.3 2041.57,1685.46 2044.09,1685.6 2046.62,1685.72 2049.15,1685.82 2051.68,1685.89 2054.21,1685.94 2056.74,1685.97 2059.26,1685.97 2061.79,1685.96 2064.32,1685.92 2066.85,1685.86 2069.38,1685.77 2071.9,1685.66 2074.43,1685.52 2076.96,1685.36 2079.49,1685.18 2082.02,1684.97 2084.55,1684.73 2087.07,1684.46 2089.6,1684.17 2092.13,1683.84 2094.66,1683.49 2097.19,1683.1 2099.72,1682.69 2102.24,1682.24 2104.77,1681.75 2107.3,1681.24 2109.83,1680.68 2112.36,1680.09 2114.88,1679.46 2117.41,1678.8 2119.94,1678.09 2122.47,1677.34 2125,1676.55 2127.53,1675.71 2130.05,1674.82 2132.58,1673.89 2135.11,1672.89 2137.64,1671.83 2140.17,1670.71 2142.7,1669.52 2145.22,1668.28 2147.75,1666.98 2150.28,1665.61 2152.81,1664.17 2155.34,1662.67 2157.86,1661.1 2160.39,1659.45 2162.92,1657.74 2165.45,1655.94 2167.98,1654.06 2170.51,1652.09 2173.03,1650.03 2175.56,1647.87 2178.09,1645.62 2180.62,1643.25 2183.15,1640.78 2185.68,1638.18 2188.2,1635.46 2190.73,1632.61 2193.26,1629.62 2195.79,1626.48 2198.32,1623.18 2200.84,1619.72 2203.37,1616.09 2205.9,1612.28 2208.43,1608.28 2210.96,1604.07 2213.49,1599.66 2216.01,1595.03 2218.54,1590.16 2221.07,1585.05 2223.6,1579.69 2226.13,1574.06 2228.65,1568.15 2231.18,1561.95 2233.71,1555.45 2236.24,1548.63 2238.77,1541.48 2241.3,1533.98 2243.82,1526.13 2246.35,1517.9 2248.88,1509.29 2251.41,1500.27 2253.94,1490.83 2256.47,1480.95 2258.99,1470.63 2261.52,1459.85 2264.05,1448.59 2266.58,1436.83 2269.11,1424.55 2271.63,1411.75 2274.16,1398.4 2276.69,1384.5 2279.22,1370.04 2281.75,1355.03 2284.28,1339.46 2286.8,1323.34 2289.33,1306.68 2291.86,1289.48 2294.39,1271.75 2296.92,1253.52 2299.45,1234.8 2301.97,1215.62 2304.5,1196 2307.03,1175.97 2309.56,1155.55 2312.09,1134.8 2314.61,1113.73 2317.14,1092.4 2319.67,1070.84 2322.2,1049.1 2324.73,1027.29 2327.26,1005.47 2329.78,983.75 2332.31,962.194 2334.84,940.883 2337.37,919.894 2339.9,899.299 2342.43,879.169 2344.95,859.569 2347.48,840.567 2350.01,822.223 2352.54,804.598 2355.07,787.748 2357.59,771.729 2360.12,756.591 2362.65,742.384 2365.18,729.155 2367.71,716.948 2370.24,705.804 2372.76,695.761 2375.29,686.856 2377.82,679.1 2380.35,672.471 2382.88,666.955 2385.4,662.535 2387.93,659.193 2390.46,656.91 2392.99,655.663 2395.52,655.428 2398.05,656.18 2400.57,657.889 2403.1,660.527 2405.63,664.062 2408.16,668.459 2410.69,673.682 2413.22,679.693 2415.74,686.454 2418.27,693.921 2420.8,702.051 2423.33,710.799 2425.86,720.116 2428.38,729.952 2430.91,740.256 2433.44,750.975 2435.97,762.052 2438.5,773.429 2441.03,785.082 2443.55,797.018 2446.08,809.206 2448.61,821.615 2451.14,834.218 2453.67,846.986 2456.2,859.894 2458.72,872.917 2461.25,886.03 2463.78,899.212 2466.31,912.44 2468.84,925.695 2471.36,938.957 2473.89,952.21 2476.42,965.436 2478.95,978.621 2481.48,991.749 2484.01,1004.81 2486.53,1017.79 2489.06,1030.68 2491.59,1043.47 2494.12,1056.15 2496.65,1068.72 2499.18,1081.16 2501.7,1093.48 2504.23,1105.65 2506.76,1117.68 2509.29,1129.56 2511.82,1141.29 2514.34,1152.87 2516.87,1164.29 2519.4,1175.54 2521.93,1186.64 2524.46,1197.57 2526.99,1208.33 2529.51,1218.92 2532.04,1229.34 2534.57,1239.6 2537.1,1249.68 2539.63,1259.59 2542.16,1269.32 2544.68,1278.89 2547.21,1288.28 2549.74,1297.5 2552.27,1306.55 2554.8,1315.44 2557.32,1324.15 2559.85,1332.7 2562.38,1341.09 2564.91,1349.31 2567.44,1357.38 2569.97,1365.29 2572.49,1373.05 2575.02,1380.64 2577.55,1388.09 2580.08,1395.39 2582.61,1402.53 2585.13,1409.53 2587.66,1416.39 2590.19,1423.1 2592.72,1429.67 2595.25,1436.11 2597.78,1442.41 2600.3,1448.57 2602.83,1454.61 2605.36,1460.51 2607.89,1466.29 2610.42,1471.95 2612.95,1477.48 2615.47,1482.89 2618,1488.18 2620.53,1493.35 2623.06,1498.41 2625.59,1503.36 2628.11,1508.2 2630.64,1512.93 2633.17,1517.56 2635.7,1522.08 2638.23,1526.5 2640.76,1530.82 "/>
<path clip-path="url(#clip360)" d="M199.247 258.993 L559.502 258.993 L559.502 103.473 L199.247 103.473  Z" fill="#ffffff" fill-rule="evenodd" fill-opacity="1"/>
<polyline clip-path="url(#clip360)" style="stroke:#000000; stroke-linecap:round; stroke-linejoin:round; stroke-width:4; stroke-opacity:1; fill:none" points="199.247,258.993 559.502,258.993 559.502,103.473 199.247,103.473 199.247,258.993 "/>
<polyline clip-path="url(#clip360)" style="stroke:#009af9; stroke-linecap:round; stroke-linejoin:round; stroke-width:4; stroke-opacity:1; fill:none" points="227.31,155.313 395.69,155.313 "/>
<path clip-path="url(#clip360)" d="M423.754 162.362 L423.754 146.667 L428.013 146.667 L428.013 162.2 Q428.013 165.88 429.448 167.732 Q430.883 169.561 433.754 169.561 Q437.203 169.561 439.193 167.362 Q441.207 165.163 441.207 161.366 L441.207 146.667 L445.467 146.667 L445.467 172.593 L441.207 172.593 L441.207 168.612 Q439.656 170.973 437.596 172.13 Q435.559 173.264 432.851 173.264 Q428.383 173.264 426.068 170.487 Q423.754 167.709 423.754 162.362 M434.471 146.042 L434.471 146.042 Z" fill="#000000" fill-rule="nonzero" fill-opacity="1" /><path clip-path="url(#clip360)" d="M455.652 168.658 L463.291 168.658 L463.291 142.292 L454.98 143.959 L454.98 139.7 L463.244 138.033 L467.92 138.033 L467.92 168.658 L475.559 168.658 L475.559 172.593 L455.652 172.593 L455.652 168.658 Z" fill="#000000" fill-rule="nonzero" fill-opacity="1" /><path clip-path="url(#clip360)" d="M494.633 136.621 Q491.531 141.945 490.026 147.154 Q488.522 152.362 488.522 157.709 Q488.522 163.056 490.026 168.311 Q491.554 173.542 494.633 178.843 L490.929 178.843 Q487.457 173.403 485.721 168.149 Q484.008 162.894 484.008 157.709 Q484.008 152.547 485.721 147.316 Q487.434 142.084 490.929 136.621 L494.633 136.621 Z" fill="#000000" fill-rule="nonzero" fill-opacity="1" /><path clip-path="url(#clip360)" d="M507.11 139.306 L507.11 146.667 L515.883 146.667 L515.883 149.978 L507.11 149.978 L507.11 164.052 Q507.11 167.223 507.966 168.126 Q508.846 169.028 511.508 169.028 L515.883 169.028 L515.883 172.593 L511.508 172.593 Q506.577 172.593 504.702 170.764 Q502.827 168.913 502.827 164.052 L502.827 149.978 L499.702 149.978 L499.702 146.667 L502.827 146.667 L502.827 139.306 L507.11 139.306 Z" fill="#000000" fill-rule="nonzero" fill-opacity="1" /><path clip-path="url(#clip360)" d="M520.813 136.621 L524.517 136.621 Q527.989 142.084 529.702 147.316 Q531.438 152.547 531.438 157.709 Q531.438 162.894 529.702 168.149 Q527.989 173.403 524.517 178.843 L520.813 178.843 Q523.892 173.542 525.397 168.311 Q526.924 163.056 526.924 157.709 Q526.924 152.362 525.397 147.154 Q523.892 141.945 520.813 136.621 Z" fill="#000000" fill-rule="nonzero" fill-opacity="1" /><polyline clip-path="url(#clip360)" style="stroke:#e26f46; stroke-linecap:round; stroke-linejoin:round; stroke-width:4; stroke-opacity:1; fill:none" points="227.31,207.153 395.69,207.153 "/>
<path clip-path="url(#clip360)" d="M423.754 214.202 L423.754 198.507 L428.013 198.507 L428.013 214.04 Q428.013 217.72 429.448 219.572 Q430.883 221.401 433.754 221.401 Q437.203 221.401 439.193 219.202 Q441.207 217.003 441.207 213.206 L441.207 198.507 L445.467 198.507 L445.467 224.433 L441.207 224.433 L441.207 220.452 Q439.656 222.813 437.596 223.97 Q435.559 225.104 432.851 225.104 Q428.383 225.104 426.068 222.327 Q423.754 219.549 423.754 214.202 M434.471 197.882 L434.471 197.882 Z" fill="#000000" fill-rule="nonzero" fill-opacity="1" /><path clip-path="url(#clip360)" d="M458.869 220.498 L475.189 220.498 L475.189 224.433 L453.244 224.433 L453.244 220.498 Q455.906 217.743 460.49 213.114 Q465.096 208.461 466.277 207.118 Q468.522 204.595 469.402 202.859 Q470.304 201.1 470.304 199.41 Q470.304 196.656 468.36 194.919 Q466.439 193.183 463.337 193.183 Q461.138 193.183 458.684 193.947 Q456.254 194.711 453.476 196.262 L453.476 191.54 Q456.3 190.406 458.754 189.827 Q461.207 189.248 463.244 189.248 Q468.615 189.248 471.809 191.933 Q475.003 194.619 475.003 199.109 Q475.003 201.239 474.193 203.16 Q473.406 205.058 471.3 207.651 Q470.721 208.322 467.619 211.54 Q464.517 214.734 458.869 220.498 Z" fill="#000000" fill-rule="nonzero" fill-opacity="1" /><path clip-path="url(#clip360)" d="M494.633 188.461 Q491.531 193.785 490.026 198.994 Q488.522 204.202 488.522 209.549 Q488.522 214.896 490.026 220.151 Q491.554 225.382 494.633 230.683 L490.929 230.683 Q487.457 225.243 485.721 219.989 Q484.008 214.734 484.008 209.549 Q484.008 204.387 485.721 199.156 Q487.434 193.924 490.929 188.461 L494.633 188.461 Z" fill="#000000" fill-rule="nonzero" fill-opacity="1" /><path clip-path="url(#clip360)" d="M507.11 191.146 L507.11 198.507 L515.883 198.507 L515.883 201.818 L507.11 201.818 L507.11 215.892 Q507.11 219.063 507.966 219.966 Q508.846 220.868 511.508 220.868 L515.883 220.868 L515.883 224.433 L511.508 224.433 Q506.577 224.433 504.702 222.604 Q502.827 220.753 502.827 215.892 L502.827 201.818 L499.702 201.818 L499.702 198.507 L502.827 198.507 L502.827 191.146 L507.11 191.146 Z" fill="#000000" fill-rule="nonzero" fill-opacity="1" /><path clip-path="url(#clip360)" d="M520.813 188.461 L524.517 188.461 Q527.989 193.924 529.702 199.156 Q531.438 204.387 531.438 209.549 Q531.438 214.734 529.702 219.989 Q527.989 225.243 524.517 230.683 L520.813 230.683 Q523.892 225.382 525.397 220.151 Q526.924 214.896 526.924 209.549 Q526.924 204.202 525.397 198.994 Q523.892 193.785 520.813 188.461 Z" fill="#000000" fill-rule="nonzero" fill-opacity="1" /></svg>
